<svg width="1000" height="1000" xmlns="http://www.w3.org/2000/svg" version="1.1">


<!-- internal style sheet -->
<style type="text/css"><![CDATA[
 rect.background{fill:white}
 rect{fill:none; stroke:rgb(25,25,25); stroke-width:2}
 text{font-family:Helvetica; text-anchor:middle; fill:rgb(25,25,25)}
 line{stroke:rgb(25,25,25); stroke-width:4}
 path{fill:none; stroke:rgb(25,25,25); stroke-width:2}
 circle{fill:white; stroke:black; stroke-width:2}

 path.p0{fill:rgb(0,102,255); stroke:rgb(25,25,25); stroke-width:2}
 path.ps0{fill:rgb(0,77,191); stroke:rgb(20,20,20); stroke-width:2}
 rect.r0{fill:rgb(0,102,255); stroke:rgb(25,25,25); stroke-width:2}
 path.p1{fill:rgb(0,255,224); stroke:rgb(25,25,25); stroke-width:2}
 path.ps1{fill:rgb(0,191,168); stroke:rgb(20,20,20); stroke-width:2}
 rect.r1{fill:rgb(0,255,224); stroke:rgb(25,25,25); stroke-width:2}
 path.p2{fill:rgb(0,255,41); stroke:rgb(25,25,25); stroke-width:2}
 path.ps2{fill:rgb(0,191,31); stroke:rgb(20,20,20); stroke-width:2}
 rect.r2{fill:rgb(0,255,41); stroke:rgb(25,25,25); stroke-width:2}
 path.p3{fill:rgb(143,255,0); stroke:rgb(25,25,25); stroke-width:2}
 path.ps3{fill:rgb(107,191,0); stroke:rgb(20,20,20); stroke-width:2}
 rect.r3{fill:rgb(143,255,0); stroke:rgb(25,25,25); stroke-width:2}
 path.p4{fill:rgb(255,184,0); stroke:rgb(25,25,25); stroke-width:2}
 path.ps4{fill:rgb(191,138,0); stroke:rgb(20,20,20); stroke-width:2}
 rect.r4{fill:rgb(255,184,0); stroke:rgb(25,25,25); stroke-width:2}
 path.p5{fill:rgb(255,0,0); stroke:rgb(25,25,25); stroke-width:2}
 path.ps5{fill:rgb(191,0,0); stroke:rgb(20,20,20); stroke-width:2}
 rect.r5{fill:rgb(255,0,0); stroke:rgb(25,25,25); stroke-width:2}
]]></style>

 <rect class="background" width="1000" height="1000"/>
  <!-- cells -->
  <path class="p1" d="M 920 500 L 899 370 L 705 434 L 715 500 L 920 500"/>
  <line x1="920" y1="500" x2="899" y2="370"/>
  <path class="p1" d="M 899 370 L 840 253 L 674 374 L 705 434 L 899 370"/>
  <line x1="899" y1="370" x2="840" y2="253"/>
  <path class="p1" d="M 840 253 L 747 160 L 626 326 L 674 374 L 840 253"/>
  <line x1="840" y1="253" x2="747" y2="160"/>
  <path class="p1" d="M 747 160 L 630 101 L 566 295 L 626 326 L 747 160"/>
  <line x1="747" y1="160" x2="630" y2="101"/>
  <path class="p1" d="M 630 101 L 500 80 L 500 285 L 566 295 L 630 101"/>
  <line x1="630" y1="101" x2="500" y2="80"/>
  <path class="p1" d="M 500 80 L 370 101 L 434 295 L 500 285 L 500 80"/>
  <line x1="500" y1="80" x2="370" y2="101"/>
  <path class="p1" d="M 370 101 L 253 160 L 374 326 L 434 295 L 370 101"/>
  <line x1="370" y1="101" x2="253" y2="160"/>
  <path class="p1" d="M 253 160 L 160 253 L 326 374 L 374 326 L 253 160"/>
  <line x1="253" y1="160" x2="160" y2="253"/>
  <path class="p1" d="M 160 253 L 101 370 L 295 434 L 326 374 L 160 253"/>
  <line x1="160" y1="253" x2="101" y2="370"/>
  <path class="p1" d="M 101 370 L 80 500 L 285 500 L 295 434 L 101 370"/>
  <line x1="101" y1="370" x2="80" y2="500"/>
  <path class="p1" d="M 80 500 L 101 630 L 295 566 L 285 500 L 80 500"/>
  <line x1="80" y1="500" x2="101" y2="630"/>
  <path class="p1" d="M 101 630 L 160 747 L 326 626 L 295 566 L 101 630"/>
  <line x1="101" y1="630" x2="160" y2="747"/>
  <path class="p1" d="M 160 747 L 253 840 L 374 674 L 326 626 L 160 747"/>
  <line x1="160" y1="747" x2="253" y2="840"/>
  <path class="p1" d="M 253 840 L 370 899 L 434 705 L 374 674 L 253 840"/>
  <line x1="253" y1="840" x2="370" y2="899"/>
  <path class="p1" d="M 370 899 L 500 920 L 500 715 L 434 705 L 370 899"/>
  <line x1="370" y1="899" x2="500" y2="920"/>
  <path class="p1" d="M 500 920 L 630 899 L 566 705 L 500 715 L 500 920"/>
  <line x1="500" y1="920" x2="630" y2="899"/>
  <path class="p1" d="M 630 899 L 747 840 L 626 674 L 566 705 L 630 899"/>
  <line x1="630" y1="899" x2="747" y2="840"/>
  <path class="p1" d="M 747 840 L 840 747 L 674 626 L 626 674 L 747 840"/>
  <line x1="747" y1="840" x2="840" y2="747"/>
  <path class="p1" d="M 840 747 L 899 630 L 705 566 L 674 626 L 840 747"/>
  <line x1="840" y1="747" x2="899" y2="630"/>
  <path class="p1" d="M 899 630 L 920 500 L 715 500 L 705 566 L 899 630"/>
  <line x1="899" y1="630" x2="920" y2="500"/>
  <path class="p2" d="M 715 500 L 712 466 L 611 482 L 613 500 L 715 500"/>
  <path class="p2" d="M 712 466 L 705 434 L 607 465 L 611 482 L 712 466"/>
  <path class="p2" d="M 705 434 L 692 402 L 600 449 L 607 465 L 705 434"/>
  <path class="p2" d="M 692 402 L 674 374 L 591 434 L 600 449 L 692 402"/>
  <path class="p2" d="M 674 374 L 652 348 L 580 420 L 591 434 L 674 374"/>
  <path class="p2" d="M 652 348 L 626 326 L 566 409 L 580 420 L 652 348"/>
  <path class="p2" d="M 626 326 L 598 308 L 551 400 L 566 409 L 626 326"/>
  <path class="p2" d="M 598 308 L 566 295 L 535 393 L 551 400 L 598 308"/>
  <path class="p2" d="M 566 295 L 534 288 L 518 389 L 535 393 L 566 295"/>
  <path class="p2" d="M 534 288 L 500 285 L 500 387 L 518 389 L 534 288"/>
  <path class="p2" d="M 500 285 L 466 288 L 482 389 L 500 387 L 500 285"/>
  <path class="p2" d="M 466 288 L 434 295 L 465 393 L 482 389 L 466 288"/>
  <path class="p2" d="M 434 295 L 402 308 L 449 400 L 465 393 L 434 295"/>
  <path class="p2" d="M 402 308 L 374 326 L 434 409 L 449 400 L 402 308"/>
  <path class="p2" d="M 374 326 L 348 348 L 420 420 L 434 409 L 374 326"/>
  <path class="p2" d="M 348 348 L 326 374 L 409 434 L 420 420 L 348 348"/>
  <path class="p2" d="M 326 374 L 308 402 L 400 449 L 409 434 L 326 374"/>
  <path class="p2" d="M 308 402 L 295 434 L 393 465 L 400 449 L 308 402"/>
  <path class="p2" d="M 295 434 L 288 466 L 389 482 L 393 465 L 295 434"/>
  <path class="p2" d="M 288 466 L 285 500 L 387 500 L 389 482 L 288 466"/>
  <path class="p2" d="M 285 500 L 288 534 L 389 518 L 387 500 L 285 500"/>
  <path class="p2" d="M 288 534 L 295 566 L 393 535 L 389 518 L 288 534"/>
  <path class="p2" d="M 295 566 L 308 598 L 400 551 L 393 535 L 295 566"/>
  <path class="p2" d="M 308 598 L 326 626 L 409 566 L 400 551 L 308 598"/>
  <path class="p2" d="M 326 626 L 348 652 L 420 580 L 409 566 L 326 626"/>
  <path class="p2" d="M 348 652 L 374 674 L 434 591 L 420 580 L 348 652"/>
  <path class="p2" d="M 374 674 L 402 692 L 449 600 L 434 591 L 374 674"/>
  <path class="p2" d="M 402 692 L 434 705 L 465 607 L 449 600 L 402 692"/>
  <path class="p2" d="M 434 705 L 466 712 L 482 611 L 465 607 L 434 705"/>
  <path class="p2" d="M 466 712 L 500 715 L 500 613 L 482 611 L 466 712"/>
  <path class="p2" d="M 500 715 L 534 712 L 518 611 L 500 613 L 500 715"/>
  <path class="p2" d="M 534 712 L 566 705 L 535 607 L 518 611 L 534 712"/>
  <path class="p2" d="M 566 705 L 598 692 L 551 600 L 535 607 L 566 705"/>
  <path class="p2" d="M 598 692 L 626 674 L 566 591 L 551 600 L 598 692"/>
  <path class="p2" d="M 626 674 L 652 652 L 580 580 L 566 591 L 626 674"/>
  <path class="p2" d="M 652 652 L 674 626 L 591 566 L 580 580 L 652 652"/>
  <path class="p2" d="M 674 626 L 692 598 L 600 551 L 591 566 L 674 626"/>
  <path class="p2" d="M 692 598 L 705 566 L 607 535 L 600 551 L 692 598"/>
  <path class="p2" d="M 705 566 L 712 534 L 611 518 L 607 535 L 705 566"/>
  <path class="p2" d="M 712 534 L 715 500 L 613 500 L 611 518 L 712 534"/>
  <path class="p3" d="M 613 500 L 612 491 L 561 495 L 561 500 L 613 500"/>
  <path class="p3" d="M 612 491 L 611 482 L 561 490 L 561 495 L 612 491"/>
  <path class="p3" d="M 611 482 L 610 474 L 560 486 L 561 490 L 611 482"/>
  <path class="p3" d="M 610 474 L 607 465 L 558 481 L 560 486 L 610 474"/>
  <path class="p3" d="M 607 465 L 604 457 L 557 476 L 558 481 L 607 465"/>
  <path class="p3" d="M 604 457 L 600 449 L 555 472 L 557 476 L 604 457"/>
  <path class="p3" d="M 600 449 L 596 441 L 552 468 L 555 472 L 600 449"/>
  <path class="p3" d="M 596 441 L 591 434 L 550 464 L 552 468 L 596 441"/>
  <path class="p3" d="M 591 434 L 586 427 L 547 460 L 550 464 L 591 434"/>
  <path class="p3" d="M 586 427 L 580 420 L 543 457 L 547 460 L 586 427"/>
  <path class="p3" d="M 580 420 L 573 414 L 540 453 L 543 457 L 580 420"/>
  <path class="p3" d="M 573 414 L 566 409 L 536 450 L 540 453 L 573 414"/>
  <path class="p3" d="M 566 409 L 559 404 L 532 448 L 536 450 L 566 409"/>
  <path class="p3" d="M 559 404 L 551 400 L 528 445 L 532 448 L 559 404"/>
  <path class="p3" d="M 551 400 L 543 396 L 524 443 L 528 445 L 551 400"/>
  <path class="p3" d="M 543 396 L 535 393 L 519 442 L 524 443 L 543 396"/>
  <path class="p3" d="M 535 393 L 526 390 L 514 440 L 519 442 L 535 393"/>
  <path class="p3" d="M 526 390 L 518 389 L 510 439 L 514 440 L 526 390"/>
  <path class="p3" d="M 518 389 L 509 388 L 505 439 L 510 439 L 518 389"/>
  <path class="p3" d="M 509 388 L 500 387 L 500 439 L 505 439 L 509 388"/>
  <path class="p3" d="M 500 387 L 491 388 L 495 439 L 500 439 L 500 387"/>
  <path class="p3" d="M 491 388 L 482 389 L 490 439 L 495 439 L 491 388"/>
  <path class="p3" d="M 482 389 L 474 390 L 486 440 L 490 439 L 482 389"/>
  <path class="p3" d="M 474 390 L 465 393 L 481 442 L 486 440 L 474 390"/>
  <path class="p3" d="M 465 393 L 457 396 L 476 443 L 481 442 L 465 393"/>
  <path class="p3" d="M 457 396 L 449 400 L 472 445 L 476 443 L 457 396"/>
  <path class="p3" d="M 449 400 L 441 404 L 468 448 L 472 445 L 449 400"/>
  <path class="p3" d="M 441 404 L 434 409 L 464 450 L 468 448 L 441 404"/>
  <path class="p3" d="M 434 409 L 427 414 L 460 453 L 464 450 L 434 409"/>
  <path class="p3" d="M 427 414 L 420 420 L 457 457 L 460 453 L 427 414"/>
  <path class="p3" d="M 420 420 L 414 427 L 453 460 L 457 457 L 420 420"/>
  <path class="p3" d="M 414 427 L 409 434 L 450 464 L 453 460 L 414 427"/>
  <path class="p3" d="M 409 434 L 404 441 L 448 468 L 450 464 L 409 434"/>
  <path class="p3" d="M 404 441 L 400 449 L 445 472 L 448 468 L 404 441"/>
  <path class="p3" d="M 400 449 L 396 457 L 443 476 L 445 472 L 400 449"/>
  <path class="p3" d="M 396 457 L 393 465 L 442 481 L 443 476 L 396 457"/>
  <path class="p3" d="M 393 465 L 390 474 L 440 486 L 442 481 L 393 465"/>
  <path class="p3" d="M 390 474 L 389 482 L 439 490 L 440 486 L 390 474"/>
  <path class="p3" d="M 389 482 L 388 491 L 439 495 L 439 490 L 389 482"/>
  <path class="p3" d="M 388 491 L 387 500 L 439 500 L 439 495 L 388 491"/>
  <path class="p3" d="M 387 500 L 388 509 L 439 505 L 439 500 L 387 500"/>
  <path class="p3" d="M 388 509 L 389 518 L 439 510 L 439 505 L 388 509"/>
  <path class="p3" d="M 389 518 L 390 526 L 440 514 L 439 510 L 389 518"/>
  <path class="p3" d="M 390 526 L 393 535 L 442 519 L 440 514 L 390 526"/>
  <path class="p3" d="M 393 535 L 396 543 L 443 524 L 442 519 L 393 535"/>
  <path class="p3" d="M 396 543 L 400 551 L 445 528 L 443 524 L 396 543"/>
  <path class="p3" d="M 400 551 L 404 559 L 448 532 L 445 528 L 400 551"/>
  <path class="p3" d="M 404 559 L 409 566 L 450 536 L 448 532 L 404 559"/>
  <path class="p3" d="M 409 566 L 414 573 L 453 540 L 450 536 L 409 566"/>
  <path class="p3" d="M 414 573 L 420 580 L 457 543 L 453 540 L 414 573"/>
  <path class="p3" d="M 420 580 L 427 586 L 460 547 L 457 543 L 420 580"/>
  <path class="p3" d="M 427 586 L 434 591 L 464 550 L 460 547 L 427 586"/>
  <path class="p3" d="M 434 591 L 441 596 L 468 552 L 464 550 L 434 591"/>
  <path class="p3" d="M 441 596 L 449 600 L 472 555 L 468 552 L 441 596"/>
  <path class="p3" d="M 449 600 L 457 604 L 476 557 L 472 555 L 449 600"/>
  <path class="p3" d="M 457 604 L 465 607 L 481 558 L 476 557 L 457 604"/>
  <path class="p3" d="M 465 607 L 474 610 L 486 560 L 481 558 L 465 607"/>
  <path class="p3" d="M 474 610 L 482 611 L 490 561 L 486 560 L 474 610"/>
  <path class="p3" d="M 482 611 L 491 612 L 495 561 L 490 561 L 482 611"/>
  <path class="p3" d="M 491 612 L 500 613 L 500 561 L 495 561 L 491 612"/>
  <path class="p3" d="M 500 613 L 509 612 L 505 561 L 500 561 L 500 613"/>
  <path class="p3" d="M 509 612 L 518 611 L 510 561 L 505 561 L 509 612"/>
  <path class="p3" d="M 518 611 L 526 610 L 514 560 L 510 561 L 518 611"/>
  <path class="p3" d="M 526 610 L 535 607 L 519 558 L 514 560 L 526 610"/>
  <path class="p3" d="M 535 607 L 543 604 L 524 557 L 519 558 L 535 607"/>
  <path class="p3" d="M 543 604 L 551 600 L 528 555 L 524 557 L 543 604"/>
  <path class="p3" d="M 551 600 L 559 596 L 532 552 L 528 555 L 551 600"/>
  <path class="p3" d="M 559 596 L 566 591 L 536 550 L 532 552 L 559 596"/>
  <path class="p3" d="M 566 591 L 573 586 L 540 547 L 536 550 L 566 591"/>
  <path class="p3" d="M 573 586 L 580 580 L 543 543 L 540 547 L 573 586"/>
  <path class="p3" d="M 580 580 L 586 573 L 547 540 L 543 543 L 580 580"/>
  <path class="p3" d="M 586 573 L 591 566 L 550 536 L 547 540 L 586 573"/>
  <path class="p3" d="M 591 566 L 596 559 L 552 532 L 550 536 L 591 566"/>
  <path class="p3" d="M 596 559 L 600 551 L 555 528 L 552 532 L 596 559"/>
  <path class="p3" d="M 600 551 L 604 543 L 557 524 L 555 528 L 600 551"/>
  <path class="p3" d="M 604 543 L 607 535 L 558 519 L 557 524 L 604 543"/>
  <path class="p3" d="M 607 535 L 610 526 L 560 514 L 558 519 L 607 535"/>
  <path class="p3" d="M 610 526 L 611 518 L 561 510 L 560 514 L 610 526"/>
  <path class="p3" d="M 611 518 L 612 509 L 561 505 L 561 510 L 611 518"/>
  <path class="p3" d="M 612 509 L 613 500 L 561 500 L 561 505 L 612 509"/>
  <path class="p4" d="M 561 500 L 561 498 L 536 499 L 536 500 L 561 500"/>
  <path class="p4" d="M 561 498 L 561 495 L 536 497 L 536 499 L 561 498"/>
  <path class="p4" d="M 561 495 L 561 493 L 536 496 L 536 497 L 561 495"/>
  <path class="p4" d="M 561 493 L 561 490 L 535 494 L 536 496 L 561 493"/>
  <path class="p4" d="M 561 490 L 560 488 L 535 493 L 535 494 L 561 490"/>
  <path class="p4" d="M 560 488 L 560 486 L 535 492 L 535 493 L 560 488"/>
  <path class="p4" d="M 560 486 L 559 483 L 535 490 L 535 492 L 560 486"/>
  <path class="p4" d="M 559 483 L 558 481 L 534 489 L 535 490 L 559 483"/>
  <path class="p4" d="M 558 481 L 558 479 L 534 488 L 534 489 L 558 481"/>
  <path class="p4" d="M 558 479 L 557 476 L 533 486 L 534 488 L 558 479"/>
  <path class="p4" d="M 557 476 L 556 474 L 533 485 L 533 486 L 557 476"/>
  <path class="p4" d="M 556 474 L 555 472 L 532 484 L 533 485 L 556 474"/>
  <path class="p4" d="M 555 472 L 554 470 L 531 482 L 532 484 L 555 472"/>
  <path class="p4" d="M 554 470 L 552 468 L 531 481 L 531 482 L 554 470"/>
  <path class="p4" d="M 552 468 L 551 466 L 530 480 L 531 481 L 552 468"/>
  <path class="p4" d="M 551 466 L 550 464 L 529 479 L 530 480 L 551 466"/>
  <path class="p4" d="M 550 464 L 548 462 L 528 478 L 529 479 L 550 464"/>
  <path class="p4" d="M 548 462 L 547 460 L 527 477 L 528 478 L 548 462"/>
  <path class="p4" d="M 547 460 L 545 458 L 526 476 L 527 477 L 547 460"/>
  <path class="p4" d="M 545 458 L 543 457 L 525 475 L 526 476 L 545 458"/>
  <path class="p4" d="M 543 457 L 542 455 L 524 474 L 525 475 L 543 457"/>
  <path class="p4" d="M 542 455 L 540 453 L 523 473 L 524 474 L 542 455"/>
  <path class="p4" d="M 540 453 L 538 452 L 522 472 L 523 473 L 540 453"/>
  <path class="p4" d="M 538 452 L 536 450 L 521 471 L 522 472 L 538 452"/>
  <path class="p4" d="M 536 450 L 534 449 L 520 470 L 521 471 L 536 450"/>
  <path class="p4" d="M 534 449 L 532 448 L 519 469 L 520 470 L 534 449"/>
  <path class="p4" d="M 532 448 L 530 446 L 518 469 L 519 469 L 532 448"/>
  <path class="p4" d="M 530 446 L 528 445 L 516 468 L 518 469 L 530 446"/>
  <path class="p4" d="M 528 445 L 526 444 L 515 467 L 516 468 L 528 445"/>
  <path class="p4" d="M 526 444 L 524 443 L 514 467 L 515 467 L 526 444"/>
  <path class="p4" d="M 524 443 L 521 442 L 512 466 L 514 467 L 524 443"/>
  <path class="p4" d="M 521 442 L 519 442 L 511 466 L 512 466 L 521 442"/>
  <path class="p4" d="M 519 442 L 517 441 L 510 465 L 511 466 L 519 442"/>
  <path class="p4" d="M 517 441 L 514 440 L 508 465 L 510 465 L 517 441"/>
  <path class="p4" d="M 514 440 L 512 440 L 507 465 L 508 465 L 514 440"/>
  <path class="p4" d="M 512 440 L 510 439 L 506 465 L 507 465 L 512 440"/>
  <path class="p4" d="M 510 439 L 507 439 L 504 464 L 506 465 L 510 439"/>
  <path class="p4" d="M 507 439 L 505 439 L 503 464 L 504 464 L 507 439"/>
  <path class="p4" d="M 505 439 L 502 439 L 501 464 L 503 464 L 505 439"/>
  <path class="p4" d="M 502 439 L 500 439 L 500 464 L 501 464 L 502 439"/>
  <path class="p4" d="M 500 439 L 498 439 L 499 464 L 500 464 L 500 439"/>
  <path class="p4" d="M 498 439 L 495 439 L 497 464 L 499 464 L 498 439"/>
  <path class="p4" d="M 495 439 L 493 439 L 496 464 L 497 464 L 495 439"/>
  <path class="p4" d="M 493 439 L 490 439 L 494 465 L 496 464 L 493 439"/>
  <path class="p4" d="M 490 439 L 488 440 L 493 465 L 494 465 L 490 439"/>
  <path class="p4" d="M 488 440 L 486 440 L 492 465 L 493 465 L 488 440"/>
  <path class="p4" d="M 486 440 L 483 441 L 490 465 L 492 465 L 486 440"/>
  <path class="p4" d="M 483 441 L 481 442 L 489 466 L 490 465 L 483 441"/>
  <path class="p4" d="M 481 442 L 479 442 L 488 466 L 489 466 L 481 442"/>
  <path class="p4" d="M 479 442 L 476 443 L 486 467 L 488 466 L 479 442"/>
  <path class="p4" d="M 476 443 L 474 444 L 485 467 L 486 467 L 476 443"/>
  <path class="p4" d="M 474 444 L 472 445 L 484 468 L 485 467 L 474 444"/>
  <path class="p4" d="M 472 445 L 470 446 L 482 469 L 484 468 L 472 445"/>
  <path class="p4" d="M 470 446 L 468 448 L 481 469 L 482 469 L 470 446"/>
  <path class="p4" d="M 468 448 L 466 449 L 480 470 L 481 469 L 468 448"/>
  <path class="p4" d="M 466 449 L 464 450 L 479 471 L 480 470 L 466 449"/>
  <path class="p4" d="M 464 450 L 462 452 L 478 472 L 479 471 L 464 450"/>
  <path class="p4" d="M 462 452 L 460 453 L 477 473 L 478 472 L 462 452"/>
  <path class="p4" d="M 460 453 L 458 455 L 476 474 L 477 473 L 460 453"/>
  <path class="p4" d="M 458 455 L 457 457 L 475 475 L 476 474 L 458 455"/>
  <path class="p4" d="M 457 457 L 455 458 L 474 476 L 475 475 L 457 457"/>
  <path class="p4" d="M 455 458 L 453 460 L 473 477 L 474 476 L 455 458"/>
  <path class="p4" d="M 453 460 L 452 462 L 472 478 L 473 477 L 453 460"/>
  <path class="p4" d="M 452 462 L 450 464 L 471 479 L 472 478 L 452 462"/>
  <path class="p4" d="M 450 464 L 449 466 L 470 480 L 471 479 L 450 464"/>
  <path class="p4" d="M 449 466 L 448 468 L 469 481 L 470 480 L 449 466"/>
  <path class="p4" d="M 448 468 L 446 470 L 469 482 L 469 481 L 448 468"/>
  <path class="p4" d="M 446 470 L 445 472 L 468 484 L 469 482 L 446 470"/>
  <path class="p4" d="M 445 472 L 444 474 L 467 485 L 468 484 L 445 472"/>
  <path class="p4" d="M 444 474 L 443 476 L 467 486 L 467 485 L 444 474"/>
  <path class="p4" d="M 443 476 L 442 479 L 466 488 L 467 486 L 443 476"/>
  <path class="p4" d="M 442 479 L 442 481 L 466 489 L 466 488 L 442 479"/>
  <path class="p4" d="M 442 481 L 441 483 L 465 490 L 466 489 L 442 481"/>
  <path class="p4" d="M 441 483 L 440 486 L 465 492 L 465 490 L 441 483"/>
  <path class="p4" d="M 440 486 L 440 488 L 465 493 L 465 492 L 440 486"/>
  <path class="p4" d="M 440 488 L 439 490 L 465 494 L 465 493 L 440 488"/>
  <path class="p4" d="M 439 490 L 439 493 L 464 496 L 465 494 L 439 490"/>
  <path class="p4" d="M 439 493 L 439 495 L 464 497 L 464 496 L 439 493"/>
  <path class="p4" d="M 439 495 L 439 498 L 464 499 L 464 497 L 439 495"/>
  <path class="p4" d="M 439 498 L 439 500 L 464 500 L 464 499 L 439 498"/>
  <path class="p4" d="M 439 500 L 439 502 L 464 501 L 464 500 L 439 500"/>
  <path class="p4" d="M 439 502 L 439 505 L 464 503 L 464 501 L 439 502"/>
  <path class="p4" d="M 439 505 L 439 507 L 464 504 L 464 503 L 439 505"/>
  <path class="p4" d="M 439 507 L 439 510 L 465 506 L 464 504 L 439 507"/>
  <path class="p4" d="M 439 510 L 440 512 L 465 507 L 465 506 L 439 510"/>
  <path class="p4" d="M 440 512 L 440 514 L 465 508 L 465 507 L 440 512"/>
  <path class="p4" d="M 440 514 L 441 517 L 465 510 L 465 508 L 440 514"/>
  <path class="p4" d="M 441 517 L 442 519 L 466 511 L 465 510 L 441 517"/>
  <path class="p4" d="M 442 519 L 442 521 L 466 512 L 466 511 L 442 519"/>
  <path class="p4" d="M 442 521 L 443 524 L 467 514 L 466 512 L 442 521"/>
  <path class="p4" d="M 443 524 L 444 526 L 467 515 L 467 514 L 443 524"/>
  <path class="p4" d="M 444 526 L 445 528 L 468 516 L 467 515 L 444 526"/>
  <path class="p4" d="M 445 528 L 446 530 L 469 518 L 468 516 L 445 528"/>
  <path class="p4" d="M 446 530 L 448 532 L 469 519 L 469 518 L 446 530"/>
  <path class="p4" d="M 448 532 L 449 534 L 470 520 L 469 519 L 448 532"/>
  <path class="p4" d="M 449 534 L 450 536 L 471 521 L 470 520 L 449 534"/>
  <path class="p4" d="M 450 536 L 452 538 L 472 522 L 471 521 L 450 536"/>
  <path class="p4" d="M 452 538 L 453 540 L 473 523 L 472 522 L 452 538"/>
  <path class="p4" d="M 453 540 L 455 542 L 474 524 L 473 523 L 453 540"/>
  <path class="p4" d="M 455 542 L 457 543 L 475 525 L 474 524 L 455 542"/>
  <path class="p4" d="M 457 543 L 458 545 L 476 526 L 475 525 L 457 543"/>
  <path class="p4" d="M 458 545 L 460 547 L 477 527 L 476 526 L 458 545"/>
  <path class="p4" d="M 460 547 L 462 548 L 478 528 L 477 527 L 460 547"/>
  <path class="p4" d="M 462 548 L 464 550 L 479 529 L 478 528 L 462 548"/>
  <path class="p4" d="M 464 550 L 466 551 L 480 530 L 479 529 L 464 550"/>
  <path class="p4" d="M 466 551 L 468 552 L 481 531 L 480 530 L 466 551"/>
  <path class="p4" d="M 468 552 L 470 554 L 482 531 L 481 531 L 468 552"/>
  <path class="p4" d="M 470 554 L 472 555 L 484 532 L 482 531 L 470 554"/>
  <path class="p4" d="M 472 555 L 474 556 L 485 533 L 484 532 L 472 555"/>
  <path class="p4" d="M 474 556 L 476 557 L 486 533 L 485 533 L 474 556"/>
  <path class="p4" d="M 476 557 L 479 558 L 488 534 L 486 533 L 476 557"/>
  <path class="p4" d="M 479 558 L 481 558 L 489 534 L 488 534 L 479 558"/>
  <path class="p4" d="M 481 558 L 483 559 L 490 535 L 489 534 L 481 558"/>
  <path class="p4" d="M 483 559 L 486 560 L 492 535 L 490 535 L 483 559"/>
  <path class="p4" d="M 486 560 L 488 560 L 493 535 L 492 535 L 486 560"/>
  <path class="p4" d="M 488 560 L 490 561 L 494 535 L 493 535 L 488 560"/>
  <path class="p4" d="M 490 561 L 493 561 L 496 536 L 494 535 L 490 561"/>
  <path class="p4" d="M 493 561 L 495 561 L 497 536 L 496 536 L 493 561"/>
  <path class="p4" d="M 495 561 L 498 561 L 499 536 L 497 536 L 495 561"/>
  <path class="p4" d="M 498 561 L 500 561 L 500 536 L 499 536 L 498 561"/>
  <path class="p4" d="M 500 561 L 502 561 L 501 536 L 500 536 L 500 561"/>
  <path class="p4" d="M 502 561 L 505 561 L 503 536 L 501 536 L 502 561"/>
  <path class="p4" d="M 505 561 L 507 561 L 504 536 L 503 536 L 505 561"/>
  <path class="p4" d="M 507 561 L 510 561 L 506 535 L 504 536 L 507 561"/>
  <path class="p4" d="M 510 561 L 512 560 L 507 535 L 506 535 L 510 561"/>
  <path class="p4" d="M 512 560 L 514 560 L 508 535 L 507 535 L 512 560"/>
  <path class="p4" d="M 514 560 L 517 559 L 510 535 L 508 535 L 514 560"/>
  <path class="p4" d="M 517 559 L 519 558 L 511 534 L 510 535 L 517 559"/>
  <path class="p4" d="M 519 558 L 521 558 L 512 534 L 511 534 L 519 558"/>
  <path class="p4" d="M 521 558 L 524 557 L 514 533 L 512 534 L 521 558"/>
  <path class="p4" d="M 524 557 L 526 556 L 515 533 L 514 533 L 524 557"/>
  <path class="p4" d="M 526 556 L 528 555 L 516 532 L 515 533 L 526 556"/>
  <path class="p4" d="M 528 555 L 530 554 L 518 531 L 516 532 L 528 555"/>
  <path class="p4" d="M 530 554 L 532 552 L 519 531 L 518 531 L 530 554"/>
  <path class="p4" d="M 532 552 L 534 551 L 520 530 L 519 531 L 532 552"/>
  <path class="p4" d="M 534 551 L 536 550 L 521 529 L 520 530 L 534 551"/>
  <path class="p4" d="M 536 550 L 538 548 L 522 528 L 521 529 L 536 550"/>
  <path class="p4" d="M 538 548 L 540 547 L 523 527 L 522 528 L 538 548"/>
  <path class="p4" d="M 540 547 L 542 545 L 524 526 L 523 527 L 540 547"/>
  <path class="p4" d="M 542 545 L 543 543 L 525 525 L 524 526 L 542 545"/>
  <path class="p4" d="M 543 543 L 545 542 L 526 524 L 525 525 L 543 543"/>
  <path class="p4" d="M 545 542 L 547 540 L 527 523 L 526 524 L 545 542"/>
  <path class="p4" d="M 547 540 L 548 538 L 528 522 L 527 523 L 547 540"/>
  <path class="p4" d="M 548 538 L 550 536 L 529 521 L 528 522 L 548 538"/>
  <path class="p4" d="M 550 536 L 551 534 L 530 520 L 529 521 L 550 536"/>
  <path class="p4" d="M 551 534 L 552 532 L 531 519 L 530 520 L 551 534"/>
  <path class="p4" d="M 552 532 L 554 530 L 531 518 L 531 519 L 552 532"/>
  <path class="p4" d="M 554 530 L 555 528 L 532 516 L 531 518 L 554 530"/>
  <path class="p4" d="M 555 528 L 556 526 L 533 515 L 532 516 L 555 528"/>
  <path class="p4" d="M 556 526 L 557 524 L 533 514 L 533 515 L 556 526"/>
  <path class="p4" d="M 557 524 L 558 521 L 534 512 L 533 514 L 557 524"/>
  <path class="p4" d="M 558 521 L 558 519 L 534 511 L 534 512 L 558 521"/>
  <path class="p4" d="M 558 519 L 559 517 L 535 510 L 534 511 L 558 519"/>
  <path class="p4" d="M 559 517 L 560 514 L 535 508 L 535 510 L 559 517"/>
  <path class="p4" d="M 560 514 L 560 512 L 535 507 L 535 508 L 560 514"/>
  <path class="p4" d="M 560 512 L 561 510 L 535 506 L 535 507 L 560 512"/>
  <path class="p4" d="M 561 510 L 561 507 L 536 504 L 535 506 L 561 510"/>
  <path class="p4" d="M 561 507 L 561 505 L 536 503 L 536 504 L 561 507"/>
  <path class="p4" d="M 561 505 L 561 502 L 536 501 L 536 503 L 561 505"/>
  <path class="p4" d="M 561 502 L 561 500 L 536 500 L 536 501 L 561 502"/>
  <path class="p5" d="M 536 500 L 536 499 L 523 500 L 523 500 L 536 500"/>
  <path class="p5" d="M 536 499 L 536 499 L 523 499 L 523 500 L 536 499"/>
  <path class="p5" d="M 523 500 L 523 500 L 510 500 L 510 500 L 523 500"/>
  <line x1="510" y1="500" x2="510" y2="500"/>
  <path class="p5" d="M 523 500 L 523 499 L 510 500 L 510 500 L 523 500"/>
  <line x1="510" y1="500" x2="510" y2="500"/>
  <path class="p5" d="M 536 499 L 536 498 L 523 499 L 523 499 L 536 499"/>
  <path class="p5" d="M 536 498 L 536 497 L 523 498 L 523 499 L 536 498"/>
  <path class="p5" d="M 523 499 L 523 499 L 510 499 L 510 500 L 523 499"/>
  <line x1="510" y1="500" x2="510" y2="499"/>
  <path class="p5" d="M 523 499 L 523 498 L 510 499 L 510 499 L 523 499"/>
  <line x1="510" y1="499" x2="510" y2="499"/>
  <path class="p5" d="M 536 497 L 536 496 L 523 498 L 523 498 L 536 497"/>
  <path class="p5" d="M 536 496 L 536 496 L 523 497 L 523 498 L 536 496"/>
  <path class="p5" d="M 523 498 L 523 498 L 510 499 L 510 499 L 523 498"/>
  <line x1="510" y1="499" x2="510" y2="499"/>
  <path class="p5" d="M 523 498 L 523 497 L 510 499 L 510 499 L 523 498"/>
  <line x1="510" y1="499" x2="510" y2="499"/>
  <path class="p5" d="M 536 496 L 536 495 L 523 497 L 523 497 L 536 496"/>
  <path class="p5" d="M 536 495 L 535 494 L 523 496 L 523 497 L 536 495"/>
  <path class="p5" d="M 523 497 L 523 497 L 510 499 L 510 499 L 523 497"/>
  <line x1="510" y1="499" x2="510" y2="499"/>
  <path class="p5" d="M 523 497 L 523 496 L 510 498 L 510 499 L 523 497"/>
  <line x1="510" y1="499" x2="510" y2="498"/>
  <path class="p5" d="M 535 494 L 535 494 L 523 496 L 523 496 L 535 494"/>
  <path class="p5" d="M 535 494 L 535 493 L 523 496 L 523 496 L 535 494"/>
  <path class="p5" d="M 523 496 L 523 496 L 510 498 L 510 498 L 523 496"/>
  <line x1="510" y1="498" x2="510" y2="498"/>
  <path class="p5" d="M 523 496 L 523 496 L 510 498 L 510 498 L 523 496"/>
  <line x1="510" y1="498" x2="510" y2="498"/>
  <path class="p5" d="M 535 493 L 535 492 L 523 495 L 523 496 L 535 493"/>
  <path class="p5" d="M 535 492 L 535 492 L 522 495 L 523 495 L 535 492"/>
  <path class="p5" d="M 523 496 L 523 495 L 510 498 L 510 498 L 523 496"/>
  <line x1="510" y1="498" x2="510" y2="498"/>
  <path class="p5" d="M 523 495 L 522 495 L 510 498 L 510 498 L 523 495"/>
  <line x1="510" y1="498" x2="510" y2="498"/>
  <path class="p5" d="M 535 492 L 535 491 L 522 494 L 522 495 L 535 492"/>
  <path class="p5" d="M 535 491 L 535 490 L 522 494 L 522 494 L 535 491"/>
  <path class="p5" d="M 522 495 L 522 494 L 510 497 L 510 498 L 522 495"/>
  <line x1="510" y1="498" x2="510" y2="497"/>
  <path class="p5" d="M 522 494 L 522 494 L 510 497 L 510 497 L 522 494"/>
  <line x1="510" y1="497" x2="510" y2="497"/>
  <path class="p5" d="M 535 490 L 534 490 L 522 493 L 522 494 L 535 490"/>
  <path class="p5" d="M 534 490 L 534 489 L 522 493 L 522 493 L 534 490"/>
  <path class="p5" d="M 522 494 L 522 493 L 510 497 L 510 497 L 522 494"/>
  <line x1="510" y1="497" x2="510" y2="497"/>
  <path class="p5" d="M 522 493 L 522 493 L 510 497 L 510 497 L 522 493"/>
  <line x1="510" y1="497" x2="510" y2="497"/>
  <path class="p5" d="M 534 489 L 534 488 L 522 492 L 522 493 L 534 489"/>
  <path class="p5" d="M 534 488 L 534 488 L 522 492 L 522 492 L 534 488"/>
  <path class="p5" d="M 522 493 L 522 492 L 510 497 L 510 497 L 522 493"/>
  <line x1="510" y1="497" x2="510" y2="497"/>
  <path class="p5" d="M 522 492 L 522 492 L 510 496 L 510 497 L 522 492"/>
  <line x1="510" y1="497" x2="510" y2="496"/>
  <path class="p5" d="M 534 488 L 533 487 L 521 492 L 522 492 L 534 488"/>
  <path class="p5" d="M 533 487 L 533 486 L 521 491 L 521 492 L 533 487"/>
  <path class="p5" d="M 522 492 L 521 492 L 510 496 L 510 496 L 522 492"/>
  <line x1="510" y1="496" x2="510" y2="496"/>
  <path class="p5" d="M 521 492 L 521 491 L 509 496 L 510 496 L 521 492"/>
  <line x1="510" y1="496" x2="509" y2="496"/>
  <path class="p5" d="M 533 486 L 533 486 L 521 491 L 521 491 L 533 486"/>
  <path class="p5" d="M 533 486 L 533 485 L 521 490 L 521 491 L 533 486"/>
  <path class="p5" d="M 521 491 L 521 491 L 509 496 L 509 496 L 521 491"/>
  <line x1="509" y1="496" x2="509" y2="496"/>
  <path class="p5" d="M 521 491 L 521 490 L 509 496 L 509 496 L 521 491"/>
  <line x1="509" y1="496" x2="509" y2="496"/>
  <path class="p5" d="M 533 485 L 532 484 L 521 490 L 521 490 L 533 485"/>
  <path class="p5" d="M 532 484 L 532 484 L 521 490 L 521 490 L 532 484"/>
  <path class="p5" d="M 521 490 L 521 490 L 509 496 L 509 496 L 521 490"/>
  <line x1="509" y1="496" x2="509" y2="496"/>
  <path class="p5" d="M 521 490 L 521 490 L 509 495 L 509 496 L 521 490"/>
  <line x1="509" y1="496" x2="509" y2="495"/>
  <path class="p5" d="M 532 484 L 532 483 L 520 489 L 521 490 L 532 484"/>
  <path class="p5" d="M 532 483 L 531 482 L 520 489 L 520 489 L 532 483"/>
  <path class="p5" d="M 521 490 L 520 489 L 509 495 L 509 495 L 521 490"/>
  <line x1="509" y1="495" x2="509" y2="495"/>
  <path class="p5" d="M 520 489 L 520 489 L 509 495 L 509 495 L 520 489"/>
  <line x1="509" y1="495" x2="509" y2="495"/>
  <path class="p5" d="M 531 482 L 531 482 L 520 488 L 520 489 L 531 482"/>
  <path class="p5" d="M 531 482 L 531 481 L 520 488 L 520 488 L 531 482"/>
  <path class="p5" d="M 520 489 L 520 488 L 509 495 L 509 495 L 520 489"/>
  <line x1="509" y1="495" x2="509" y2="495"/>
  <path class="p5" d="M 520 488 L 520 488 L 509 495 L 509 495 L 520 488"/>
  <line x1="509" y1="495" x2="509" y2="495"/>
  <path class="p5" d="M 531 481 L 530 481 L 519 488 L 520 488 L 531 481"/>
  <path class="p5" d="M 530 481 L 530 480 L 519 487 L 519 488 L 530 481"/>
  <path class="p5" d="M 520 488 L 519 488 L 509 494 L 509 495 L 520 488"/>
  <line x1="509" y1="495" x2="509" y2="494"/>
  <path class="p5" d="M 519 488 L 519 487 L 509 494 L 509 494 L 519 488"/>
  <line x1="509" y1="494" x2="509" y2="494"/>
  <path class="p5" d="M 530 480 L 529 479 L 519 487 L 519 487 L 530 480"/>
  <path class="p5" d="M 529 479 L 529 479 L 519 486 L 519 487 L 529 479"/>
  <path class="p5" d="M 519 487 L 519 487 L 508 494 L 509 494 L 519 487"/>
  <line x1="509" y1="494" x2="508" y2="494"/>
  <path class="p5" d="M 519 487 L 519 486 L 508 494 L 508 494 L 519 487"/>
  <line x1="508" y1="494" x2="508" y2="494"/>
  <path class="p5" d="M 529 479 L 529 478 L 518 486 L 519 486 L 529 479"/>
  <path class="p5" d="M 529 478 L 528 478 L 518 486 L 518 486 L 529 478"/>
  <path class="p5" d="M 519 486 L 518 486 L 508 494 L 508 494 L 519 486"/>
  <line x1="508" y1="494" x2="508" y2="494"/>
  <path class="p5" d="M 518 486 L 518 486 L 508 494 L 508 494 L 518 486"/>
  <line x1="508" y1="494" x2="508" y2="494"/>
  <path class="p5" d="M 528 478 L 528 477 L 518 485 L 518 486 L 528 478"/>
  <path class="p5" d="M 528 477 L 527 477 L 518 485 L 518 485 L 528 477"/>
  <path class="p5" d="M 518 486 L 518 485 L 508 494 L 508 494 L 518 486"/>
  <line x1="508" y1="494" x2="508" y2="494"/>
  <path class="p5" d="M 518 485 L 518 485 L 508 493 L 508 494 L 518 485"/>
  <line x1="508" y1="494" x2="508" y2="493"/>
  <path class="p5" d="M 527 477 L 527 476 L 517 485 L 518 485 L 527 477"/>
  <path class="p5" d="M 527 476 L 526 476 L 517 484 L 517 485 L 527 476"/>
  <path class="p5" d="M 518 485 L 517 485 L 508 493 L 508 493 L 518 485"/>
  <line x1="508" y1="493" x2="508" y2="493"/>
  <path class="p5" d="M 517 485 L 517 484 L 508 493 L 508 493 L 517 485"/>
  <line x1="508" y1="493" x2="508" y2="493"/>
  <path class="p5" d="M 526 476 L 526 475 L 517 484 L 517 484 L 526 476"/>
  <path class="p5" d="M 526 475 L 525 475 L 516 484 L 517 484 L 526 475"/>
  <path class="p5" d="M 517 484 L 517 484 L 507 493 L 508 493 L 517 484"/>
  <line x1="508" y1="493" x2="507" y2="493"/>
  <path class="p5" d="M 517 484 L 516 484 L 507 493 L 507 493 L 517 484"/>
  <line x1="507" y1="493" x2="507" y2="493"/>
  <path class="p5" d="M 525 475 L 525 474 L 516 483 L 516 484 L 525 475"/>
  <path class="p5" d="M 525 474 L 524 474 L 516 483 L 516 483 L 525 474"/>
  <path class="p5" d="M 516 484 L 516 483 L 507 493 L 507 493 L 516 484"/>
  <line x1="507" y1="493" x2="507" y2="493"/>
  <path class="p5" d="M 516 483 L 516 483 L 507 492 L 507 493 L 516 483"/>
  <line x1="507" y1="493" x2="507" y2="492"/>
  <path class="p5" d="M 524 474 L 524 473 L 515 483 L 516 483 L 524 474"/>
  <path class="p5" d="M 524 473 L 523 473 L 515 482 L 515 483 L 524 473"/>
  <path class="p5" d="M 516 483 L 515 483 L 507 492 L 507 492 L 516 483"/>
  <line x1="507" y1="492" x2="507" y2="492"/>
  <path class="p5" d="M 515 483 L 515 482 L 507 492 L 507 492 L 515 483"/>
  <line x1="507" y1="492" x2="507" y2="492"/>
  <path class="p5" d="M 523 473 L 523 472 L 515 482 L 515 482 L 523 473"/>
  <path class="p5" d="M 523 472 L 522 472 L 514 482 L 515 482 L 523 472"/>
  <path class="p5" d="M 515 482 L 515 482 L 506 492 L 507 492 L 515 482"/>
  <line x1="507" y1="492" x2="506" y2="492"/>
  <path class="p5" d="M 515 482 L 514 482 L 506 492 L 506 492 L 515 482"/>
  <line x1="506" y1="492" x2="506" y2="492"/>
  <path class="p5" d="M 522 472 L 522 471 L 514 482 L 514 482 L 522 472"/>
  <path class="p5" d="M 522 471 L 521 471 L 514 481 L 514 482 L 522 471"/>
  <path class="p5" d="M 514 482 L 514 482 L 506 492 L 506 492 L 514 482"/>
  <line x1="506" y1="492" x2="506" y2="492"/>
  <path class="p5" d="M 514 482 L 514 481 L 506 492 L 506 492 L 514 482"/>
  <line x1="506" y1="492" x2="506" y2="492"/>
  <path class="p5" d="M 521 471 L 521 471 L 513 481 L 514 481 L 521 471"/>
  <path class="p5" d="M 521 471 L 520 470 L 513 481 L 513 481 L 521 471"/>
  <path class="p5" d="M 514 481 L 513 481 L 506 492 L 506 492 L 514 481"/>
  <line x1="506" y1="492" x2="506" y2="492"/>
  <path class="p5" d="M 513 481 L 513 481 L 506 491 L 506 492 L 513 481"/>
  <line x1="506" y1="492" x2="506" y2="491"/>
  <path class="p5" d="M 520 470 L 519 470 L 512 481 L 513 481 L 520 470"/>
  <path class="p5" d="M 519 470 L 519 469 L 512 480 L 512 481 L 519 470"/>
  <path class="p5" d="M 513 481 L 512 481 L 506 491 L 506 491 L 513 481"/>
  <line x1="506" y1="491" x2="506" y2="491"/>
  <path class="p5" d="M 512 481 L 512 480 L 505 491 L 506 491 L 512 481"/>
  <line x1="506" y1="491" x2="505" y2="491"/>
  <path class="p5" d="M 519 469 L 518 469 L 512 480 L 512 480 L 519 469"/>
  <path class="p5" d="M 518 469 L 518 469 L 511 480 L 512 480 L 518 469"/>
  <path class="p5" d="M 512 480 L 512 480 L 505 491 L 505 491 L 512 480"/>
  <line x1="505" y1="491" x2="505" y2="491"/>
  <path class="p5" d="M 512 480 L 511 480 L 505 491 L 505 491 L 512 480"/>
  <line x1="505" y1="491" x2="505" y2="491"/>
  <path class="p5" d="M 518 469 L 517 468 L 511 480 L 511 480 L 518 469"/>
  <path class="p5" d="M 517 468 L 516 468 L 510 479 L 511 480 L 517 468"/>
  <path class="p5" d="M 511 480 L 511 480 L 505 491 L 505 491 L 511 480"/>
  <line x1="505" y1="491" x2="505" y2="491"/>
  <path class="p5" d="M 511 480 L 510 479 L 505 491 L 505 491 L 511 480"/>
  <line x1="505" y1="491" x2="505" y2="491"/>
  <path class="p5" d="M 516 468 L 516 468 L 510 479 L 510 479 L 516 468"/>
  <path class="p5" d="M 516 468 L 515 467 L 510 479 L 510 479 L 516 468"/>
  <path class="p5" d="M 510 479 L 510 479 L 504 491 L 505 491 L 510 479"/>
  <line x1="505" y1="491" x2="504" y2="491"/>
  <path class="p5" d="M 510 479 L 510 479 L 504 491 L 504 491 L 510 479"/>
  <line x1="504" y1="491" x2="504" y2="491"/>
  <path class="p5" d="M 515 467 L 514 467 L 509 479 L 510 479 L 515 467"/>
  <path class="p5" d="M 514 467 L 514 467 L 509 479 L 509 479 L 514 467"/>
  <path class="p5" d="M 510 479 L 509 479 L 504 491 L 504 491 L 510 479"/>
  <line x1="504" y1="491" x2="504" y2="491"/>
  <path class="p5" d="M 509 479 L 509 479 L 504 491 L 504 491 L 509 479"/>
  <line x1="504" y1="491" x2="504" y2="491"/>
  <path class="p5" d="M 514 467 L 513 467 L 508 479 L 509 479 L 514 467"/>
  <path class="p5" d="M 513 467 L 512 466 L 508 478 L 508 479 L 513 467"/>
  <path class="p5" d="M 509 479 L 508 479 L 504 490 L 504 491 L 509 479"/>
  <line x1="504" y1="491" x2="504" y2="490"/>
  <path class="p5" d="M 508 479 L 508 478 L 504 490 L 504 490 L 508 479"/>
  <line x1="504" y1="490" x2="504" y2="490"/>
  <path class="p5" d="M 512 466 L 512 466 L 508 478 L 508 478 L 512 466"/>
  <path class="p5" d="M 512 466 L 511 466 L 507 478 L 508 478 L 512 466"/>
  <path class="p5" d="M 508 478 L 508 478 L 503 490 L 504 490 L 508 478"/>
  <line x1="504" y1="490" x2="503" y2="490"/>
  <path class="p5" d="M 508 478 L 507 478 L 503 490 L 503 490 L 508 478"/>
  <line x1="503" y1="490" x2="503" y2="490"/>
  <path class="p5" d="M 511 466 L 510 466 L 507 478 L 507 478 L 511 466"/>
  <path class="p5" d="M 510 466 L 510 465 L 506 478 L 507 478 L 510 466"/>
  <path class="p5" d="M 507 478 L 507 478 L 503 490 L 503 490 L 507 478"/>
  <line x1="503" y1="490" x2="503" y2="490"/>
  <path class="p5" d="M 507 478 L 506 478 L 503 490 L 503 490 L 507 478"/>
  <line x1="503" y1="490" x2="503" y2="490"/>
  <path class="p5" d="M 510 465 L 509 465 L 506 478 L 506 478 L 510 465"/>
  <path class="p5" d="M 509 465 L 508 465 L 505 478 L 506 478 L 509 465"/>
  <path class="p5" d="M 506 478 L 506 478 L 503 490 L 503 490 L 506 478"/>
  <line x1="503" y1="490" x2="503" y2="490"/>
  <path class="p5" d="M 506 478 L 505 478 L 502 490 L 503 490 L 506 478"/>
  <line x1="503" y1="490" x2="502" y2="490"/>
  <path class="p5" d="M 508 465 L 508 465 L 505 477 L 505 478 L 508 465"/>
  <path class="p5" d="M 508 465 L 507 465 L 504 477 L 505 477 L 508 465"/>
  <path class="p5" d="M 505 478 L 505 477 L 502 490 L 502 490 L 505 478"/>
  <line x1="502" y1="490" x2="502" y2="490"/>
  <path class="p5" d="M 505 477 L 504 477 L 502 490 L 502 490 L 505 477"/>
  <line x1="502" y1="490" x2="502" y2="490"/>
  <path class="p5" d="M 507 465 L 506 465 L 504 477 L 504 477 L 507 465"/>
  <path class="p5" d="M 506 465 L 506 465 L 504 477 L 504 477 L 506 465"/>
  <path class="p5" d="M 504 477 L 504 477 L 502 490 L 502 490 L 504 477"/>
  <line x1="502" y1="490" x2="502" y2="490"/>
  <path class="p5" d="M 504 477 L 504 477 L 502 490 L 502 490 L 504 477"/>
  <line x1="502" y1="490" x2="502" y2="490"/>
  <path class="p5" d="M 506 465 L 505 464 L 503 477 L 504 477 L 506 465"/>
  <path class="p5" d="M 505 464 L 504 464 L 503 477 L 503 477 L 505 464"/>
  <path class="p5" d="M 504 477 L 503 477 L 501 490 L 502 490 L 504 477"/>
  <line x1="502" y1="490" x2="501" y2="490"/>
  <path class="p5" d="M 503 477 L 503 477 L 501 490 L 501 490 L 503 477"/>
  <line x1="501" y1="490" x2="501" y2="490"/>
  <path class="p5" d="M 504 464 L 504 464 L 502 477 L 503 477 L 504 464"/>
  <path class="p5" d="M 504 464 L 503 464 L 502 477 L 502 477 L 504 464"/>
  <path class="p5" d="M 503 477 L 502 477 L 501 490 L 501 490 L 503 477"/>
  <line x1="501" y1="490" x2="501" y2="490"/>
  <path class="p5" d="M 502 477 L 502 477 L 501 490 L 501 490 L 502 477"/>
  <line x1="501" y1="490" x2="501" y2="490"/>
  <path class="p5" d="M 503 464 L 502 464 L 501 477 L 502 477 L 503 464"/>
  <path class="p5" d="M 502 464 L 501 464 L 501 477 L 501 477 L 502 464"/>
  <path class="p5" d="M 502 477 L 501 477 L 501 490 L 501 490 L 502 477"/>
  <line x1="501" y1="490" x2="501" y2="490"/>
  <path class="p5" d="M 501 477 L 501 477 L 500 490 L 501 490 L 501 477"/>
  <line x1="501" y1="490" x2="500" y2="490"/>
  <path class="p5" d="M 501 464 L 501 464 L 500 477 L 501 477 L 501 464"/>
  <path class="p5" d="M 501 464 L 500 464 L 500 477 L 500 477 L 501 464"/>
  <path class="p5" d="M 501 477 L 500 477 L 500 490 L 500 490 L 501 477"/>
  <line x1="500" y1="490" x2="500" y2="490"/>
  <path class="p5" d="M 500 477 L 500 477 L 500 490 L 500 490 L 500 477"/>
  <line x1="500" y1="490" x2="500" y2="490"/>
  <path class="p5" d="M 500 464 L 499 464 L 500 477 L 500 477 L 500 464"/>
  <path class="p5" d="M 499 464 L 499 464 L 499 477 L 500 477 L 499 464"/>
  <path class="p5" d="M 500 477 L 500 477 L 500 490 L 500 490 L 500 477"/>
  <line x1="500" y1="490" x2="500" y2="490"/>
  <path class="p5" d="M 500 477 L 499 477 L 500 490 L 500 490 L 500 477"/>
  <line x1="500" y1="490" x2="500" y2="490"/>
  <path class="p5" d="M 499 464 L 498 464 L 499 477 L 499 477 L 499 464"/>
  <path class="p5" d="M 498 464 L 497 464 L 498 477 L 499 477 L 498 464"/>
  <path class="p5" d="M 499 477 L 499 477 L 499 490 L 500 490 L 499 477"/>
  <line x1="500" y1="490" x2="499" y2="490"/>
  <path class="p5" d="M 499 477 L 498 477 L 499 490 L 499 490 L 499 477"/>
  <line x1="499" y1="490" x2="499" y2="490"/>
  <path class="p5" d="M 497 464 L 496 464 L 498 477 L 498 477 L 497 464"/>
  <path class="p5" d="M 496 464 L 496 464 L 497 477 L 498 477 L 496 464"/>
  <path class="p5" d="M 498 477 L 498 477 L 499 490 L 499 490 L 498 477"/>
  <line x1="499" y1="490" x2="499" y2="490"/>
  <path class="p5" d="M 498 477 L 497 477 L 499 490 L 499 490 L 498 477"/>
  <line x1="499" y1="490" x2="499" y2="490"/>
  <path class="p5" d="M 496 464 L 495 464 L 497 477 L 497 477 L 496 464"/>
  <path class="p5" d="M 495 464 L 494 465 L 496 477 L 497 477 L 495 464"/>
  <path class="p5" d="M 497 477 L 497 477 L 499 490 L 499 490 L 497 477"/>
  <line x1="499" y1="490" x2="499" y2="490"/>
  <path class="p5" d="M 497 477 L 496 477 L 498 490 L 499 490 L 497 477"/>
  <line x1="499" y1="490" x2="498" y2="490"/>
  <path class="p5" d="M 494 465 L 494 465 L 496 477 L 496 477 L 494 465"/>
  <path class="p5" d="M 494 465 L 493 465 L 496 477 L 496 477 L 494 465"/>
  <path class="p5" d="M 496 477 L 496 477 L 498 490 L 498 490 L 496 477"/>
  <line x1="498" y1="490" x2="498" y2="490"/>
  <path class="p5" d="M 496 477 L 496 477 L 498 490 L 498 490 L 496 477"/>
  <line x1="498" y1="490" x2="498" y2="490"/>
  <path class="p5" d="M 493 465 L 492 465 L 495 477 L 496 477 L 493 465"/>
  <path class="p5" d="M 492 465 L 492 465 L 495 478 L 495 477 L 492 465"/>
  <path class="p5" d="M 496 477 L 495 477 L 498 490 L 498 490 L 496 477"/>
  <line x1="498" y1="490" x2="498" y2="490"/>
  <path class="p5" d="M 495 477 L 495 478 L 498 490 L 498 490 L 495 477"/>
  <line x1="498" y1="490" x2="498" y2="490"/>
  <path class="p5" d="M 492 465 L 491 465 L 494 478 L 495 478 L 492 465"/>
  <path class="p5" d="M 491 465 L 490 465 L 494 478 L 494 478 L 491 465"/>
  <path class="p5" d="M 495 478 L 494 478 L 497 490 L 498 490 L 495 478"/>
  <line x1="498" y1="490" x2="497" y2="490"/>
  <path class="p5" d="M 494 478 L 494 478 L 497 490 L 497 490 L 494 478"/>
  <line x1="497" y1="490" x2="497" y2="490"/>
  <path class="p5" d="M 490 465 L 490 466 L 493 478 L 494 478 L 490 465"/>
  <path class="p5" d="M 490 466 L 489 466 L 493 478 L 493 478 L 490 466"/>
  <path class="p5" d="M 494 478 L 493 478 L 497 490 L 497 490 L 494 478"/>
  <line x1="497" y1="490" x2="497" y2="490"/>
  <path class="p5" d="M 493 478 L 493 478 L 497 490 L 497 490 L 493 478"/>
  <line x1="497" y1="490" x2="497" y2="490"/>
  <path class="p5" d="M 489 466 L 488 466 L 492 478 L 493 478 L 489 466"/>
  <path class="p5" d="M 488 466 L 488 466 L 492 478 L 492 478 L 488 466"/>
  <path class="p5" d="M 493 478 L 492 478 L 497 490 L 497 490 L 493 478"/>
  <line x1="497" y1="490" x2="497" y2="490"/>
  <path class="p5" d="M 492 478 L 492 478 L 496 490 L 497 490 L 492 478"/>
  <line x1="497" y1="490" x2="496" y2="490"/>
  <path class="p5" d="M 488 466 L 487 467 L 492 479 L 492 478 L 488 466"/>
  <path class="p5" d="M 487 467 L 486 467 L 491 479 L 492 479 L 487 467"/>
  <path class="p5" d="M 492 478 L 492 479 L 496 490 L 496 490 L 492 478"/>
  <line x1="496" y1="490" x2="496" y2="490"/>
  <path class="p5" d="M 492 479 L 491 479 L 496 491 L 496 490 L 492 479"/>
  <line x1="496" y1="490" x2="496" y2="491"/>
  <path class="p5" d="M 486 467 L 486 467 L 491 479 L 491 479 L 486 467"/>
  <path class="p5" d="M 486 467 L 485 467 L 490 479 L 491 479 L 486 467"/>
  <path class="p5" d="M 491 479 L 491 479 L 496 491 L 496 491 L 491 479"/>
  <line x1="496" y1="491" x2="496" y2="491"/>
  <path class="p5" d="M 491 479 L 490 479 L 496 491 L 496 491 L 491 479"/>
  <line x1="496" y1="491" x2="496" y2="491"/>
  <path class="p5" d="M 485 467 L 484 468 L 490 479 L 490 479 L 485 467"/>
  <path class="p5" d="M 484 468 L 484 468 L 490 479 L 490 479 L 484 468"/>
  <path class="p5" d="M 490 479 L 490 479 L 496 491 L 496 491 L 490 479"/>
  <line x1="496" y1="491" x2="496" y2="491"/>
  <path class="p5" d="M 490 479 L 490 479 L 495 491 L 496 491 L 490 479"/>
  <line x1="496" y1="491" x2="495" y2="491"/>
  <path class="p5" d="M 484 468 L 483 468 L 489 480 L 490 479 L 484 468"/>
  <path class="p5" d="M 483 468 L 482 469 L 489 480 L 489 480 L 483 468"/>
  <path class="p5" d="M 490 479 L 489 480 L 495 491 L 495 491 L 490 479"/>
  <line x1="495" y1="491" x2="495" y2="491"/>
  <path class="p5" d="M 489 480 L 489 480 L 495 491 L 495 491 L 489 480"/>
  <line x1="495" y1="491" x2="495" y2="491"/>
  <path class="p5" d="M 482 469 L 482 469 L 488 480 L 489 480 L 482 469"/>
  <path class="p5" d="M 482 469 L 481 469 L 488 480 L 488 480 L 482 469"/>
  <path class="p5" d="M 489 480 L 488 480 L 495 491 L 495 491 L 489 480"/>
  <line x1="495" y1="491" x2="495" y2="491"/>
  <path class="p5" d="M 488 480 L 488 480 L 495 491 L 495 491 L 488 480"/>
  <line x1="495" y1="491" x2="495" y2="491"/>
  <path class="p5" d="M 481 469 L 481 470 L 488 481 L 488 480 L 481 469"/>
  <path class="p5" d="M 481 470 L 480 470 L 487 481 L 488 481 L 481 470"/>
  <path class="p5" d="M 488 480 L 488 481 L 494 491 L 495 491 L 488 480"/>
  <line x1="495" y1="491" x2="494" y2="491"/>
  <path class="p5" d="M 488 481 L 487 481 L 494 491 L 494 491 L 488 481"/>
  <line x1="494" y1="491" x2="494" y2="491"/>
  <path class="p5" d="M 480 470 L 479 471 L 487 481 L 487 481 L 480 470"/>
  <path class="p5" d="M 479 471 L 479 471 L 486 481 L 487 481 L 479 471"/>
  <path class="p5" d="M 487 481 L 487 481 L 494 492 L 494 491 L 487 481"/>
  <line x1="494" y1="491" x2="494" y2="492"/>
  <path class="p5" d="M 487 481 L 486 481 L 494 492 L 494 492 L 487 481"/>
  <line x1="494" y1="492" x2="494" y2="492"/>
  <path class="p5" d="M 479 471 L 478 471 L 486 482 L 486 481 L 479 471"/>
  <path class="p5" d="M 478 471 L 478 472 L 486 482 L 486 482 L 478 471"/>
  <path class="p5" d="M 486 481 L 486 482 L 494 492 L 494 492 L 486 481"/>
  <line x1="494" y1="492" x2="494" y2="492"/>
  <path class="p5" d="M 486 482 L 486 482 L 494 492 L 494 492 L 486 482"/>
  <line x1="494" y1="492" x2="494" y2="492"/>
  <path class="p5" d="M 478 472 L 477 472 L 485 482 L 486 482 L 478 472"/>
  <path class="p5" d="M 477 472 L 477 473 L 485 482 L 485 482 L 477 472"/>
  <path class="p5" d="M 486 482 L 485 482 L 494 492 L 494 492 L 486 482"/>
  <line x1="494" y1="492" x2="494" y2="492"/>
  <path class="p5" d="M 485 482 L 485 482 L 493 492 L 494 492 L 485 482"/>
  <line x1="494" y1="492" x2="493" y2="492"/>
  <path class="p5" d="M 477 473 L 476 473 L 485 483 L 485 482 L 477 473"/>
  <path class="p5" d="M 476 473 L 476 474 L 484 483 L 485 483 L 476 473"/>
  <path class="p5" d="M 485 482 L 485 483 L 493 492 L 493 492 L 485 482"/>
  <line x1="493" y1="492" x2="493" y2="492"/>
  <path class="p5" d="M 485 483 L 484 483 L 493 492 L 493 492 L 485 483"/>
  <line x1="493" y1="492" x2="493" y2="492"/>
  <path class="p5" d="M 476 474 L 475 474 L 484 483 L 484 483 L 476 474"/>
  <path class="p5" d="M 475 474 L 475 475 L 484 484 L 484 483 L 475 474"/>
  <path class="p5" d="M 484 483 L 484 483 L 493 493 L 493 492 L 484 483"/>
  <line x1="493" y1="492" x2="493" y2="493"/>
  <path class="p5" d="M 484 483 L 484 484 L 493 493 L 493 493 L 484 483"/>
  <line x1="493" y1="493" x2="493" y2="493"/>
  <path class="p5" d="M 475 475 L 474 475 L 483 484 L 484 484 L 475 475"/>
  <path class="p5" d="M 474 475 L 474 476 L 483 484 L 483 484 L 474 475"/>
  <path class="p5" d="M 484 484 L 483 484 L 493 493 L 493 493 L 484 484"/>
  <line x1="493" y1="493" x2="493" y2="493"/>
  <path class="p5" d="M 483 484 L 483 484 L 492 493 L 493 493 L 483 484"/>
  <line x1="493" y1="493" x2="492" y2="493"/>
  <path class="p5" d="M 474 476 L 473 476 L 483 485 L 483 484 L 474 476"/>
  <path class="p5" d="M 473 476 L 473 477 L 482 485 L 483 485 L 473 476"/>
  <path class="p5" d="M 483 484 L 483 485 L 492 493 L 492 493 L 483 484"/>
  <line x1="492" y1="493" x2="492" y2="493"/>
  <path class="p5" d="M 483 485 L 482 485 L 492 493 L 492 493 L 483 485"/>
  <line x1="492" y1="493" x2="492" y2="493"/>
  <path class="p5" d="M 473 477 L 472 477 L 482 485 L 482 485 L 473 477"/>
  <path class="p5" d="M 472 477 L 472 478 L 482 486 L 482 485 L 472 477"/>
  <path class="p5" d="M 482 485 L 482 485 L 492 494 L 492 493 L 482 485"/>
  <line x1="492" y1="493" x2="492" y2="494"/>
  <path class="p5" d="M 482 485 L 482 486 L 492 494 L 492 494 L 482 485"/>
  <line x1="492" y1="494" x2="492" y2="494"/>
  <path class="p5" d="M 472 478 L 471 478 L 482 486 L 482 486 L 472 478"/>
  <path class="p5" d="M 471 478 L 471 479 L 481 486 L 482 486 L 471 478"/>
  <path class="p5" d="M 482 486 L 482 486 L 492 494 L 492 494 L 482 486"/>
  <line x1="492" y1="494" x2="492" y2="494"/>
  <path class="p5" d="M 482 486 L 481 486 L 492 494 L 492 494 L 482 486"/>
  <line x1="492" y1="494" x2="492" y2="494"/>
  <path class="p5" d="M 471 479 L 471 479 L 481 487 L 481 486 L 471 479"/>
  <path class="p5" d="M 471 479 L 470 480 L 481 487 L 481 487 L 471 479"/>
  <path class="p5" d="M 481 486 L 481 487 L 492 494 L 492 494 L 481 486"/>
  <line x1="492" y1="494" x2="492" y2="494"/>
  <path class="p5" d="M 481 487 L 481 487 L 491 494 L 492 494 L 481 487"/>
  <line x1="492" y1="494" x2="491" y2="494"/>
  <path class="p5" d="M 470 480 L 470 481 L 481 488 L 481 487 L 470 480"/>
  <path class="p5" d="M 470 481 L 469 481 L 480 488 L 481 488 L 470 481"/>
  <path class="p5" d="M 481 487 L 481 488 L 491 494 L 491 494 L 481 487"/>
  <line x1="491" y1="494" x2="491" y2="494"/>
  <path class="p5" d="M 481 488 L 480 488 L 491 495 L 491 494 L 481 488"/>
  <line x1="491" y1="494" x2="491" y2="495"/>
  <path class="p5" d="M 469 481 L 469 482 L 480 488 L 480 488 L 469 481"/>
  <path class="p5" d="M 469 482 L 469 482 L 480 489 L 480 488 L 469 482"/>
  <path class="p5" d="M 480 488 L 480 488 L 491 495 L 491 495 L 480 488"/>
  <line x1="491" y1="495" x2="491" y2="495"/>
  <path class="p5" d="M 480 488 L 480 489 L 491 495 L 491 495 L 480 488"/>
  <line x1="491" y1="495" x2="491" y2="495"/>
  <path class="p5" d="M 469 482 L 468 483 L 480 489 L 480 489 L 469 482"/>
  <path class="p5" d="M 468 483 L 468 484 L 479 490 L 480 489 L 468 483"/>
  <path class="p5" d="M 480 489 L 480 489 L 491 495 L 491 495 L 480 489"/>
  <line x1="491" y1="495" x2="491" y2="495"/>
  <path class="p5" d="M 480 489 L 479 490 L 491 495 L 491 495 L 480 489"/>
  <line x1="491" y1="495" x2="491" y2="495"/>
  <path class="p5" d="M 468 484 L 468 484 L 479 490 L 479 490 L 468 484"/>
  <path class="p5" d="M 468 484 L 467 485 L 479 490 L 479 490 L 468 484"/>
  <path class="p5" d="M 479 490 L 479 490 L 491 496 L 491 495 L 479 490"/>
  <line x1="491" y1="495" x2="491" y2="496"/>
  <path class="p5" d="M 479 490 L 479 490 L 491 496 L 491 496 L 479 490"/>
  <line x1="491" y1="496" x2="491" y2="496"/>
  <path class="p5" d="M 467 485 L 467 486 L 479 491 L 479 490 L 467 485"/>
  <path class="p5" d="M 467 486 L 467 486 L 479 491 L 479 491 L 467 486"/>
  <path class="p5" d="M 479 490 L 479 491 L 491 496 L 491 496 L 479 490"/>
  <line x1="491" y1="496" x2="491" y2="496"/>
  <path class="p5" d="M 479 491 L 479 491 L 491 496 L 491 496 L 479 491"/>
  <line x1="491" y1="496" x2="491" y2="496"/>
  <path class="p5" d="M 467 486 L 467 487 L 479 492 L 479 491 L 467 486"/>
  <path class="p5" d="M 467 487 L 466 488 L 478 492 L 479 492 L 467 487"/>
  <path class="p5" d="M 479 491 L 479 492 L 490 496 L 491 496 L 479 491"/>
  <line x1="491" y1="496" x2="490" y2="496"/>
  <path class="p5" d="M 479 492 L 478 492 L 490 496 L 490 496 L 479 492"/>
  <line x1="490" y1="496" x2="490" y2="496"/>
  <path class="p5" d="M 466 488 L 466 488 L 478 492 L 478 492 L 466 488"/>
  <path class="p5" d="M 466 488 L 466 489 L 478 493 L 478 492 L 466 488"/>
  <path class="p5" d="M 478 492 L 478 492 L 490 497 L 490 496 L 478 492"/>
  <line x1="490" y1="496" x2="490" y2="497"/>
  <path class="p5" d="M 478 492 L 478 493 L 490 497 L 490 497 L 478 492"/>
  <line x1="490" y1="497" x2="490" y2="497"/>
  <path class="p5" d="M 466 489 L 466 490 L 478 493 L 478 493 L 466 489"/>
  <path class="p5" d="M 466 490 L 465 490 L 478 494 L 478 493 L 466 490"/>
  <path class="p5" d="M 478 493 L 478 493 L 490 497 L 490 497 L 478 493"/>
  <line x1="490" y1="497" x2="490" y2="497"/>
  <path class="p5" d="M 478 493 L 478 494 L 490 497 L 490 497 L 478 493"/>
  <line x1="490" y1="497" x2="490" y2="497"/>
  <path class="p5" d="M 465 490 L 465 491 L 478 494 L 478 494 L 465 490"/>
  <path class="p5" d="M 465 491 L 465 492 L 478 495 L 478 494 L 465 491"/>
  <path class="p5" d="M 478 494 L 478 494 L 490 497 L 490 497 L 478 494"/>
  <line x1="490" y1="497" x2="490" y2="497"/>
  <path class="p5" d="M 478 494 L 478 495 L 490 498 L 490 497 L 478 494"/>
  <line x1="490" y1="497" x2="490" y2="498"/>
  <path class="p5" d="M 465 492 L 465 492 L 477 495 L 478 495 L 465 492"/>
  <path class="p5" d="M 465 492 L 465 493 L 477 496 L 477 495 L 465 492"/>
  <path class="p5" d="M 478 495 L 477 495 L 490 498 L 490 498 L 478 495"/>
  <line x1="490" y1="498" x2="490" y2="498"/>
  <path class="p5" d="M 477 495 L 477 496 L 490 498 L 490 498 L 477 495"/>
  <line x1="490" y1="498" x2="490" y2="498"/>
  <path class="p5" d="M 465 493 L 465 494 L 477 496 L 477 496 L 465 493"/>
  <path class="p5" d="M 465 494 L 465 494 L 477 496 L 477 496 L 465 494"/>
  <path class="p5" d="M 477 496 L 477 496 L 490 498 L 490 498 L 477 496"/>
  <line x1="490" y1="498" x2="490" y2="498"/>
  <path class="p5" d="M 477 496 L 477 496 L 490 498 L 490 498 L 477 496"/>
  <line x1="490" y1="498" x2="490" y2="498"/>
  <path class="p5" d="M 465 494 L 464 495 L 477 497 L 477 496 L 465 494"/>
  <path class="p5" d="M 464 495 L 464 496 L 477 497 L 477 497 L 464 495"/>
  <path class="p5" d="M 477 496 L 477 497 L 490 499 L 490 498 L 477 496"/>
  <line x1="490" y1="498" x2="490" y2="499"/>
  <path class="p5" d="M 477 497 L 477 497 L 490 499 L 490 499 L 477 497"/>
  <line x1="490" y1="499" x2="490" y2="499"/>
  <path class="p5" d="M 464 496 L 464 496 L 477 498 L 477 497 L 464 496"/>
  <path class="p5" d="M 464 496 L 464 497 L 477 498 L 477 498 L 464 496"/>
  <path class="p5" d="M 477 497 L 477 498 L 490 499 L 490 499 L 477 497"/>
  <line x1="490" y1="499" x2="490" y2="499"/>
  <path class="p5" d="M 477 498 L 477 498 L 490 499 L 490 499 L 477 498"/>
  <line x1="490" y1="499" x2="490" y2="499"/>
  <path class="p5" d="M 464 497 L 464 498 L 477 499 L 477 498 L 464 497"/>
  <path class="p5" d="M 464 498 L 464 499 L 477 499 L 477 499 L 464 498"/>
  <path class="p5" d="M 477 498 L 477 499 L 490 499 L 490 499 L 477 498"/>
  <line x1="490" y1="499" x2="490" y2="499"/>
  <path class="p5" d="M 477 499 L 477 499 L 490 500 L 490 499 L 477 499"/>
  <line x1="490" y1="499" x2="490" y2="500"/>
  <path class="p5" d="M 464 499 L 464 499 L 477 500 L 477 499 L 464 499"/>
  <path class="p5" d="M 464 499 L 464 500 L 477 500 L 477 500 L 464 499"/>
  <path class="p5" d="M 477 499 L 477 500 L 490 500 L 490 500 L 477 499"/>
  <line x1="490" y1="500" x2="490" y2="500"/>
  <path class="p5" d="M 477 500 L 477 500 L 490 500 L 490 500 L 477 500"/>
  <line x1="490" y1="500" x2="490" y2="500"/>
  <path class="p5" d="M 464 500 L 464 501 L 477 500 L 477 500 L 464 500"/>
  <path class="p5" d="M 464 501 L 464 501 L 477 501 L 477 500 L 464 501"/>
  <path class="p5" d="M 477 500 L 477 500 L 490 500 L 490 500 L 477 500"/>
  <line x1="490" y1="500" x2="490" y2="500"/>
  <path class="p5" d="M 477 500 L 477 501 L 490 500 L 490 500 L 477 500"/>
  <line x1="490" y1="500" x2="490" y2="500"/>
  <path class="p5" d="M 464 501 L 464 502 L 477 501 L 477 501 L 464 501"/>
  <path class="p5" d="M 464 502 L 464 503 L 477 502 L 477 501 L 464 502"/>
  <path class="p5" d="M 477 501 L 477 501 L 490 501 L 490 500 L 477 501"/>
  <line x1="490" y1="500" x2="490" y2="501"/>
  <path class="p5" d="M 477 501 L 477 502 L 490 501 L 490 501 L 477 501"/>
  <line x1="490" y1="501" x2="490" y2="501"/>
  <path class="p5" d="M 464 503 L 464 504 L 477 502 L 477 502 L 464 503"/>
  <path class="p5" d="M 464 504 L 464 504 L 477 503 L 477 502 L 464 504"/>
  <path class="p5" d="M 477 502 L 477 502 L 490 501 L 490 501 L 477 502"/>
  <line x1="490" y1="501" x2="490" y2="501"/>
  <path class="p5" d="M 477 502 L 477 503 L 490 501 L 490 501 L 477 502"/>
  <line x1="490" y1="501" x2="490" y2="501"/>
  <path class="p5" d="M 464 504 L 464 505 L 477 503 L 477 503 L 464 504"/>
  <path class="p5" d="M 464 505 L 465 506 L 477 504 L 477 503 L 464 505"/>
  <path class="p5" d="M 477 503 L 477 503 L 490 501 L 490 501 L 477 503"/>
  <line x1="490" y1="501" x2="490" y2="501"/>
  <path class="p5" d="M 477 503 L 477 504 L 490 502 L 490 501 L 477 503"/>
  <line x1="490" y1="501" x2="490" y2="502"/>
  <path class="p5" d="M 465 506 L 465 506 L 477 504 L 477 504 L 465 506"/>
  <path class="p5" d="M 465 506 L 465 507 L 477 504 L 477 504 L 465 506"/>
  <path class="p5" d="M 477 504 L 477 504 L 490 502 L 490 502 L 477 504"/>
  <line x1="490" y1="502" x2="490" y2="502"/>
  <path class="p5" d="M 477 504 L 477 504 L 490 502 L 490 502 L 477 504"/>
  <line x1="490" y1="502" x2="490" y2="502"/>
  <path class="p5" d="M 465 507 L 465 508 L 477 505 L 477 504 L 465 507"/>
  <path class="p5" d="M 465 508 L 465 508 L 478 505 L 477 505 L 465 508"/>
  <path class="p5" d="M 477 504 L 477 505 L 490 502 L 490 502 L 477 504"/>
  <line x1="490" y1="502" x2="490" y2="502"/>
  <path class="p5" d="M 477 505 L 478 505 L 490 502 L 490 502 L 477 505"/>
  <line x1="490" y1="502" x2="490" y2="502"/>
  <path class="p5" d="M 465 508 L 465 509 L 478 506 L 478 505 L 465 508"/>
  <path class="p5" d="M 465 509 L 465 510 L 478 506 L 478 506 L 465 509"/>
  <path class="p5" d="M 478 505 L 478 506 L 490 503 L 490 502 L 478 505"/>
  <line x1="490" y1="502" x2="490" y2="503"/>
  <path class="p5" d="M 478 506 L 478 506 L 490 503 L 490 503 L 478 506"/>
  <line x1="490" y1="503" x2="490" y2="503"/>
  <path class="p5" d="M 465 510 L 466 510 L 478 507 L 478 506 L 465 510"/>
  <path class="p5" d="M 466 510 L 466 511 L 478 507 L 478 507 L 466 510"/>
  <path class="p5" d="M 478 506 L 478 507 L 490 503 L 490 503 L 478 506"/>
  <line x1="490" y1="503" x2="490" y2="503"/>
  <path class="p5" d="M 478 507 L 478 507 L 490 503 L 490 503 L 478 507"/>
  <line x1="490" y1="503" x2="490" y2="503"/>
  <path class="p5" d="M 466 511 L 466 512 L 478 508 L 478 507 L 466 511"/>
  <path class="p5" d="M 466 512 L 466 512 L 478 508 L 478 508 L 466 512"/>
  <path class="p5" d="M 478 507 L 478 508 L 490 503 L 490 503 L 478 507"/>
  <line x1="490" y1="503" x2="490" y2="503"/>
  <path class="p5" d="M 478 508 L 478 508 L 490 504 L 490 503 L 478 508"/>
  <line x1="490" y1="503" x2="490" y2="504"/>
  <path class="p5" d="M 466 512 L 467 513 L 479 508 L 478 508 L 466 512"/>
  <path class="p5" d="M 467 513 L 467 514 L 479 509 L 479 508 L 467 513"/>
  <path class="p5" d="M 478 508 L 479 508 L 490 504 L 490 504 L 478 508"/>
  <line x1="490" y1="504" x2="490" y2="504"/>
  <path class="p5" d="M 479 508 L 479 509 L 491 504 L 490 504 L 479 508"/>
  <line x1="490" y1="504" x2="491" y2="504"/>
  <path class="p5" d="M 467 514 L 467 514 L 479 509 L 479 509 L 467 514"/>
  <path class="p5" d="M 467 514 L 467 515 L 479 510 L 479 509 L 467 514"/>
  <path class="p5" d="M 479 509 L 479 509 L 491 504 L 491 504 L 479 509"/>
  <line x1="491" y1="504" x2="491" y2="504"/>
  <path class="p5" d="M 479 509 L 479 510 L 491 504 L 491 504 L 479 509"/>
  <line x1="491" y1="504" x2="491" y2="504"/>
  <path class="p5" d="M 467 515 L 468 516 L 479 510 L 479 510 L 467 515"/>
  <path class="p5" d="M 468 516 L 468 516 L 479 510 L 479 510 L 468 516"/>
  <path class="p5" d="M 479 510 L 479 510 L 491 504 L 491 504 L 479 510"/>
  <line x1="491" y1="504" x2="491" y2="504"/>
  <path class="p5" d="M 479 510 L 479 510 L 491 505 L 491 504 L 479 510"/>
  <line x1="491" y1="504" x2="491" y2="505"/>
  <path class="p5" d="M 468 516 L 468 517 L 480 511 L 479 510 L 468 516"/>
  <path class="p5" d="M 468 517 L 469 518 L 480 511 L 480 511 L 468 517"/>
  <path class="p5" d="M 479 510 L 480 511 L 491 505 L 491 505 L 479 510"/>
  <line x1="491" y1="505" x2="491" y2="505"/>
  <path class="p5" d="M 480 511 L 480 511 L 491 505 L 491 505 L 480 511"/>
  <line x1="491" y1="505" x2="491" y2="505"/>
  <path class="p5" d="M 469 518 L 469 518 L 480 512 L 480 511 L 469 518"/>
  <path class="p5" d="M 469 518 L 469 519 L 480 512 L 480 512 L 469 518"/>
  <path class="p5" d="M 480 511 L 480 512 L 491 505 L 491 505 L 480 511"/>
  <line x1="491" y1="505" x2="491" y2="505"/>
  <path class="p5" d="M 480 512 L 480 512 L 491 505 L 491 505 L 480 512"/>
  <line x1="491" y1="505" x2="491" y2="505"/>
  <path class="p5" d="M 469 519 L 470 519 L 481 512 L 480 512 L 469 519"/>
  <path class="p5" d="M 470 519 L 470 520 L 481 513 L 481 512 L 470 519"/>
  <path class="p5" d="M 480 512 L 481 512 L 491 506 L 491 505 L 480 512"/>
  <line x1="491" y1="505" x2="491" y2="506"/>
  <path class="p5" d="M 481 512 L 481 513 L 491 506 L 491 506 L 481 512"/>
  <line x1="491" y1="506" x2="491" y2="506"/>
  <path class="p5" d="M 470 520 L 471 521 L 481 513 L 481 513 L 470 520"/>
  <path class="p5" d="M 471 521 L 471 521 L 481 514 L 481 513 L 471 521"/>
  <path class="p5" d="M 481 513 L 481 513 L 492 506 L 491 506 L 481 513"/>
  <line x1="491" y1="506" x2="492" y2="506"/>
  <path class="p5" d="M 481 513 L 481 514 L 492 506 L 492 506 L 481 513"/>
  <line x1="492" y1="506" x2="492" y2="506"/>
  <path class="p5" d="M 471 521 L 471 522 L 482 514 L 481 514 L 471 521"/>
  <path class="p5" d="M 471 522 L 472 522 L 482 514 L 482 514 L 471 522"/>
  <path class="p5" d="M 481 514 L 482 514 L 492 506 L 492 506 L 481 514"/>
  <line x1="492" y1="506" x2="492" y2="506"/>
  <path class="p5" d="M 482 514 L 482 514 L 492 506 L 492 506 L 482 514"/>
  <line x1="492" y1="506" x2="492" y2="506"/>
  <path class="p5" d="M 472 522 L 472 523 L 482 515 L 482 514 L 472 522"/>
  <path class="p5" d="M 472 523 L 473 523 L 482 515 L 482 515 L 472 523"/>
  <path class="p5" d="M 482 514 L 482 515 L 492 506 L 492 506 L 482 514"/>
  <line x1="492" y1="506" x2="492" y2="506"/>
  <path class="p5" d="M 482 515 L 482 515 L 492 507 L 492 506 L 482 515"/>
  <line x1="492" y1="506" x2="492" y2="507"/>
  <path class="p5" d="M 473 523 L 473 524 L 483 515 L 482 515 L 473 523"/>
  <path class="p5" d="M 473 524 L 474 524 L 483 516 L 483 515 L 473 524"/>
  <path class="p5" d="M 482 515 L 483 515 L 492 507 L 492 507 L 482 515"/>
  <line x1="492" y1="507" x2="492" y2="507"/>
  <path class="p5" d="M 483 515 L 483 516 L 492 507 L 492 507 L 483 515"/>
  <line x1="492" y1="507" x2="492" y2="507"/>
  <path class="p5" d="M 474 524 L 474 525 L 483 516 L 483 516 L 474 524"/>
  <path class="p5" d="M 474 525 L 475 525 L 484 516 L 483 516 L 474 525"/>
  <path class="p5" d="M 483 516 L 483 516 L 493 507 L 492 507 L 483 516"/>
  <line x1="492" y1="507" x2="493" y2="507"/>
  <path class="p5" d="M 483 516 L 484 516 L 493 507 L 493 507 L 483 516"/>
  <line x1="493" y1="507" x2="493" y2="507"/>
  <path class="p5" d="M 475 525 L 475 526 L 484 517 L 484 516 L 475 525"/>
  <path class="p5" d="M 475 526 L 476 526 L 484 517 L 484 517 L 475 526"/>
  <path class="p5" d="M 484 516 L 484 517 L 493 507 L 493 507 L 484 516"/>
  <line x1="493" y1="507" x2="493" y2="507"/>
  <path class="p5" d="M 484 517 L 484 517 L 493 508 L 493 507 L 484 517"/>
  <line x1="493" y1="507" x2="493" y2="508"/>
  <path class="p5" d="M 476 526 L 476 527 L 485 517 L 484 517 L 476 526"/>
  <path class="p5" d="M 476 527 L 477 527 L 485 518 L 485 517 L 476 527"/>
  <path class="p5" d="M 484 517 L 485 517 L 493 508 L 493 508 L 484 517"/>
  <line x1="493" y1="508" x2="493" y2="508"/>
  <path class="p5" d="M 485 517 L 485 518 L 493 508 L 493 508 L 485 517"/>
  <line x1="493" y1="508" x2="493" y2="508"/>
  <path class="p5" d="M 477 527 L 477 528 L 485 518 L 485 518 L 477 527"/>
  <path class="p5" d="M 477 528 L 478 528 L 486 518 L 485 518 L 477 528"/>
  <path class="p5" d="M 485 518 L 485 518 L 494 508 L 493 508 L 485 518"/>
  <line x1="493" y1="508" x2="494" y2="508"/>
  <path class="p5" d="M 485 518 L 486 518 L 494 508 L 494 508 L 485 518"/>
  <line x1="494" y1="508" x2="494" y2="508"/>
  <path class="p5" d="M 478 528 L 478 529 L 486 518 L 486 518 L 478 528"/>
  <path class="p5" d="M 478 529 L 479 529 L 486 519 L 486 518 L 478 529"/>
  <path class="p5" d="M 486 518 L 486 518 L 494 508 L 494 508 L 486 518"/>
  <line x1="494" y1="508" x2="494" y2="508"/>
  <path class="p5" d="M 486 518 L 486 519 L 494 508 L 494 508 L 486 518"/>
  <line x1="494" y1="508" x2="494" y2="508"/>
  <path class="p5" d="M 479 529 L 479 529 L 487 519 L 486 519 L 479 529"/>
  <path class="p5" d="M 479 529 L 480 530 L 487 519 L 487 519 L 479 529"/>
  <path class="p5" d="M 486 519 L 487 519 L 494 508 L 494 508 L 486 519"/>
  <line x1="494" y1="508" x2="494" y2="508"/>
  <path class="p5" d="M 487 519 L 487 519 L 494 509 L 494 508 L 487 519"/>
  <line x1="494" y1="508" x2="494" y2="509"/>
  <path class="p5" d="M 480 530 L 481 530 L 488 519 L 487 519 L 480 530"/>
  <path class="p5" d="M 481 530 L 481 531 L 488 520 L 488 519 L 481 530"/>
  <path class="p5" d="M 487 519 L 488 519 L 494 509 L 494 509 L 487 519"/>
  <line x1="494" y1="509" x2="494" y2="509"/>
  <path class="p5" d="M 488 519 L 488 520 L 495 509 L 494 509 L 488 519"/>
  <line x1="494" y1="509" x2="495" y2="509"/>
  <path class="p5" d="M 481 531 L 482 531 L 488 520 L 488 520 L 481 531"/>
  <path class="p5" d="M 482 531 L 482 531 L 489 520 L 488 520 L 482 531"/>
  <path class="p5" d="M 488 520 L 488 520 L 495 509 L 495 509 L 488 520"/>
  <line x1="495" y1="509" x2="495" y2="509"/>
  <path class="p5" d="M 488 520 L 489 520 L 495 509 L 495 509 L 488 520"/>
  <line x1="495" y1="509" x2="495" y2="509"/>
  <path class="p5" d="M 482 531 L 483 532 L 489 520 L 489 520 L 482 531"/>
  <path class="p5" d="M 483 532 L 484 532 L 490 521 L 489 520 L 483 532"/>
  <path class="p5" d="M 489 520 L 489 520 L 495 509 L 495 509 L 489 520"/>
  <line x1="495" y1="509" x2="495" y2="509"/>
  <path class="p5" d="M 489 520 L 490 521 L 495 509 L 495 509 L 489 520"/>
  <line x1="495" y1="509" x2="495" y2="509"/>
  <path class="p5" d="M 484 532 L 484 532 L 490 521 L 490 521 L 484 532"/>
  <path class="p5" d="M 484 532 L 485 533 L 490 521 L 490 521 L 484 532"/>
  <path class="p5" d="M 490 521 L 490 521 L 496 509 L 495 509 L 490 521"/>
  <line x1="495" y1="509" x2="496" y2="509"/>
  <path class="p5" d="M 490 521 L 490 521 L 496 509 L 496 509 L 490 521"/>
  <line x1="496" y1="509" x2="496" y2="509"/>
  <path class="p5" d="M 485 533 L 486 533 L 491 521 L 490 521 L 485 533"/>
  <path class="p5" d="M 486 533 L 486 533 L 491 521 L 491 521 L 486 533"/>
  <path class="p5" d="M 490 521 L 491 521 L 496 509 L 496 509 L 490 521"/>
  <line x1="496" y1="509" x2="496" y2="509"/>
  <path class="p5" d="M 491 521 L 491 521 L 496 509 L 496 509 L 491 521"/>
  <line x1="496" y1="509" x2="496" y2="509"/>
  <path class="p5" d="M 486 533 L 487 533 L 492 521 L 491 521 L 486 533"/>
  <path class="p5" d="M 487 533 L 488 534 L 492 522 L 492 521 L 487 533"/>
  <path class="p5" d="M 491 521 L 492 521 L 496 510 L 496 509 L 491 521"/>
  <line x1="496" y1="509" x2="496" y2="510"/>
  <path class="p5" d="M 492 521 L 492 522 L 496 510 L 496 510 L 492 521"/>
  <line x1="496" y1="510" x2="496" y2="510"/>
  <path class="p5" d="M 488 534 L 488 534 L 492 522 L 492 522 L 488 534"/>
  <path class="p5" d="M 488 534 L 489 534 L 493 522 L 492 522 L 488 534"/>
  <path class="p5" d="M 492 522 L 492 522 L 497 510 L 496 510 L 492 522"/>
  <line x1="496" y1="510" x2="497" y2="510"/>
  <path class="p5" d="M 492 522 L 493 522 L 497 510 L 497 510 L 492 522"/>
  <line x1="497" y1="510" x2="497" y2="510"/>
  <path class="p5" d="M 489 534 L 490 534 L 493 522 L 493 522 L 489 534"/>
  <path class="p5" d="M 490 534 L 490 535 L 494 522 L 493 522 L 490 534"/>
  <path class="p5" d="M 493 522 L 493 522 L 497 510 L 497 510 L 493 522"/>
  <line x1="497" y1="510" x2="497" y2="510"/>
  <path class="p5" d="M 493 522 L 494 522 L 497 510 L 497 510 L 493 522"/>
  <line x1="497" y1="510" x2="497" y2="510"/>
  <path class="p5" d="M 490 535 L 491 535 L 494 522 L 494 522 L 490 535"/>
  <path class="p5" d="M 491 535 L 492 535 L 495 522 L 494 522 L 491 535"/>
  <path class="p5" d="M 494 522 L 494 522 L 497 510 L 497 510 L 494 522"/>
  <line x1="497" y1="510" x2="497" y2="510"/>
  <path class="p5" d="M 494 522 L 495 522 L 498 510 L 497 510 L 494 522"/>
  <line x1="497" y1="510" x2="498" y2="510"/>
  <path class="p5" d="M 492 535 L 492 535 L 495 523 L 495 522 L 492 535"/>
  <path class="p5" d="M 492 535 L 493 535 L 496 523 L 495 523 L 492 535"/>
  <path class="p5" d="M 495 522 L 495 523 L 498 510 L 498 510 L 495 522"/>
  <line x1="498" y1="510" x2="498" y2="510"/>
  <path class="p5" d="M 495 523 L 496 523 L 498 510 L 498 510 L 495 523"/>
  <line x1="498" y1="510" x2="498" y2="510"/>
  <path class="p5" d="M 493 535 L 494 535 L 496 523 L 496 523 L 493 535"/>
  <path class="p5" d="M 494 535 L 494 535 L 496 523 L 496 523 L 494 535"/>
  <path class="p5" d="M 496 523 L 496 523 L 498 510 L 498 510 L 496 523"/>
  <line x1="498" y1="510" x2="498" y2="510"/>
  <path class="p5" d="M 496 523 L 496 523 L 498 510 L 498 510 L 496 523"/>
  <line x1="498" y1="510" x2="498" y2="510"/>
  <path class="p5" d="M 494 535 L 495 536 L 497 523 L 496 523 L 494 535"/>
  <path class="p5" d="M 495 536 L 496 536 L 497 523 L 497 523 L 495 536"/>
  <path class="p5" d="M 496 523 L 497 523 L 499 510 L 498 510 L 496 523"/>
  <line x1="498" y1="510" x2="499" y2="510"/>
  <path class="p5" d="M 497 523 L 497 523 L 499 510 L 499 510 L 497 523"/>
  <line x1="499" y1="510" x2="499" y2="510"/>
  <path class="p5" d="M 496 536 L 496 536 L 498 523 L 497 523 L 496 536"/>
  <path class="p5" d="M 496 536 L 497 536 L 498 523 L 498 523 L 496 536"/>
  <path class="p5" d="M 497 523 L 498 523 L 499 510 L 499 510 L 497 523"/>
  <line x1="499" y1="510" x2="499" y2="510"/>
  <path class="p5" d="M 498 523 L 498 523 L 499 510 L 499 510 L 498 523"/>
  <line x1="499" y1="510" x2="499" y2="510"/>
  <path class="p5" d="M 497 536 L 498 536 L 499 523 L 498 523 L 497 536"/>
  <path class="p5" d="M 498 536 L 499 536 L 499 523 L 499 523 L 498 536"/>
  <path class="p5" d="M 498 523 L 499 523 L 499 510 L 499 510 L 498 523"/>
  <line x1="499" y1="510" x2="499" y2="510"/>
  <path class="p5" d="M 499 523 L 499 523 L 500 510 L 499 510 L 499 523"/>
  <line x1="499" y1="510" x2="500" y2="510"/>
  <path class="p5" d="M 499 536 L 499 536 L 500 523 L 499 523 L 499 536"/>
  <path class="p5" d="M 499 536 L 500 536 L 500 523 L 500 523 L 499 536"/>
  <path class="p5" d="M 499 523 L 500 523 L 500 510 L 500 510 L 499 523"/>
  <line x1="500" y1="510" x2="500" y2="510"/>
  <path class="p5" d="M 500 523 L 500 523 L 500 510 L 500 510 L 500 523"/>
  <line x1="500" y1="510" x2="500" y2="510"/>
  <path class="p5" d="M 500 536 L 501 536 L 500 523 L 500 523 L 500 536"/>
  <path class="p5" d="M 501 536 L 501 536 L 501 523 L 500 523 L 501 536"/>
  <path class="p5" d="M 500 523 L 500 523 L 500 510 L 500 510 L 500 523"/>
  <line x1="500" y1="510" x2="500" y2="510"/>
  <path class="p5" d="M 500 523 L 501 523 L 500 510 L 500 510 L 500 523"/>
  <line x1="500" y1="510" x2="500" y2="510"/>
  <path class="p5" d="M 501 536 L 502 536 L 501 523 L 501 523 L 501 536"/>
  <path class="p5" d="M 502 536 L 503 536 L 502 523 L 501 523 L 502 536"/>
  <path class="p5" d="M 501 523 L 501 523 L 501 510 L 500 510 L 501 523"/>
  <line x1="500" y1="510" x2="501" y2="510"/>
  <path class="p5" d="M 501 523 L 502 523 L 501 510 L 501 510 L 501 523"/>
  <line x1="501" y1="510" x2="501" y2="510"/>
  <path class="p5" d="M 503 536 L 504 536 L 502 523 L 502 523 L 503 536"/>
  <path class="p5" d="M 504 536 L 504 536 L 503 523 L 502 523 L 504 536"/>
  <path class="p5" d="M 502 523 L 502 523 L 501 510 L 501 510 L 502 523"/>
  <line x1="501" y1="510" x2="501" y2="510"/>
  <path class="p5" d="M 502 523 L 503 523 L 501 510 L 501 510 L 502 523"/>
  <line x1="501" y1="510" x2="501" y2="510"/>
  <path class="p5" d="M 504 536 L 505 536 L 503 523 L 503 523 L 504 536"/>
  <path class="p5" d="M 505 536 L 506 535 L 504 523 L 503 523 L 505 536"/>
  <path class="p5" d="M 503 523 L 503 523 L 501 510 L 501 510 L 503 523"/>
  <line x1="501" y1="510" x2="501" y2="510"/>
  <path class="p5" d="M 503 523 L 504 523 L 502 510 L 501 510 L 503 523"/>
  <line x1="501" y1="510" x2="502" y2="510"/>
  <path class="p5" d="M 506 535 L 506 535 L 504 523 L 504 523 L 506 535"/>
  <path class="p5" d="M 506 535 L 507 535 L 504 523 L 504 523 L 506 535"/>
  <path class="p5" d="M 504 523 L 504 523 L 502 510 L 502 510 L 504 523"/>
  <line x1="502" y1="510" x2="502" y2="510"/>
  <path class="p5" d="M 504 523 L 504 523 L 502 510 L 502 510 L 504 523"/>
  <line x1="502" y1="510" x2="502" y2="510"/>
  <path class="p5" d="M 507 535 L 508 535 L 505 523 L 504 523 L 507 535"/>
  <path class="p5" d="M 508 535 L 508 535 L 505 522 L 505 523 L 508 535"/>
  <path class="p5" d="M 504 523 L 505 523 L 502 510 L 502 510 L 504 523"/>
  <line x1="502" y1="510" x2="502" y2="510"/>
  <path class="p5" d="M 505 523 L 505 522 L 502 510 L 502 510 L 505 523"/>
  <line x1="502" y1="510" x2="502" y2="510"/>
  <path class="p5" d="M 508 535 L 509 535 L 506 522 L 505 522 L 508 535"/>
  <path class="p5" d="M 509 535 L 510 535 L 506 522 L 506 522 L 509 535"/>
  <path class="p5" d="M 505 522 L 506 522 L 503 510 L 502 510 L 505 522"/>
  <line x1="502" y1="510" x2="503" y2="510"/>
  <path class="p5" d="M 506 522 L 506 522 L 503 510 L 503 510 L 506 522"/>
  <line x1="503" y1="510" x2="503" y2="510"/>
  <path class="p5" d="M 510 535 L 510 534 L 507 522 L 506 522 L 510 535"/>
  <path class="p5" d="M 510 534 L 511 534 L 507 522 L 507 522 L 510 534"/>
  <path class="p5" d="M 506 522 L 507 522 L 503 510 L 503 510 L 506 522"/>
  <line x1="503" y1="510" x2="503" y2="510"/>
  <path class="p5" d="M 507 522 L 507 522 L 503 510 L 503 510 L 507 522"/>
  <line x1="503" y1="510" x2="503" y2="510"/>
  <path class="p5" d="M 511 534 L 512 534 L 508 522 L 507 522 L 511 534"/>
  <path class="p5" d="M 512 534 L 512 534 L 508 522 L 508 522 L 512 534"/>
  <path class="p5" d="M 507 522 L 508 522 L 503 510 L 503 510 L 507 522"/>
  <line x1="503" y1="510" x2="503" y2="510"/>
  <path class="p5" d="M 508 522 L 508 522 L 504 510 L 503 510 L 508 522"/>
  <line x1="503" y1="510" x2="504" y2="510"/>
  <path class="p5" d="M 512 534 L 513 533 L 508 521 L 508 522 L 512 534"/>
  <path class="p5" d="M 513 533 L 514 533 L 509 521 L 508 521 L 513 533"/>
  <path class="p5" d="M 508 522 L 508 521 L 504 510 L 504 510 L 508 522"/>
  <line x1="504" y1="510" x2="504" y2="510"/>
  <path class="p5" d="M 508 521 L 509 521 L 504 509 L 504 510 L 508 521"/>
  <line x1="504" y1="510" x2="504" y2="509"/>
  <path class="p5" d="M 514 533 L 514 533 L 509 521 L 509 521 L 514 533"/>
  <path class="p5" d="M 514 533 L 515 533 L 510 521 L 509 521 L 514 533"/>
  <path class="p5" d="M 509 521 L 509 521 L 504 509 L 504 509 L 509 521"/>
  <line x1="504" y1="509" x2="504" y2="509"/>
  <path class="p5" d="M 509 521 L 510 521 L 504 509 L 504 509 L 509 521"/>
  <line x1="504" y1="509" x2="504" y2="509"/>
  <path class="p5" d="M 515 533 L 516 532 L 510 521 L 510 521 L 515 533"/>
  <path class="p5" d="M 516 532 L 516 532 L 510 521 L 510 521 L 516 532"/>
  <path class="p5" d="M 510 521 L 510 521 L 504 509 L 504 509 L 510 521"/>
  <line x1="504" y1="509" x2="504" y2="509"/>
  <path class="p5" d="M 510 521 L 510 521 L 505 509 L 504 509 L 510 521"/>
  <line x1="504" y1="509" x2="505" y2="509"/>
  <path class="p5" d="M 516 532 L 517 532 L 511 520 L 510 521 L 516 532"/>
  <path class="p5" d="M 517 532 L 518 531 L 511 520 L 511 520 L 517 532"/>
  <path class="p5" d="M 510 521 L 511 520 L 505 509 L 505 509 L 510 521"/>
  <line x1="505" y1="509" x2="505" y2="509"/>
  <path class="p5" d="M 511 520 L 511 520 L 505 509 L 505 509 L 511 520"/>
  <line x1="505" y1="509" x2="505" y2="509"/>
  <path class="p5" d="M 518 531 L 518 531 L 512 520 L 511 520 L 518 531"/>
  <path class="p5" d="M 518 531 L 519 531 L 512 520 L 512 520 L 518 531"/>
  <path class="p5" d="M 511 520 L 512 520 L 505 509 L 505 509 L 511 520"/>
  <line x1="505" y1="509" x2="505" y2="509"/>
  <path class="p5" d="M 512 520 L 512 520 L 505 509 L 505 509 L 512 520"/>
  <line x1="505" y1="509" x2="505" y2="509"/>
  <path class="p5" d="M 519 531 L 519 530 L 512 519 L 512 520 L 519 531"/>
  <path class="p5" d="M 519 530 L 520 530 L 513 519 L 512 519 L 519 530"/>
  <path class="p5" d="M 512 520 L 512 519 L 506 509 L 505 509 L 512 520"/>
  <line x1="505" y1="509" x2="506" y2="509"/>
  <path class="p5" d="M 512 519 L 513 519 L 506 509 L 506 509 L 512 519"/>
  <line x1="506" y1="509" x2="506" y2="509"/>
  <path class="p5" d="M 520 530 L 521 529 L 513 519 L 513 519 L 520 530"/>
  <path class="p5" d="M 521 529 L 521 529 L 514 519 L 513 519 L 521 529"/>
  <path class="p5" d="M 513 519 L 513 519 L 506 508 L 506 509 L 513 519"/>
  <line x1="506" y1="509" x2="506" y2="508"/>
  <path class="p5" d="M 513 519 L 514 519 L 506 508 L 506 508 L 513 519"/>
  <line x1="506" y1="508" x2="506" y2="508"/>
  <path class="p5" d="M 521 529 L 522 529 L 514 518 L 514 519 L 521 529"/>
  <path class="p5" d="M 522 529 L 522 528 L 514 518 L 514 518 L 522 529"/>
  <path class="p5" d="M 514 519 L 514 518 L 506 508 L 506 508 L 514 519"/>
  <line x1="506" y1="508" x2="506" y2="508"/>
  <path class="p5" d="M 514 518 L 514 518 L 506 508 L 506 508 L 514 518"/>
  <line x1="506" y1="508" x2="506" y2="508"/>
  <path class="p5" d="M 522 528 L 523 528 L 515 518 L 514 518 L 522 528"/>
  <path class="p5" d="M 523 528 L 523 527 L 515 518 L 515 518 L 523 528"/>
  <path class="p5" d="M 514 518 L 515 518 L 506 508 L 506 508 L 514 518"/>
  <line x1="506" y1="508" x2="506" y2="508"/>
  <path class="p5" d="M 515 518 L 515 518 L 507 508 L 506 508 L 515 518"/>
  <line x1="506" y1="508" x2="507" y2="508"/>
  <path class="p5" d="M 523 527 L 524 527 L 515 517 L 515 518 L 523 527"/>
  <path class="p5" d="M 524 527 L 524 526 L 516 517 L 515 517 L 524 527"/>
  <path class="p5" d="M 515 518 L 515 517 L 507 508 L 507 508 L 515 518"/>
  <line x1="507" y1="508" x2="507" y2="508"/>
  <path class="p5" d="M 515 517 L 516 517 L 507 508 L 507 508 L 515 517"/>
  <line x1="507" y1="508" x2="507" y2="508"/>
  <path class="p5" d="M 524 526 L 525 526 L 516 517 L 516 517 L 524 526"/>
  <path class="p5" d="M 525 526 L 525 525 L 516 516 L 516 517 L 525 526"/>
  <path class="p5" d="M 516 517 L 516 517 L 507 507 L 507 508 L 516 517"/>
  <line x1="507" y1="508" x2="507" y2="507"/>
  <path class="p5" d="M 516 517 L 516 516 L 507 507 L 507 507 L 516 517"/>
  <line x1="507" y1="507" x2="507" y2="507"/>
  <path class="p5" d="M 525 525 L 526 525 L 517 516 L 516 516 L 525 525"/>
  <path class="p5" d="M 526 525 L 526 524 L 517 516 L 517 516 L 526 525"/>
  <path class="p5" d="M 516 516 L 517 516 L 507 507 L 507 507 L 516 516"/>
  <line x1="507" y1="507" x2="507" y2="507"/>
  <path class="p5" d="M 517 516 L 517 516 L 508 507 L 507 507 L 517 516"/>
  <line x1="507" y1="507" x2="508" y2="507"/>
  <path class="p5" d="M 526 524 L 527 524 L 517 515 L 517 516 L 526 524"/>
  <path class="p5" d="M 527 524 L 527 523 L 518 515 L 517 515 L 527 524"/>
  <path class="p5" d="M 517 516 L 517 515 L 508 507 L 508 507 L 517 516"/>
  <line x1="508" y1="507" x2="508" y2="507"/>
  <path class="p5" d="M 517 515 L 518 515 L 508 507 L 508 507 L 517 515"/>
  <line x1="508" y1="507" x2="508" y2="507"/>
  <path class="p5" d="M 527 523 L 528 523 L 518 515 L 518 515 L 527 523"/>
  <path class="p5" d="M 528 523 L 528 522 L 518 514 L 518 515 L 528 523"/>
  <path class="p5" d="M 518 515 L 518 515 L 508 506 L 508 507 L 518 515"/>
  <line x1="508" y1="507" x2="508" y2="506"/>
  <path class="p5" d="M 518 515 L 518 514 L 508 506 L 508 506 L 518 515"/>
  <line x1="508" y1="506" x2="508" y2="506"/>
  <path class="p5" d="M 528 522 L 529 522 L 518 514 L 518 514 L 528 522"/>
  <path class="p5" d="M 529 522 L 529 521 L 519 514 L 518 514 L 529 522"/>
  <path class="p5" d="M 518 514 L 518 514 L 508 506 L 508 506 L 518 514"/>
  <line x1="508" y1="506" x2="508" y2="506"/>
  <path class="p5" d="M 518 514 L 519 514 L 508 506 L 508 506 L 518 514"/>
  <line x1="508" y1="506" x2="508" y2="506"/>
  <path class="p5" d="M 529 521 L 529 521 L 519 513 L 519 514 L 529 521"/>
  <path class="p5" d="M 529 521 L 530 520 L 519 513 L 519 513 L 529 521"/>
  <path class="p5" d="M 519 514 L 519 513 L 508 506 L 508 506 L 519 514"/>
  <line x1="508" y1="506" x2="508" y2="506"/>
  <path class="p5" d="M 519 513 L 519 513 L 509 506 L 508 506 L 519 513"/>
  <line x1="508" y1="506" x2="509" y2="506"/>
  <path class="p5" d="M 530 520 L 530 519 L 519 512 L 519 513 L 530 520"/>
  <path class="p5" d="M 530 519 L 531 519 L 520 512 L 519 512 L 530 519"/>
  <path class="p5" d="M 519 513 L 519 512 L 509 506 L 509 506 L 519 513"/>
  <line x1="509" y1="506" x2="509" y2="506"/>
  <path class="p5" d="M 519 512 L 520 512 L 509 505 L 509 506 L 519 512"/>
  <line x1="509" y1="506" x2="509" y2="505"/>
  <path class="p5" d="M 531 519 L 531 518 L 520 512 L 520 512 L 531 519"/>
  <path class="p5" d="M 531 518 L 531 518 L 520 511 L 520 512 L 531 518"/>
  <path class="p5" d="M 520 512 L 520 512 L 509 505 L 509 505 L 520 512"/>
  <line x1="509" y1="505" x2="509" y2="505"/>
  <path class="p5" d="M 520 512 L 520 511 L 509 505 L 509 505 L 520 512"/>
  <line x1="509" y1="505" x2="509" y2="505"/>
  <path class="p5" d="M 531 518 L 532 517 L 520 511 L 520 511 L 531 518"/>
  <path class="p5" d="M 532 517 L 532 516 L 521 510 L 520 511 L 532 517"/>
  <path class="p5" d="M 520 511 L 520 511 L 509 505 L 509 505 L 520 511"/>
  <line x1="509" y1="505" x2="509" y2="505"/>
  <path class="p5" d="M 520 511 L 521 510 L 509 505 L 509 505 L 520 511"/>
  <line x1="509" y1="505" x2="509" y2="505"/>
  <path class="p5" d="M 532 516 L 532 516 L 521 510 L 521 510 L 532 516"/>
  <path class="p5" d="M 532 516 L 533 515 L 521 510 L 521 510 L 532 516"/>
  <path class="p5" d="M 521 510 L 521 510 L 509 504 L 509 505 L 521 510"/>
  <line x1="509" y1="505" x2="509" y2="504"/>
  <path class="p5" d="M 521 510 L 521 510 L 509 504 L 509 504 L 521 510"/>
  <line x1="509" y1="504" x2="509" y2="504"/>
  <path class="p5" d="M 533 515 L 533 514 L 521 509 L 521 510 L 533 515"/>
  <path class="p5" d="M 533 514 L 533 514 L 521 509 L 521 509 L 533 514"/>
  <path class="p5" d="M 521 510 L 521 509 L 509 504 L 509 504 L 521 510"/>
  <line x1="509" y1="504" x2="509" y2="504"/>
  <path class="p5" d="M 521 509 L 521 509 L 509 504 L 509 504 L 521 509"/>
  <line x1="509" y1="504" x2="509" y2="504"/>
  <path class="p5" d="M 533 514 L 533 513 L 521 508 L 521 509 L 533 514"/>
  <path class="p5" d="M 533 513 L 534 512 L 522 508 L 521 508 L 533 513"/>
  <path class="p5" d="M 521 509 L 521 508 L 510 504 L 509 504 L 521 509"/>
  <line x1="509" y1="504" x2="510" y2="504"/>
  <path class="p5" d="M 521 508 L 522 508 L 510 504 L 510 504 L 521 508"/>
  <line x1="510" y1="504" x2="510" y2="504"/>
  <path class="p5" d="M 534 512 L 534 512 L 522 508 L 522 508 L 534 512"/>
  <path class="p5" d="M 534 512 L 534 511 L 522 507 L 522 508 L 534 512"/>
  <path class="p5" d="M 522 508 L 522 508 L 510 503 L 510 504 L 522 508"/>
  <line x1="510" y1="504" x2="510" y2="503"/>
  <path class="p5" d="M 522 508 L 522 507 L 510 503 L 510 503 L 522 508"/>
  <line x1="510" y1="503" x2="510" y2="503"/>
  <path class="p5" d="M 534 511 L 534 510 L 522 507 L 522 507 L 534 511"/>
  <path class="p5" d="M 534 510 L 535 510 L 522 506 L 522 507 L 534 510"/>
  <path class="p5" d="M 522 507 L 522 507 L 510 503 L 510 503 L 522 507"/>
  <line x1="510" y1="503" x2="510" y2="503"/>
  <path class="p5" d="M 522 507 L 522 506 L 510 503 L 510 503 L 522 507"/>
  <line x1="510" y1="503" x2="510" y2="503"/>
  <path class="p5" d="M 535 510 L 535 509 L 522 506 L 522 506 L 535 510"/>
  <path class="p5" d="M 535 509 L 535 508 L 522 505 L 522 506 L 535 509"/>
  <path class="p5" d="M 522 506 L 522 506 L 510 503 L 510 503 L 522 506"/>
  <line x1="510" y1="503" x2="510" y2="503"/>
  <path class="p5" d="M 522 506 L 522 505 L 510 502 L 510 503 L 522 506"/>
  <line x1="510" y1="503" x2="510" y2="502"/>
  <path class="p5" d="M 535 508 L 535 508 L 523 505 L 522 505 L 535 508"/>
  <path class="p5" d="M 535 508 L 535 507 L 523 504 L 523 505 L 535 508"/>
  <path class="p5" d="M 522 505 L 523 505 L 510 502 L 510 502 L 522 505"/>
  <line x1="510" y1="502" x2="510" y2="502"/>
  <path class="p5" d="M 523 505 L 523 504 L 510 502 L 510 502 L 523 505"/>
  <line x1="510" y1="502" x2="510" y2="502"/>
  <path class="p5" d="M 535 507 L 535 506 L 523 504 L 523 504 L 535 507"/>
  <path class="p5" d="M 535 506 L 535 506 L 523 504 L 523 504 L 535 506"/>
  <path class="p5" d="M 523 504 L 523 504 L 510 502 L 510 502 L 523 504"/>
  <line x1="510" y1="502" x2="510" y2="502"/>
  <path class="p5" d="M 523 504 L 523 504 L 510 502 L 510 502 L 523 504"/>
  <line x1="510" y1="502" x2="510" y2="502"/>
  <path class="p5" d="M 535 506 L 536 505 L 523 503 L 523 504 L 535 506"/>
  <path class="p5" d="M 536 505 L 536 504 L 523 503 L 523 503 L 536 505"/>
  <path class="p5" d="M 523 504 L 523 503 L 510 501 L 510 502 L 523 504"/>
  <line x1="510" y1="502" x2="510" y2="501"/>
  <path class="p5" d="M 523 503 L 523 503 L 510 501 L 510 501 L 523 503"/>
  <line x1="510" y1="501" x2="510" y2="501"/>
  <path class="p5" d="M 536 504 L 536 504 L 523 502 L 523 503 L 536 504"/>
  <path class="p5" d="M 536 504 L 536 503 L 523 502 L 523 502 L 536 504"/>
  <path class="p5" d="M 523 503 L 523 502 L 510 501 L 510 501 L 523 503"/>
  <line x1="510" y1="501" x2="510" y2="501"/>
  <path class="p5" d="M 523 502 L 523 502 L 510 501 L 510 501 L 523 502"/>
  <line x1="510" y1="501" x2="510" y2="501"/>
  <path class="p5" d="M 536 503 L 536 502 L 523 501 L 523 502 L 536 503"/>
  <path class="p5" d="M 536 502 L 536 501 L 523 501 L 523 501 L 536 502"/>
  <path class="p5" d="M 523 502 L 523 501 L 510 501 L 510 501 L 523 502"/>
  <line x1="510" y1="501" x2="510" y2="501"/>
  <path class="p5" d="M 523 501 L 523 501 L 510 500 L 510 501 L 523 501"/>
  <line x1="510" y1="501" x2="510" y2="500"/>
  <path class="p5" d="M 536 501 L 536 501 L 523 500 L 523 501 L 536 501"/>
  <path class="p5" d="M 536 501 L 536 500 L 523 500 L 523 500 L 536 501"/>
  <path class="p5" d="M 523 501 L 523 500 L 510 500 L 510 500 L 523 501"/>
  <line x1="510" y1="500" x2="510" y2="500"/>
  <path class="p5" d="M 523 500 L 523 500 L 510 500 L 510 500 L 523 500"/>
  <line x1="510" y1="500" x2="510" y2="500"/>

</svg>