<svg width="1000" height="1000" xmlns="http://www.w3.org/2000/svg" version="1.1">


<!-- internal style sheet -->
<style type="text/css"><![CDATA[
 rect.background{fill:white}
 rect{fill:none; stroke:rgb(25,25,25); stroke-width:2}
 text{font-family:Helvetica; text-anchor:middle; fill:rgb(25,25,25)}
 line{stroke:rgb(25,25,25); stroke-width:4}
 path{fill:none; stroke:rgb(25,25,25); stroke-width:2}
 circle{fill:white; stroke:black; stroke-width:2}

 path.p0{fill:rgb(0,102,255); stroke:rgb(25,25,25); stroke-width:2}
 path.ps0{fill:rgb(0,77,191); stroke:rgb(20,20,20); stroke-width:2}
 rect.r0{fill:rgb(0,102,255); stroke:rgb(25,25,25); stroke-width:2}
 path.p1{fill:rgb(0,255,224); stroke:rgb(25,25,25); stroke-width:2}
 path.ps1{fill:rgb(0,191,168); stroke:rgb(20,20,20); stroke-width:2}
 rect.r1{fill:rgb(0,255,224); stroke:rgb(25,25,25); stroke-width:2}
 path.p2{fill:rgb(0,255,41); stroke:rgb(25,25,25); stroke-width:2}
 path.ps2{fill:rgb(0,191,31); stroke:rgb(20,20,20); stroke-width:2}
 rect.r2{fill:rgb(0,255,41); stroke:rgb(25,25,25); stroke-width:2}
 path.p3{fill:rgb(143,255,0); stroke:rgb(25,25,25); stroke-width:2}
 path.ps3{fill:rgb(107,191,0); stroke:rgb(20,20,20); stroke-width:2}
 rect.r3{fill:rgb(143,255,0); stroke:rgb(25,25,25); stroke-width:2}
 path.p4{fill:rgb(255,184,0); stroke:rgb(25,25,25); stroke-width:2}
 path.ps4{fill:rgb(191,138,0); stroke:rgb(20,20,20); stroke-width:2}
 rect.r4{fill:rgb(255,184,0); stroke:rgb(25,25,25); stroke-width:2}
 path.p5{fill:rgb(255,0,0); stroke:rgb(25,25,25); stroke-width:2}
 path.ps5{fill:rgb(191,0,0); stroke:rgb(20,20,20); stroke-width:2}
 rect.r5{fill:rgb(255,0,0); stroke:rgb(25,25,25); stroke-width:2}
]]></style>

 <rect class="background" width="1000" height="1000"/>
  <!-- cells -->
  <path class="p1" d="M 920 500 L 899 370 L 740 422 L 752 500 L 920 500"/>
  <line x1="920" y1="500" x2="899" y2="370"/>
  <path class="p1" d="M 899 370 L 840 253 L 704 352 L 740 422 L 899 370"/>
  <line x1="899" y1="370" x2="840" y2="253"/>
  <path class="p1" d="M 840 253 L 747 160 L 648 296 L 704 352 L 840 253"/>
  <line x1="840" y1="253" x2="747" y2="160"/>
  <path class="p1" d="M 747 160 L 630 101 L 578 260 L 648 296 L 747 160"/>
  <line x1="747" y1="160" x2="630" y2="101"/>
  <path class="p1" d="M 630 101 L 500 80 L 500 248 L 578 260 L 630 101"/>
  <line x1="630" y1="101" x2="500" y2="80"/>
  <path class="p1" d="M 500 80 L 370 101 L 422 260 L 500 248 L 500 80"/>
  <line x1="500" y1="80" x2="370" y2="101"/>
  <path class="p1" d="M 370 101 L 253 160 L 352 296 L 422 260 L 370 101"/>
  <line x1="370" y1="101" x2="253" y2="160"/>
  <path class="p1" d="M 253 160 L 160 253 L 296 352 L 352 296 L 253 160"/>
  <line x1="253" y1="160" x2="160" y2="253"/>
  <path class="p1" d="M 160 253 L 101 370 L 260 422 L 296 352 L 160 253"/>
  <line x1="160" y1="253" x2="101" y2="370"/>
  <path class="p1" d="M 101 370 L 80 500 L 248 500 L 260 422 L 101 370"/>
  <line x1="101" y1="370" x2="80" y2="500"/>
  <path class="p1" d="M 80 500 L 101 630 L 260 578 L 248 500 L 80 500"/>
  <line x1="80" y1="500" x2="101" y2="630"/>
  <path class="p1" d="M 101 630 L 160 747 L 296 648 L 260 578 L 101 630"/>
  <line x1="101" y1="630" x2="160" y2="747"/>
  <path class="p1" d="M 160 747 L 253 840 L 352 704 L 296 648 L 160 747"/>
  <line x1="160" y1="747" x2="253" y2="840"/>
  <path class="p1" d="M 253 840 L 370 899 L 422 740 L 352 704 L 253 840"/>
  <line x1="253" y1="840" x2="370" y2="899"/>
  <path class="p1" d="M 370 899 L 500 920 L 500 752 L 422 740 L 370 899"/>
  <line x1="370" y1="899" x2="500" y2="920"/>
  <path class="p1" d="M 500 920 L 630 899 L 578 740 L 500 752 L 500 920"/>
  <line x1="500" y1="920" x2="630" y2="899"/>
  <path class="p1" d="M 630 899 L 747 840 L 648 704 L 578 740 L 630 899"/>
  <line x1="630" y1="899" x2="747" y2="840"/>
  <path class="p1" d="M 747 840 L 840 747 L 704 648 L 648 704 L 747 840"/>
  <line x1="747" y1="840" x2="840" y2="747"/>
  <path class="p1" d="M 840 747 L 899 630 L 740 578 L 704 648 L 840 747"/>
  <line x1="840" y1="747" x2="899" y2="630"/>
  <path class="p1" d="M 899 630 L 920 500 L 752 500 L 740 578 L 899 630"/>
  <line x1="899" y1="630" x2="920" y2="500"/>
  <path class="p2" d="M 752 500 L 749 461 L 666 474 L 668 500 L 752 500"/>
  <path class="p2" d="M 749 461 L 740 422 L 660 448 L 666 474 L 749 461"/>
  <path class="p2" d="M 740 422 L 725 386 L 650 424 L 660 448 L 740 422"/>
  <path class="p2" d="M 725 386 L 704 352 L 636 401 L 650 424 L 725 386"/>
  <path class="p2" d="M 704 352 L 678 322 L 619 381 L 636 401 L 704 352"/>
  <path class="p2" d="M 678 322 L 648 296 L 599 364 L 619 381 L 678 322"/>
  <path class="p2" d="M 648 296 L 614 275 L 576 350 L 599 364 L 648 296"/>
  <path class="p2" d="M 614 275 L 578 260 L 552 340 L 576 350 L 614 275"/>
  <path class="p2" d="M 578 260 L 539 251 L 526 334 L 552 340 L 578 260"/>
  <path class="p2" d="M 539 251 L 500 248 L 500 332 L 526 334 L 539 251"/>
  <path class="p2" d="M 500 248 L 461 251 L 474 334 L 500 332 L 500 248"/>
  <path class="p2" d="M 461 251 L 422 260 L 448 340 L 474 334 L 461 251"/>
  <path class="p2" d="M 422 260 L 386 275 L 424 350 L 448 340 L 422 260"/>
  <path class="p2" d="M 386 275 L 352 296 L 401 364 L 424 350 L 386 275"/>
  <path class="p2" d="M 352 296 L 322 322 L 381 381 L 401 364 L 352 296"/>
  <path class="p2" d="M 322 322 L 296 352 L 364 401 L 381 381 L 322 322"/>
  <path class="p2" d="M 296 352 L 275 386 L 350 424 L 364 401 L 296 352"/>
  <path class="p2" d="M 275 386 L 260 422 L 340 448 L 350 424 L 275 386"/>
  <path class="p2" d="M 260 422 L 251 461 L 334 474 L 340 448 L 260 422"/>
  <path class="p2" d="M 251 461 L 248 500 L 332 500 L 334 474 L 251 461"/>
  <path class="p2" d="M 248 500 L 251 539 L 334 526 L 332 500 L 248 500"/>
  <path class="p2" d="M 251 539 L 260 578 L 340 552 L 334 526 L 251 539"/>
  <path class="p2" d="M 260 578 L 275 614 L 350 576 L 340 552 L 260 578"/>
  <path class="p2" d="M 275 614 L 296 648 L 364 599 L 350 576 L 275 614"/>
  <path class="p2" d="M 296 648 L 322 678 L 381 619 L 364 599 L 296 648"/>
  <path class="p2" d="M 322 678 L 352 704 L 401 636 L 381 619 L 322 678"/>
  <path class="p2" d="M 352 704 L 386 725 L 424 650 L 401 636 L 352 704"/>
  <path class="p2" d="M 386 725 L 422 740 L 448 660 L 424 650 L 386 725"/>
  <path class="p2" d="M 422 740 L 461 749 L 474 666 L 448 660 L 422 740"/>
  <path class="p2" d="M 461 749 L 500 752 L 500 668 L 474 666 L 461 749"/>
  <path class="p2" d="M 500 752 L 539 749 L 526 666 L 500 668 L 500 752"/>
  <path class="p2" d="M 539 749 L 578 740 L 552 660 L 526 666 L 539 749"/>
  <path class="p2" d="M 578 740 L 614 725 L 576 650 L 552 660 L 578 740"/>
  <path class="p2" d="M 614 725 L 648 704 L 599 636 L 576 650 L 614 725"/>
  <path class="p2" d="M 648 704 L 678 678 L 619 619 L 599 636 L 648 704"/>
  <path class="p2" d="M 678 678 L 704 648 L 636 599 L 619 619 L 678 678"/>
  <path class="p2" d="M 704 648 L 725 614 L 650 576 L 636 599 L 704 648"/>
  <path class="p2" d="M 725 614 L 740 578 L 660 552 L 650 576 L 725 614"/>
  <path class="p2" d="M 740 578 L 749 539 L 666 526 L 660 552 L 740 578"/>
  <path class="p2" d="M 749 539 L 752 500 L 668 500 L 666 526 L 749 539"/>
  <path class="p3" d="M 668 500 L 667 487 L 626 490 L 626 500 L 668 500"/>
  <path class="p3" d="M 667 487 L 666 474 L 624 480 L 626 490 L 667 487"/>
  <path class="p3" d="M 666 474 L 663 461 L 623 471 L 624 480 L 666 474"/>
  <path class="p3" d="M 663 461 L 660 448 L 620 461 L 623 471 L 663 461"/>
  <path class="p3" d="M 660 448 L 655 436 L 616 452 L 620 461 L 660 448"/>
  <path class="p3" d="M 655 436 L 650 424 L 612 443 L 616 452 L 655 436"/>
  <path class="p3" d="M 650 424 L 643 412 L 607 434 L 612 443 L 650 424"/>
  <path class="p3" d="M 643 412 L 636 401 L 602 426 L 607 434 L 643 412"/>
  <path class="p3" d="M 636 401 L 628 391 L 596 418 L 602 426 L 636 401"/>
  <path class="p3" d="M 628 391 L 619 381 L 589 411 L 596 418 L 628 391"/>
  <path class="p3" d="M 619 381 L 609 372 L 582 404 L 589 411 L 619 381"/>
  <path class="p3" d="M 609 372 L 599 364 L 574 398 L 582 404 L 609 372"/>
  <path class="p3" d="M 599 364 L 588 357 L 566 393 L 574 398 L 599 364"/>
  <path class="p3" d="M 588 357 L 576 350 L 557 388 L 566 393 L 588 357"/>
  <path class="p3" d="M 576 350 L 564 345 L 548 384 L 557 388 L 576 350"/>
  <path class="p3" d="M 564 345 L 552 340 L 539 380 L 548 384 L 564 345"/>
  <path class="p3" d="M 552 340 L 539 337 L 529 377 L 539 380 L 552 340"/>
  <path class="p3" d="M 539 337 L 526 334 L 520 376 L 529 377 L 539 337"/>
  <path class="p3" d="M 526 334 L 513 333 L 510 374 L 520 376 L 526 334"/>
  <path class="p3" d="M 513 333 L 500 332 L 500 374 L 510 374 L 513 333"/>
  <path class="p3" d="M 500 332 L 487 333 L 490 374 L 500 374 L 500 332"/>
  <path class="p3" d="M 487 333 L 474 334 L 480 376 L 490 374 L 487 333"/>
  <path class="p3" d="M 474 334 L 461 337 L 471 377 L 480 376 L 474 334"/>
  <path class="p3" d="M 461 337 L 448 340 L 461 380 L 471 377 L 461 337"/>
  <path class="p3" d="M 448 340 L 436 345 L 452 384 L 461 380 L 448 340"/>
  <path class="p3" d="M 436 345 L 424 350 L 443 388 L 452 384 L 436 345"/>
  <path class="p3" d="M 424 350 L 412 357 L 434 393 L 443 388 L 424 350"/>
  <path class="p3" d="M 412 357 L 401 364 L 426 398 L 434 393 L 412 357"/>
  <path class="p3" d="M 401 364 L 391 372 L 418 404 L 426 398 L 401 364"/>
  <path class="p3" d="M 391 372 L 381 381 L 411 411 L 418 404 L 391 372"/>
  <path class="p3" d="M 381 381 L 372 391 L 404 418 L 411 411 L 381 381"/>
  <path class="p3" d="M 372 391 L 364 401 L 398 426 L 404 418 L 372 391"/>
  <path class="p3" d="M 364 401 L 357 412 L 393 434 L 398 426 L 364 401"/>
  <path class="p3" d="M 357 412 L 350 424 L 388 443 L 393 434 L 357 412"/>
  <path class="p3" d="M 350 424 L 345 436 L 384 452 L 388 443 L 350 424"/>
  <path class="p3" d="M 345 436 L 340 448 L 380 461 L 384 452 L 345 436"/>
  <path class="p3" d="M 340 448 L 337 461 L 377 471 L 380 461 L 340 448"/>
  <path class="p3" d="M 337 461 L 334 474 L 376 480 L 377 471 L 337 461"/>
  <path class="p3" d="M 334 474 L 333 487 L 374 490 L 376 480 L 334 474"/>
  <path class="p3" d="M 333 487 L 332 500 L 374 500 L 374 490 L 333 487"/>
  <path class="p3" d="M 332 500 L 333 513 L 374 510 L 374 500 L 332 500"/>
  <path class="p3" d="M 333 513 L 334 526 L 376 520 L 374 510 L 333 513"/>
  <path class="p3" d="M 334 526 L 337 539 L 377 529 L 376 520 L 334 526"/>
  <path class="p3" d="M 337 539 L 340 552 L 380 539 L 377 529 L 337 539"/>
  <path class="p3" d="M 340 552 L 345 564 L 384 548 L 380 539 L 340 552"/>
  <path class="p3" d="M 345 564 L 350 576 L 388 557 L 384 548 L 345 564"/>
  <path class="p3" d="M 350 576 L 357 588 L 393 566 L 388 557 L 350 576"/>
  <path class="p3" d="M 357 588 L 364 599 L 398 574 L 393 566 L 357 588"/>
  <path class="p3" d="M 364 599 L 372 609 L 404 582 L 398 574 L 364 599"/>
  <path class="p3" d="M 372 609 L 381 619 L 411 589 L 404 582 L 372 609"/>
  <path class="p3" d="M 381 619 L 391 628 L 418 596 L 411 589 L 381 619"/>
  <path class="p3" d="M 391 628 L 401 636 L 426 602 L 418 596 L 391 628"/>
  <path class="p3" d="M 401 636 L 412 643 L 434 607 L 426 602 L 401 636"/>
  <path class="p3" d="M 412 643 L 424 650 L 443 612 L 434 607 L 412 643"/>
  <path class="p3" d="M 424 650 L 436 655 L 452 616 L 443 612 L 424 650"/>
  <path class="p3" d="M 436 655 L 448 660 L 461 620 L 452 616 L 436 655"/>
  <path class="p3" d="M 448 660 L 461 663 L 471 623 L 461 620 L 448 660"/>
  <path class="p3" d="M 461 663 L 474 666 L 480 624 L 471 623 L 461 663"/>
  <path class="p3" d="M 474 666 L 487 667 L 490 626 L 480 624 L 474 666"/>
  <path class="p3" d="M 487 667 L 500 668 L 500 626 L 490 626 L 487 667"/>
  <path class="p3" d="M 500 668 L 513 667 L 510 626 L 500 626 L 500 668"/>
  <path class="p3" d="M 513 667 L 526 666 L 520 624 L 510 626 L 513 667"/>
  <path class="p3" d="M 526 666 L 539 663 L 529 623 L 520 624 L 526 666"/>
  <path class="p3" d="M 539 663 L 552 660 L 539 620 L 529 623 L 539 663"/>
  <path class="p3" d="M 552 660 L 564 655 L 548 616 L 539 620 L 552 660"/>
  <path class="p3" d="M 564 655 L 576 650 L 557 612 L 548 616 L 564 655"/>
  <path class="p3" d="M 576 650 L 588 643 L 566 607 L 557 612 L 576 650"/>
  <path class="p3" d="M 588 643 L 599 636 L 574 602 L 566 607 L 588 643"/>
  <path class="p3" d="M 599 636 L 609 628 L 582 596 L 574 602 L 599 636"/>
  <path class="p3" d="M 609 628 L 619 619 L 589 589 L 582 596 L 609 628"/>
  <path class="p3" d="M 619 619 L 628 609 L 596 582 L 589 589 L 619 619"/>
  <path class="p3" d="M 628 609 L 636 599 L 602 574 L 596 582 L 628 609"/>
  <path class="p3" d="M 636 599 L 643 588 L 607 566 L 602 574 L 636 599"/>
  <path class="p3" d="M 643 588 L 650 576 L 612 557 L 607 566 L 643 588"/>
  <path class="p3" d="M 650 576 L 655 564 L 616 548 L 612 557 L 650 576"/>
  <path class="p3" d="M 655 564 L 660 552 L 620 539 L 616 548 L 655 564"/>
  <path class="p3" d="M 660 552 L 663 539 L 623 529 L 620 539 L 660 552"/>
  <path class="p3" d="M 663 539 L 666 526 L 624 520 L 623 529 L 663 539"/>
  <path class="p3" d="M 666 526 L 667 513 L 626 510 L 624 520 L 666 526"/>
  <path class="p3" d="M 667 513 L 668 500 L 626 500 L 626 510 L 667 513"/>
  <path class="p4" d="M 626 500 L 626 495 L 605 496 L 605 500 L 626 500"/>
  <path class="p4" d="M 626 495 L 626 490 L 605 492 L 605 496 L 626 495"/>
  <path class="p4" d="M 626 490 L 625 485 L 604 488 L 605 492 L 626 490"/>
  <path class="p4" d="M 625 485 L 624 480 L 604 484 L 604 488 L 625 485"/>
  <path class="p4" d="M 624 480 L 624 475 L 603 480 L 604 484 L 624 480"/>
  <path class="p4" d="M 624 475 L 623 471 L 602 475 L 603 480 L 624 475"/>
  <path class="p4" d="M 623 471 L 621 466 L 601 471 L 602 475 L 623 471"/>
  <path class="p4" d="M 621 466 L 620 461 L 600 468 L 601 471 L 621 466"/>
  <path class="p4" d="M 620 461 L 618 456 L 599 464 L 600 468 L 620 461"/>
  <path class="p4" d="M 618 456 L 616 452 L 597 460 L 599 464 L 618 456"/>
  <path class="p4" d="M 616 452 L 614 447 L 595 456 L 597 460 L 616 452"/>
  <path class="p4" d="M 614 447 L 612 443 L 594 452 L 595 456 L 614 447"/>
  <path class="p4" d="M 612 443 L 610 438 L 592 449 L 594 452 L 612 443"/>
  <path class="p4" d="M 610 438 L 607 434 L 590 445 L 592 449 L 610 438"/>
  <path class="p4" d="M 607 434 L 605 430 L 587 442 L 590 445 L 607 434"/>
  <path class="p4" d="M 605 430 L 602 426 L 585 438 L 587 442 L 605 430"/>
  <path class="p4" d="M 602 426 L 599 422 L 582 435 L 585 438 L 602 426"/>
  <path class="p4" d="M 599 422 L 596 418 L 580 432 L 582 435 L 599 422"/>
  <path class="p4" d="M 596 418 L 593 414 L 577 429 L 580 432 L 596 418"/>
  <path class="p4" d="M 593 414 L 589 411 L 574 426 L 577 429 L 593 414"/>
  <path class="p4" d="M 589 411 L 586 407 L 571 423 L 574 426 L 589 411"/>
  <path class="p4" d="M 586 407 L 582 404 L 568 420 L 571 423 L 586 407"/>
  <path class="p4" d="M 582 404 L 578 401 L 565 418 L 568 420 L 582 404"/>
  <path class="p4" d="M 578 401 L 574 398 L 562 415 L 565 418 L 578 401"/>
  <path class="p4" d="M 574 398 L 570 395 L 558 413 L 562 415 L 574 398"/>
  <path class="p4" d="M 570 395 L 566 393 L 555 410 L 558 413 L 570 395"/>
  <path class="p4" d="M 566 393 L 562 390 L 551 408 L 555 410 L 566 393"/>
  <path class="p4" d="M 562 390 L 557 388 L 548 406 L 551 408 L 562 390"/>
  <path class="p4" d="M 557 388 L 553 386 L 544 405 L 548 406 L 557 388"/>
  <path class="p4" d="M 553 386 L 548 384 L 540 403 L 544 405 L 553 386"/>
  <path class="p4" d="M 548 384 L 544 382 L 536 401 L 540 403 L 548 384"/>
  <path class="p4" d="M 544 382 L 539 380 L 532 400 L 536 401 L 544 382"/>
  <path class="p4" d="M 539 380 L 534 379 L 529 399 L 532 400 L 539 380"/>
  <path class="p4" d="M 534 379 L 529 377 L 525 398 L 529 399 L 534 379"/>
  <path class="p4" d="M 529 377 L 525 376 L 520 397 L 525 398 L 529 377"/>
  <path class="p4" d="M 525 376 L 520 376 L 516 396 L 520 397 L 525 376"/>
  <path class="p4" d="M 520 376 L 515 375 L 512 396 L 516 396 L 520 376"/>
  <path class="p4" d="M 515 375 L 510 374 L 508 395 L 512 396 L 515 375"/>
  <path class="p4" d="M 510 374 L 505 374 L 504 395 L 508 395 L 510 374"/>
  <path class="p4" d="M 505 374 L 500 374 L 500 395 L 504 395 L 505 374"/>
  <path class="p4" d="M 500 374 L 495 374 L 496 395 L 500 395 L 500 374"/>
  <path class="p4" d="M 495 374 L 490 374 L 492 395 L 496 395 L 495 374"/>
  <path class="p4" d="M 490 374 L 485 375 L 488 396 L 492 395 L 490 374"/>
  <path class="p4" d="M 485 375 L 480 376 L 484 396 L 488 396 L 485 375"/>
  <path class="p4" d="M 480 376 L 475 376 L 480 397 L 484 396 L 480 376"/>
  <path class="p4" d="M 475 376 L 471 377 L 475 398 L 480 397 L 475 376"/>
  <path class="p4" d="M 471 377 L 466 379 L 471 399 L 475 398 L 471 377"/>
  <path class="p4" d="M 466 379 L 461 380 L 468 400 L 471 399 L 466 379"/>
  <path class="p4" d="M 461 380 L 456 382 L 464 401 L 468 400 L 461 380"/>
  <path class="p4" d="M 456 382 L 452 384 L 460 403 L 464 401 L 456 382"/>
  <path class="p4" d="M 452 384 L 447 386 L 456 405 L 460 403 L 452 384"/>
  <path class="p4" d="M 447 386 L 443 388 L 452 406 L 456 405 L 447 386"/>
  <path class="p4" d="M 443 388 L 438 390 L 449 408 L 452 406 L 443 388"/>
  <path class="p4" d="M 438 390 L 434 393 L 445 410 L 449 408 L 438 390"/>
  <path class="p4" d="M 434 393 L 430 395 L 442 413 L 445 410 L 434 393"/>
  <path class="p4" d="M 430 395 L 426 398 L 438 415 L 442 413 L 430 395"/>
  <path class="p4" d="M 426 398 L 422 401 L 435 418 L 438 415 L 426 398"/>
  <path class="p4" d="M 422 401 L 418 404 L 432 420 L 435 418 L 422 401"/>
  <path class="p4" d="M 418 404 L 414 407 L 429 423 L 432 420 L 418 404"/>
  <path class="p4" d="M 414 407 L 411 411 L 426 426 L 429 423 L 414 407"/>
  <path class="p4" d="M 411 411 L 407 414 L 423 429 L 426 426 L 411 411"/>
  <path class="p4" d="M 407 414 L 404 418 L 420 432 L 423 429 L 407 414"/>
  <path class="p4" d="M 404 418 L 401 422 L 418 435 L 420 432 L 404 418"/>
  <path class="p4" d="M 401 422 L 398 426 L 415 438 L 418 435 L 401 422"/>
  <path class="p4" d="M 398 426 L 395 430 L 413 442 L 415 438 L 398 426"/>
  <path class="p4" d="M 395 430 L 393 434 L 410 445 L 413 442 L 395 430"/>
  <path class="p4" d="M 393 434 L 390 438 L 408 449 L 410 445 L 393 434"/>
  <path class="p4" d="M 390 438 L 388 443 L 406 452 L 408 449 L 390 438"/>
  <path class="p4" d="M 388 443 L 386 447 L 405 456 L 406 452 L 388 443"/>
  <path class="p4" d="M 386 447 L 384 452 L 403 460 L 405 456 L 386 447"/>
  <path class="p4" d="M 384 452 L 382 456 L 401 464 L 403 460 L 384 452"/>
  <path class="p4" d="M 382 456 L 380 461 L 400 468 L 401 464 L 382 456"/>
  <path class="p4" d="M 380 461 L 379 466 L 399 471 L 400 468 L 380 461"/>
  <path class="p4" d="M 379 466 L 377 471 L 398 475 L 399 471 L 379 466"/>
  <path class="p4" d="M 377 471 L 376 475 L 397 480 L 398 475 L 377 471"/>
  <path class="p4" d="M 376 475 L 376 480 L 396 484 L 397 480 L 376 475"/>
  <path class="p4" d="M 376 480 L 375 485 L 396 488 L 396 484 L 376 480"/>
  <path class="p4" d="M 375 485 L 374 490 L 395 492 L 396 488 L 375 485"/>
  <path class="p4" d="M 374 490 L 374 495 L 395 496 L 395 492 L 374 490"/>
  <path class="p4" d="M 374 495 L 374 500 L 395 500 L 395 496 L 374 495"/>
  <path class="p4" d="M 374 500 L 374 505 L 395 504 L 395 500 L 374 500"/>
  <path class="p4" d="M 374 505 L 374 510 L 395 508 L 395 504 L 374 505"/>
  <path class="p4" d="M 374 510 L 375 515 L 396 512 L 395 508 L 374 510"/>
  <path class="p4" d="M 375 515 L 376 520 L 396 516 L 396 512 L 375 515"/>
  <path class="p4" d="M 376 520 L 376 525 L 397 520 L 396 516 L 376 520"/>
  <path class="p4" d="M 376 525 L 377 529 L 398 525 L 397 520 L 376 525"/>
  <path class="p4" d="M 377 529 L 379 534 L 399 529 L 398 525 L 377 529"/>
  <path class="p4" d="M 379 534 L 380 539 L 400 532 L 399 529 L 379 534"/>
  <path class="p4" d="M 380 539 L 382 544 L 401 536 L 400 532 L 380 539"/>
  <path class="p4" d="M 382 544 L 384 548 L 403 540 L 401 536 L 382 544"/>
  <path class="p4" d="M 384 548 L 386 553 L 405 544 L 403 540 L 384 548"/>
  <path class="p4" d="M 386 553 L 388 557 L 406 548 L 405 544 L 386 553"/>
  <path class="p4" d="M 388 557 L 390 562 L 408 551 L 406 548 L 388 557"/>
  <path class="p4" d="M 390 562 L 393 566 L 410 555 L 408 551 L 390 562"/>
  <path class="p4" d="M 393 566 L 395 570 L 413 558 L 410 555 L 393 566"/>
  <path class="p4" d="M 395 570 L 398 574 L 415 562 L 413 558 L 395 570"/>
  <path class="p4" d="M 398 574 L 401 578 L 418 565 L 415 562 L 398 574"/>
  <path class="p4" d="M 401 578 L 404 582 L 420 568 L 418 565 L 401 578"/>
  <path class="p4" d="M 404 582 L 407 586 L 423 571 L 420 568 L 404 582"/>
  <path class="p4" d="M 407 586 L 411 589 L 426 574 L 423 571 L 407 586"/>
  <path class="p4" d="M 411 589 L 414 593 L 429 577 L 426 574 L 411 589"/>
  <path class="p4" d="M 414 593 L 418 596 L 432 580 L 429 577 L 414 593"/>
  <path class="p4" d="M 418 596 L 422 599 L 435 582 L 432 580 L 418 596"/>
  <path class="p4" d="M 422 599 L 426 602 L 438 585 L 435 582 L 422 599"/>
  <path class="p4" d="M 426 602 L 430 605 L 442 587 L 438 585 L 426 602"/>
  <path class="p4" d="M 430 605 L 434 607 L 445 590 L 442 587 L 430 605"/>
  <path class="p4" d="M 434 607 L 438 610 L 449 592 L 445 590 L 434 607"/>
  <path class="p4" d="M 438 610 L 443 612 L 452 594 L 449 592 L 438 610"/>
  <path class="p4" d="M 443 612 L 447 614 L 456 595 L 452 594 L 443 612"/>
  <path class="p4" d="M 447 614 L 452 616 L 460 597 L 456 595 L 447 614"/>
  <path class="p4" d="M 452 616 L 456 618 L 464 599 L 460 597 L 452 616"/>
  <path class="p4" d="M 456 618 L 461 620 L 468 600 L 464 599 L 456 618"/>
  <path class="p4" d="M 461 620 L 466 621 L 471 601 L 468 600 L 461 620"/>
  <path class="p4" d="M 466 621 L 471 623 L 475 602 L 471 601 L 466 621"/>
  <path class="p4" d="M 471 623 L 475 624 L 480 603 L 475 602 L 471 623"/>
  <path class="p4" d="M 475 624 L 480 624 L 484 604 L 480 603 L 475 624"/>
  <path class="p4" d="M 480 624 L 485 625 L 488 604 L 484 604 L 480 624"/>
  <path class="p4" d="M 485 625 L 490 626 L 492 605 L 488 604 L 485 625"/>
  <path class="p4" d="M 490 626 L 495 626 L 496 605 L 492 605 L 490 626"/>
  <path class="p4" d="M 495 626 L 500 626 L 500 605 L 496 605 L 495 626"/>
  <path class="p4" d="M 500 626 L 505 626 L 504 605 L 500 605 L 500 626"/>
  <path class="p4" d="M 505 626 L 510 626 L 508 605 L 504 605 L 505 626"/>
  <path class="p4" d="M 510 626 L 515 625 L 512 604 L 508 605 L 510 626"/>
  <path class="p4" d="M 515 625 L 520 624 L 516 604 L 512 604 L 515 625"/>
  <path class="p4" d="M 520 624 L 525 624 L 520 603 L 516 604 L 520 624"/>
  <path class="p4" d="M 525 624 L 529 623 L 525 602 L 520 603 L 525 624"/>
  <path class="p4" d="M 529 623 L 534 621 L 529 601 L 525 602 L 529 623"/>
  <path class="p4" d="M 534 621 L 539 620 L 532 600 L 529 601 L 534 621"/>
  <path class="p4" d="M 539 620 L 544 618 L 536 599 L 532 600 L 539 620"/>
  <path class="p4" d="M 544 618 L 548 616 L 540 597 L 536 599 L 544 618"/>
  <path class="p4" d="M 548 616 L 553 614 L 544 595 L 540 597 L 548 616"/>
  <path class="p4" d="M 553 614 L 557 612 L 548 594 L 544 595 L 553 614"/>
  <path class="p4" d="M 557 612 L 562 610 L 551 592 L 548 594 L 557 612"/>
  <path class="p4" d="M 562 610 L 566 607 L 555 590 L 551 592 L 562 610"/>
  <path class="p4" d="M 566 607 L 570 605 L 558 587 L 555 590 L 566 607"/>
  <path class="p4" d="M 570 605 L 574 602 L 562 585 L 558 587 L 570 605"/>
  <path class="p4" d="M 574 602 L 578 599 L 565 582 L 562 585 L 574 602"/>
  <path class="p4" d="M 578 599 L 582 596 L 568 580 L 565 582 L 578 599"/>
  <path class="p4" d="M 582 596 L 586 593 L 571 577 L 568 580 L 582 596"/>
  <path class="p4" d="M 586 593 L 589 589 L 574 574 L 571 577 L 586 593"/>
  <path class="p4" d="M 589 589 L 593 586 L 577 571 L 574 574 L 589 589"/>
  <path class="p4" d="M 593 586 L 596 582 L 580 568 L 577 571 L 593 586"/>
  <path class="p4" d="M 596 582 L 599 578 L 582 565 L 580 568 L 596 582"/>
  <path class="p4" d="M 599 578 L 602 574 L 585 562 L 582 565 L 599 578"/>
  <path class="p4" d="M 602 574 L 605 570 L 587 558 L 585 562 L 602 574"/>
  <path class="p4" d="M 605 570 L 607 566 L 590 555 L 587 558 L 605 570"/>
  <path class="p4" d="M 607 566 L 610 562 L 592 551 L 590 555 L 607 566"/>
  <path class="p4" d="M 610 562 L 612 557 L 594 548 L 592 551 L 610 562"/>
  <path class="p4" d="M 612 557 L 614 553 L 595 544 L 594 548 L 612 557"/>
  <path class="p4" d="M 614 553 L 616 548 L 597 540 L 595 544 L 614 553"/>
  <path class="p4" d="M 616 548 L 618 544 L 599 536 L 597 540 L 616 548"/>
  <path class="p4" d="M 618 544 L 620 539 L 600 532 L 599 536 L 618 544"/>
  <path class="p4" d="M 620 539 L 621 534 L 601 529 L 600 532 L 620 539"/>
  <path class="p4" d="M 621 534 L 623 529 L 602 525 L 601 529 L 621 534"/>
  <path class="p4" d="M 623 529 L 624 525 L 603 520 L 602 525 L 623 529"/>
  <path class="p4" d="M 624 525 L 624 520 L 604 516 L 603 520 L 624 525"/>
  <path class="p4" d="M 624 520 L 625 515 L 604 512 L 604 516 L 624 520"/>
  <path class="p4" d="M 625 515 L 626 510 L 605 508 L 604 512 L 625 515"/>
  <path class="p4" d="M 626 510 L 626 505 L 605 504 L 605 508 L 626 510"/>
  <path class="p4" d="M 626 505 L 626 500 L 605 500 L 605 504 L 626 505"/>
  <path class="p5" d="M 605 500 L 605 498 L 594 498 L 595 500 L 605 500"/>
  <path class="p5" d="M 605 498 L 605 496 L 594 496 L 594 498 L 605 498"/>
  <path class="p5" d="M 595 500 L 594 498 L 584 498 L 584 500 L 595 500"/>
  <line x1="584" y1="500" x2="584" y2="498"/>
  <path class="p5" d="M 594 498 L 594 496 L 584 497 L 584 498 L 594 498"/>
  <line x1="584" y1="498" x2="584" y2="497"/>
  <path class="p5" d="M 605 496 L 605 494 L 594 494 L 594 496 L 605 496"/>
  <path class="p5" d="M 605 494 L 605 492 L 594 493 L 594 494 L 605 494"/>
  <path class="p5" d="M 594 496 L 594 494 L 584 495 L 584 497 L 594 496"/>
  <line x1="584" y1="497" x2="584" y2="495"/>
  <path class="p5" d="M 594 494 L 594 493 L 584 493 L 584 495 L 594 494"/>
  <line x1="584" y1="495" x2="584" y2="493"/>
  <path class="p5" d="M 605 492 L 604 490 L 594 491 L 594 493 L 605 492"/>
  <path class="p5" d="M 604 490 L 604 488 L 594 489 L 594 491 L 604 490"/>
  <path class="p5" d="M 594 493 L 594 491 L 584 492 L 584 493 L 594 493"/>
  <line x1="584" y1="493" x2="584" y2="492"/>
  <path class="p5" d="M 594 491 L 594 489 L 583 490 L 584 492 L 594 491"/>
  <line x1="584" y1="492" x2="583" y2="490"/>
  <path class="p5" d="M 604 488 L 604 486 L 594 487 L 594 489 L 604 488"/>
  <path class="p5" d="M 604 486 L 604 484 L 593 485 L 594 487 L 604 486"/>
  <path class="p5" d="M 594 489 L 594 487 L 583 488 L 583 490 L 594 489"/>
  <line x1="583" y1="490" x2="583" y2="488"/>
  <path class="p5" d="M 594 487 L 593 485 L 583 487 L 583 488 L 594 487"/>
  <line x1="583" y1="488" x2="583" y2="487"/>
  <path class="p5" d="M 604 484 L 603 482 L 593 483 L 593 485 L 604 484"/>
  <path class="p5" d="M 603 482 L 603 480 L 593 482 L 593 483 L 603 482"/>
  <path class="p5" d="M 593 485 L 593 483 L 583 485 L 583 487 L 593 485"/>
  <line x1="583" y1="487" x2="583" y2="485"/>
  <path class="p5" d="M 593 483 L 593 482 L 582 484 L 583 485 L 593 483"/>
  <line x1="583" y1="485" x2="582" y2="484"/>
  <path class="p5" d="M 603 480 L 603 477 L 592 480 L 593 482 L 603 480"/>
  <path class="p5" d="M 603 477 L 602 475 L 592 478 L 592 480 L 603 477"/>
  <path class="p5" d="M 593 482 L 592 480 L 582 482 L 582 484 L 593 482"/>
  <line x1="582" y1="484" x2="582" y2="482"/>
  <path class="p5" d="M 592 480 L 592 478 L 582 480 L 582 482 L 592 480"/>
  <line x1="582" y1="482" x2="582" y2="480"/>
  <path class="p5" d="M 602 475 L 602 473 L 591 476 L 592 478 L 602 475"/>
  <path class="p5" d="M 602 473 L 601 471 L 591 474 L 591 476 L 602 473"/>
  <path class="p5" d="M 592 478 L 591 476 L 581 479 L 582 480 L 592 478"/>
  <line x1="582" y1="480" x2="581" y2="479"/>
  <path class="p5" d="M 591 476 L 591 474 L 581 477 L 581 479 L 591 476"/>
  <line x1="581" y1="479" x2="581" y2="477"/>
  <path class="p5" d="M 601 471 L 600 470 L 590 473 L 591 474 L 601 471"/>
  <path class="p5" d="M 600 470 L 600 468 L 590 471 L 590 473 L 600 470"/>
  <path class="p5" d="M 591 474 L 590 473 L 580 476 L 581 477 L 591 474"/>
  <line x1="581" y1="477" x2="580" y2="476"/>
  <path class="p5" d="M 590 473 L 590 471 L 580 474 L 580 476 L 590 473"/>
  <line x1="580" y1="476" x2="580" y2="474"/>
  <path class="p5" d="M 600 468 L 599 466 L 589 469 L 590 471 L 600 468"/>
  <path class="p5" d="M 599 466 L 599 464 L 589 467 L 589 469 L 599 466"/>
  <path class="p5" d="M 590 471 L 589 469 L 579 472 L 580 474 L 590 471"/>
  <line x1="580" y1="474" x2="579" y2="472"/>
  <path class="p5" d="M 589 469 L 589 467 L 579 471 L 579 472 L 589 469"/>
  <line x1="579" y1="472" x2="579" y2="471"/>
  <path class="p5" d="M 599 464 L 598 462 L 588 466 L 589 467 L 599 464"/>
  <path class="p5" d="M 598 462 L 597 460 L 587 464 L 588 466 L 598 462"/>
  <path class="p5" d="M 589 467 L 588 466 L 578 469 L 579 471 L 589 467"/>
  <line x1="579" y1="471" x2="578" y2="469"/>
  <path class="p5" d="M 588 466 L 587 464 L 578 468 L 578 469 L 588 466"/>
  <line x1="578" y1="469" x2="578" y2="468"/>
  <path class="p5" d="M 597 460 L 596 458 L 587 462 L 587 464 L 597 460"/>
  <path class="p5" d="M 596 458 L 595 456 L 586 460 L 587 462 L 596 458"/>
  <path class="p5" d="M 587 464 L 587 462 L 577 466 L 578 468 L 587 464"/>
  <line x1="578" y1="468" x2="577" y2="466"/>
  <path class="p5" d="M 587 462 L 586 460 L 576 465 L 577 466 L 587 462"/>
  <line x1="577" y1="466" x2="576" y2="465"/>
  <path class="p5" d="M 595 456 L 594 454 L 585 459 L 586 460 L 595 456"/>
  <path class="p5" d="M 594 454 L 594 452 L 584 457 L 585 459 L 594 454"/>
  <path class="p5" d="M 586 460 L 585 459 L 576 463 L 576 465 L 586 460"/>
  <line x1="576" y1="465" x2="576" y2="463"/>
  <path class="p5" d="M 585 459 L 584 457 L 575 462 L 576 463 L 585 459"/>
  <line x1="576" y1="463" x2="575" y2="462"/>
  <path class="p5" d="M 594 452 L 593 451 L 583 455 L 584 457 L 594 452"/>
  <path class="p5" d="M 593 451 L 592 449 L 582 454 L 583 455 L 593 451"/>
  <path class="p5" d="M 584 457 L 583 455 L 574 460 L 575 462 L 584 457"/>
  <line x1="575" y1="462" x2="574" y2="460"/>
  <path class="p5" d="M 583 455 L 582 454 L 573 459 L 574 460 L 583 455"/>
  <line x1="574" y1="460" x2="573" y2="459"/>
  <path class="p5" d="M 592 449 L 591 447 L 582 452 L 582 454 L 592 449"/>
  <path class="p5" d="M 591 447 L 590 445 L 581 451 L 582 452 L 591 447"/>
  <path class="p5" d="M 582 454 L 582 452 L 572 458 L 573 459 L 582 454"/>
  <line x1="573" y1="459" x2="572" y2="458"/>
  <path class="p5" d="M 582 452 L 581 451 L 572 456 L 572 458 L 582 452"/>
  <line x1="572" y1="458" x2="572" y2="456"/>
  <path class="p5" d="M 590 445 L 588 443 L 580 449 L 581 451 L 590 445"/>
  <path class="p5" d="M 588 443 L 587 442 L 579 447 L 580 449 L 588 443"/>
  <path class="p5" d="M 581 451 L 580 449 L 571 455 L 572 456 L 581 451"/>
  <line x1="572" y1="456" x2="571" y2="455"/>
  <path class="p5" d="M 580 449 L 579 447 L 570 453 L 571 455 L 580 449"/>
  <line x1="571" y1="455" x2="570" y2="453"/>
  <path class="p5" d="M 587 442 L 586 440 L 578 446 L 579 447 L 587 442"/>
  <path class="p5" d="M 586 440 L 585 438 L 576 444 L 578 446 L 586 440"/>
  <path class="p5" d="M 579 447 L 578 446 L 569 452 L 570 453 L 579 447"/>
  <line x1="570" y1="453" x2="569" y2="452"/>
  <path class="p5" d="M 578 446 L 576 444 L 568 451 L 569 452 L 578 446"/>
  <line x1="569" y1="452" x2="568" y2="451"/>
  <path class="p5" d="M 585 438 L 584 437 L 575 443 L 576 444 L 585 438"/>
  <path class="p5" d="M 584 437 L 582 435 L 574 441 L 575 443 L 584 437"/>
  <path class="p5" d="M 576 444 L 575 443 L 567 449 L 568 451 L 576 444"/>
  <line x1="568" y1="451" x2="567" y2="449"/>
  <path class="p5" d="M 575 443 L 574 441 L 566 448 L 567 449 L 575 443"/>
  <line x1="567" y1="449" x2="566" y2="448"/>
  <path class="p5" d="M 582 435 L 581 433 L 573 440 L 574 441 L 582 435"/>
  <path class="p5" d="M 581 433 L 580 432 L 572 439 L 573 440 L 581 433"/>
  <path class="p5" d="M 574 441 L 573 440 L 565 447 L 566 448 L 574 441"/>
  <line x1="566" y1="448" x2="565" y2="447"/>
  <path class="p5" d="M 573 440 L 572 439 L 564 445 L 565 447 L 573 440"/>
  <line x1="565" y1="447" x2="564" y2="445"/>
  <path class="p5" d="M 580 432 L 578 430 L 571 437 L 572 439 L 580 432"/>
  <path class="p5" d="M 578 430 L 577 429 L 569 436 L 571 437 L 578 430"/>
  <path class="p5" d="M 572 439 L 571 437 L 563 444 L 564 445 L 572 439"/>
  <line x1="564" y1="445" x2="563" y2="444"/>
  <path class="p5" d="M 571 437 L 569 436 L 562 443 L 563 444 L 571 437"/>
  <line x1="563" y1="444" x2="562" y2="443"/>
  <path class="p5" d="M 577 429 L 576 427 L 568 435 L 569 436 L 577 429"/>
  <path class="p5" d="M 576 427 L 574 426 L 567 433 L 568 435 L 576 427"/>
  <path class="p5" d="M 569 436 L 568 435 L 561 442 L 562 443 L 569 436"/>
  <line x1="562" y1="443" x2="561" y2="442"/>
  <path class="p5" d="M 568 435 L 567 433 L 559 441 L 561 442 L 568 435"/>
  <line x1="561" y1="442" x2="559" y2="441"/>
  <path class="p5" d="M 574 426 L 573 424 L 565 432 L 567 433 L 574 426"/>
  <path class="p5" d="M 573 424 L 571 423 L 564 431 L 565 432 L 573 424"/>
  <path class="p5" d="M 567 433 L 565 432 L 558 439 L 559 441 L 567 433"/>
  <line x1="559" y1="441" x2="558" y2="439"/>
  <path class="p5" d="M 565 432 L 564 431 L 557 438 L 558 439 L 565 432"/>
  <line x1="558" y1="439" x2="557" y2="438"/>
  <path class="p5" d="M 571 423 L 570 422 L 563 429 L 564 431 L 571 423"/>
  <path class="p5" d="M 570 422 L 568 420 L 561 428 L 563 429 L 570 422"/>
  <path class="p5" d="M 564 431 L 563 429 L 556 437 L 557 438 L 564 431"/>
  <line x1="557" y1="438" x2="556" y2="437"/>
  <path class="p5" d="M 563 429 L 561 428 L 555 436 L 556 437 L 563 429"/>
  <line x1="556" y1="437" x2="555" y2="436"/>
  <path class="p5" d="M 568 420 L 567 419 L 560 427 L 561 428 L 568 420"/>
  <path class="p5" d="M 567 419 L 565 418 L 559 426 L 560 427 L 567 419"/>
  <path class="p5" d="M 561 428 L 560 427 L 553 435 L 555 436 L 561 428"/>
  <line x1="555" y1="436" x2="553" y2="435"/>
  <path class="p5" d="M 560 427 L 559 426 L 552 434 L 553 435 L 560 427"/>
  <line x1="553" y1="435" x2="552" y2="434"/>
  <path class="p5" d="M 565 418 L 563 416 L 557 425 L 559 426 L 565 418"/>
  <path class="p5" d="M 563 416 L 562 415 L 556 424 L 557 425 L 563 416"/>
  <path class="p5" d="M 559 426 L 557 425 L 551 433 L 552 434 L 559 426"/>
  <line x1="552" y1="434" x2="551" y2="433"/>
  <path class="p5" d="M 557 425 L 556 424 L 549 432 L 551 433 L 557 425"/>
  <line x1="551" y1="433" x2="549" y2="432"/>
  <path class="p5" d="M 562 415 L 560 414 L 554 422 L 556 424 L 562 415"/>
  <path class="p5" d="M 560 414 L 558 413 L 553 421 L 554 422 L 560 414"/>
  <path class="p5" d="M 556 424 L 554 422 L 548 431 L 549 432 L 556 424"/>
  <line x1="549" y1="432" x2="548" y2="431"/>
  <path class="p5" d="M 554 422 L 553 421 L 547 430 L 548 431 L 554 422"/>
  <line x1="548" y1="431" x2="547" y2="430"/>
  <path class="p5" d="M 558 413 L 557 412 L 551 420 L 553 421 L 558 413"/>
  <path class="p5" d="M 557 412 L 555 410 L 549 419 L 551 420 L 557 412"/>
  <path class="p5" d="M 553 421 L 551 420 L 545 429 L 547 430 L 553 421"/>
  <line x1="547" y1="430" x2="545" y2="429"/>
  <path class="p5" d="M 551 420 L 549 419 L 544 428 L 545 429 L 551 420"/>
  <line x1="545" y1="429" x2="544" y2="428"/>
  <path class="p5" d="M 555 410 L 553 409 L 548 418 L 549 419 L 555 410"/>
  <path class="p5" d="M 553 409 L 551 408 L 546 418 L 548 418 L 553 409"/>
  <path class="p5" d="M 549 419 L 548 418 L 542 428 L 544 428 L 549 419"/>
  <line x1="544" y1="428" x2="542" y2="428"/>
  <path class="p5" d="M 548 418 L 546 418 L 541 427 L 542 428 L 548 418"/>
  <line x1="542" y1="428" x2="541" y2="427"/>
  <path class="p5" d="M 551 408 L 549 407 L 545 417 L 546 418 L 551 408"/>
  <path class="p5" d="M 549 407 L 548 406 L 543 416 L 545 417 L 549 407"/>
  <path class="p5" d="M 546 418 L 545 417 L 540 426 L 541 427 L 546 418"/>
  <line x1="541" y1="427" x2="540" y2="426"/>
  <path class="p5" d="M 545 417 L 543 416 L 538 425 L 540 426 L 545 417"/>
  <line x1="540" y1="426" x2="538" y2="425"/>
  <path class="p5" d="M 548 406 L 546 406 L 541 415 L 543 416 L 548 406"/>
  <path class="p5" d="M 546 406 L 544 405 L 540 414 L 541 415 L 546 406"/>
  <path class="p5" d="M 543 416 L 541 415 L 537 424 L 538 425 L 543 416"/>
  <line x1="538" y1="425" x2="537" y2="424"/>
  <path class="p5" d="M 541 415 L 540 414 L 535 424 L 537 424 L 541 415"/>
  <line x1="537" y1="424" x2="535" y2="424"/>
  <path class="p5" d="M 544 405 L 542 404 L 538 413 L 540 414 L 544 405"/>
  <path class="p5" d="M 542 404 L 540 403 L 536 413 L 538 413 L 542 404"/>
  <path class="p5" d="M 540 414 L 538 413 L 534 423 L 535 424 L 540 414"/>
  <line x1="535" y1="424" x2="534" y2="423"/>
  <path class="p5" d="M 538 413 L 536 413 L 532 422 L 534 423 L 538 413"/>
  <line x1="534" y1="423" x2="532" y2="422"/>
  <path class="p5" d="M 540 403 L 538 402 L 534 412 L 536 413 L 540 403"/>
  <path class="p5" d="M 538 402 L 536 401 L 533 411 L 534 412 L 538 402"/>
  <path class="p5" d="M 536 413 L 534 412 L 531 422 L 532 422 L 536 413"/>
  <line x1="532" y1="422" x2="531" y2="422"/>
  <path class="p5" d="M 534 412 L 533 411 L 529 421 L 531 422 L 534 412"/>
  <line x1="531" y1="422" x2="529" y2="421"/>
  <path class="p5" d="M 536 401 L 534 401 L 531 411 L 533 411 L 536 401"/>
  <path class="p5" d="M 534 401 L 532 400 L 529 410 L 531 411 L 534 401"/>
  <path class="p5" d="M 533 411 L 531 411 L 528 421 L 529 421 L 533 411"/>
  <line x1="529" y1="421" x2="528" y2="421"/>
  <path class="p5" d="M 531 411 L 529 410 L 526 420 L 528 421 L 531 411"/>
  <line x1="528" y1="421" x2="526" y2="420"/>
  <path class="p5" d="M 532 400 L 530 400 L 527 410 L 529 410 L 532 400"/>
  <path class="p5" d="M 530 400 L 529 399 L 526 409 L 527 410 L 530 400"/>
  <path class="p5" d="M 529 410 L 527 410 L 524 420 L 526 420 L 529 410"/>
  <line x1="526" y1="420" x2="524" y2="420"/>
  <path class="p5" d="M 527 410 L 526 409 L 523 419 L 524 420 L 527 410"/>
  <line x1="524" y1="420" x2="523" y2="419"/>
  <path class="p5" d="M 529 399 L 527 398 L 524 409 L 526 409 L 529 399"/>
  <path class="p5" d="M 527 398 L 525 398 L 522 408 L 524 409 L 527 398"/>
  <path class="p5" d="M 526 409 L 524 409 L 521 419 L 523 419 L 526 409"/>
  <line x1="523" y1="419" x2="521" y2="419"/>
  <path class="p5" d="M 524 409 L 522 408 L 520 418 L 521 419 L 524 409"/>
  <line x1="521" y1="419" x2="520" y2="418"/>
  <path class="p5" d="M 525 398 L 523 397 L 520 408 L 522 408 L 525 398"/>
  <path class="p5" d="M 523 397 L 520 397 L 518 407 L 520 408 L 523 397"/>
  <path class="p5" d="M 522 408 L 520 408 L 518 418 L 520 418 L 522 408"/>
  <line x1="520" y1="418" x2="518" y2="418"/>
  <path class="p5" d="M 520 408 L 518 407 L 516 418 L 518 418 L 520 408"/>
  <line x1="518" y1="418" x2="516" y2="418"/>
  <path class="p5" d="M 520 397 L 518 397 L 517 407 L 518 407 L 520 397"/>
  <path class="p5" d="M 518 397 L 516 396 L 515 407 L 517 407 L 518 397"/>
  <path class="p5" d="M 518 407 L 517 407 L 515 417 L 516 418 L 518 407"/>
  <line x1="516" y1="418" x2="515" y2="417"/>
  <path class="p5" d="M 517 407 L 515 407 L 513 417 L 515 417 L 517 407"/>
  <line x1="515" y1="417" x2="513" y2="417"/>
  <path class="p5" d="M 516 396 L 514 396 L 513 406 L 515 407 L 516 396"/>
  <path class="p5" d="M 514 396 L 512 396 L 511 406 L 513 406 L 514 396"/>
  <path class="p5" d="M 515 407 L 513 406 L 512 417 L 513 417 L 515 407"/>
  <line x1="513" y1="417" x2="512" y2="417"/>
  <path class="p5" d="M 513 406 L 511 406 L 510 417 L 512 417 L 513 406"/>
  <line x1="512" y1="417" x2="510" y2="417"/>
  <path class="p5" d="M 512 396 L 510 396 L 509 406 L 511 406 L 512 396"/>
  <path class="p5" d="M 510 396 L 508 395 L 507 406 L 509 406 L 510 396"/>
  <path class="p5" d="M 511 406 L 509 406 L 508 416 L 510 417 L 511 406"/>
  <line x1="510" y1="417" x2="508" y2="416"/>
  <path class="p5" d="M 509 406 L 507 406 L 507 416 L 508 416 L 509 406"/>
  <line x1="508" y1="416" x2="507" y2="416"/>
  <path class="p5" d="M 508 395 L 506 395 L 506 406 L 507 406 L 508 395"/>
  <path class="p5" d="M 506 395 L 504 395 L 504 406 L 506 406 L 506 395"/>
  <path class="p5" d="M 507 406 L 506 406 L 505 416 L 507 416 L 507 406"/>
  <line x1="507" y1="416" x2="505" y2="416"/>
  <path class="p5" d="M 506 406 L 504 406 L 503 416 L 505 416 L 506 406"/>
  <line x1="505" y1="416" x2="503" y2="416"/>
  <path class="p5" d="M 504 395 L 502 395 L 502 406 L 504 406 L 504 395"/>
  <path class="p5" d="M 502 395 L 500 395 L 500 405 L 502 406 L 502 395"/>
  <path class="p5" d="M 504 406 L 502 406 L 502 416 L 503 416 L 504 406"/>
  <line x1="503" y1="416" x2="502" y2="416"/>
  <path class="p5" d="M 502 406 L 500 405 L 500 416 L 502 416 L 502 406"/>
  <line x1="502" y1="416" x2="500" y2="416"/>
  <path class="p5" d="M 500 395 L 498 395 L 498 406 L 500 405 L 500 395"/>
  <path class="p5" d="M 498 395 L 496 395 L 496 406 L 498 406 L 498 395"/>
  <path class="p5" d="M 500 405 L 498 406 L 498 416 L 500 416 L 500 405"/>
  <line x1="500" y1="416" x2="498" y2="416"/>
  <path class="p5" d="M 498 406 L 496 406 L 497 416 L 498 416 L 498 406"/>
  <line x1="498" y1="416" x2="497" y2="416"/>
  <path class="p5" d="M 496 395 L 494 395 L 494 406 L 496 406 L 496 395"/>
  <path class="p5" d="M 494 395 L 492 395 L 493 406 L 494 406 L 494 395"/>
  <path class="p5" d="M 496 406 L 494 406 L 495 416 L 497 416 L 496 406"/>
  <line x1="497" y1="416" x2="495" y2="416"/>
  <path class="p5" d="M 494 406 L 493 406 L 493 416 L 495 416 L 494 406"/>
  <line x1="495" y1="416" x2="493" y2="416"/>
  <path class="p5" d="M 492 395 L 490 396 L 491 406 L 493 406 L 492 395"/>
  <path class="p5" d="M 490 396 L 488 396 L 489 406 L 491 406 L 490 396"/>
  <path class="p5" d="M 493 406 L 491 406 L 492 416 L 493 416 L 493 406"/>
  <line x1="493" y1="416" x2="492" y2="416"/>
  <path class="p5" d="M 491 406 L 489 406 L 490 417 L 492 416 L 491 406"/>
  <line x1="492" y1="416" x2="490" y2="417"/>
  <path class="p5" d="M 488 396 L 486 396 L 487 406 L 489 406 L 488 396"/>
  <path class="p5" d="M 486 396 L 484 396 L 485 407 L 487 406 L 486 396"/>
  <path class="p5" d="M 489 406 L 487 406 L 488 417 L 490 417 L 489 406"/>
  <line x1="490" y1="417" x2="488" y2="417"/>
  <path class="p5" d="M 487 406 L 485 407 L 487 417 L 488 417 L 487 406"/>
  <line x1="488" y1="417" x2="487" y2="417"/>
  <path class="p5" d="M 484 396 L 482 397 L 483 407 L 485 407 L 484 396"/>
  <path class="p5" d="M 482 397 L 480 397 L 482 407 L 483 407 L 482 397"/>
  <path class="p5" d="M 485 407 L 483 407 L 485 417 L 487 417 L 485 407"/>
  <line x1="487" y1="417" x2="485" y2="417"/>
  <path class="p5" d="M 483 407 L 482 407 L 484 418 L 485 417 L 483 407"/>
  <line x1="485" y1="417" x2="484" y2="418"/>
  <path class="p5" d="M 480 397 L 477 397 L 480 408 L 482 407 L 480 397"/>
  <path class="p5" d="M 477 397 L 475 398 L 478 408 L 480 408 L 477 397"/>
  <path class="p5" d="M 482 407 L 480 408 L 482 418 L 484 418 L 482 407"/>
  <line x1="484" y1="418" x2="482" y2="418"/>
  <path class="p5" d="M 480 408 L 478 408 L 480 418 L 482 418 L 480 408"/>
  <line x1="482" y1="418" x2="480" y2="418"/>
  <path class="p5" d="M 475 398 L 473 398 L 476 409 L 478 408 L 475 398"/>
  <path class="p5" d="M 473 398 L 471 399 L 474 409 L 476 409 L 473 398"/>
  <path class="p5" d="M 478 408 L 476 409 L 479 419 L 480 418 L 478 408"/>
  <line x1="480" y1="418" x2="479" y2="419"/>
  <path class="p5" d="M 476 409 L 474 409 L 477 419 L 479 419 L 476 409"/>
  <line x1="479" y1="419" x2="477" y2="419"/>
  <path class="p5" d="M 471 399 L 470 400 L 473 410 L 474 409 L 471 399"/>
  <path class="p5" d="M 470 400 L 468 400 L 471 410 L 473 410 L 470 400"/>
  <path class="p5" d="M 474 409 L 473 410 L 476 420 L 477 419 L 474 409"/>
  <line x1="477" y1="419" x2="476" y2="420"/>
  <path class="p5" d="M 473 410 L 471 410 L 474 420 L 476 420 L 473 410"/>
  <line x1="476" y1="420" x2="474" y2="420"/>
  <path class="p5" d="M 468 400 L 466 401 L 469 411 L 471 410 L 468 400"/>
  <path class="p5" d="M 466 401 L 464 401 L 467 411 L 469 411 L 466 401"/>
  <path class="p5" d="M 471 410 L 469 411 L 472 421 L 474 420 L 471 410"/>
  <line x1="474" y1="420" x2="472" y2="421"/>
  <path class="p5" d="M 469 411 L 467 411 L 471 421 L 472 421 L 469 411"/>
  <line x1="472" y1="421" x2="471" y2="421"/>
  <path class="p5" d="M 464 401 L 462 402 L 466 412 L 467 411 L 464 401"/>
  <path class="p5" d="M 462 402 L 460 403 L 464 413 L 466 412 L 462 402"/>
  <path class="p5" d="M 467 411 L 466 412 L 469 422 L 471 421 L 467 411"/>
  <line x1="471" y1="421" x2="469" y2="422"/>
  <path class="p5" d="M 466 412 L 464 413 L 468 422 L 469 422 L 466 412"/>
  <line x1="469" y1="422" x2="468" y2="422"/>
  <path class="p5" d="M 460 403 L 458 404 L 462 413 L 464 413 L 460 403"/>
  <path class="p5" d="M 458 404 L 456 405 L 460 414 L 462 413 L 458 404"/>
  <path class="p5" d="M 464 413 L 462 413 L 466 423 L 468 422 L 464 413"/>
  <line x1="468" y1="422" x2="466" y2="423"/>
  <path class="p5" d="M 462 413 L 460 414 L 465 424 L 466 423 L 462 413"/>
  <line x1="466" y1="423" x2="465" y2="424"/>
  <path class="p5" d="M 456 405 L 454 406 L 459 415 L 460 414 L 456 405"/>
  <path class="p5" d="M 454 406 L 452 406 L 457 416 L 459 415 L 454 406"/>
  <path class="p5" d="M 460 414 L 459 415 L 463 424 L 465 424 L 460 414"/>
  <line x1="465" y1="424" x2="463" y2="424"/>
  <path class="p5" d="M 459 415 L 457 416 L 462 425 L 463 424 L 459 415"/>
  <line x1="463" y1="424" x2="462" y2="425"/>
  <path class="p5" d="M 452 406 L 451 407 L 455 417 L 457 416 L 452 406"/>
  <path class="p5" d="M 451 407 L 449 408 L 454 418 L 455 417 L 451 407"/>
  <path class="p5" d="M 457 416 L 455 417 L 460 426 L 462 425 L 457 416"/>
  <line x1="462" y1="425" x2="460" y2="426"/>
  <path class="p5" d="M 455 417 L 454 418 L 459 427 L 460 426 L 455 417"/>
  <line x1="460" y1="426" x2="459" y2="427"/>
  <path class="p5" d="M 449 408 L 447 409 L 452 418 L 454 418 L 449 408"/>
  <path class="p5" d="M 447 409 L 445 410 L 451 419 L 452 418 L 447 409"/>
  <path class="p5" d="M 454 418 L 452 418 L 458 428 L 459 427 L 454 418"/>
  <line x1="459" y1="427" x2="458" y2="428"/>
  <path class="p5" d="M 452 418 L 451 419 L 456 428 L 458 428 L 452 418"/>
  <line x1="458" y1="428" x2="456" y2="428"/>
  <path class="p5" d="M 445 410 L 443 412 L 449 420 L 451 419 L 445 410"/>
  <path class="p5" d="M 443 412 L 442 413 L 447 421 L 449 420 L 443 412"/>
  <path class="p5" d="M 451 419 L 449 420 L 455 429 L 456 428 L 451 419"/>
  <line x1="456" y1="428" x2="455" y2="429"/>
  <path class="p5" d="M 449 420 L 447 421 L 453 430 L 455 429 L 449 420"/>
  <line x1="455" y1="429" x2="453" y2="430"/>
  <path class="p5" d="M 442 413 L 440 414 L 446 422 L 447 421 L 442 413"/>
  <path class="p5" d="M 440 414 L 438 415 L 444 424 L 446 422 L 440 414"/>
  <path class="p5" d="M 447 421 L 446 422 L 452 431 L 453 430 L 447 421"/>
  <line x1="453" y1="430" x2="452" y2="431"/>
  <path class="p5" d="M 446 422 L 444 424 L 451 432 L 452 431 L 446 422"/>
  <line x1="452" y1="431" x2="451" y2="432"/>
  <path class="p5" d="M 438 415 L 437 416 L 443 425 L 444 424 L 438 415"/>
  <path class="p5" d="M 437 416 L 435 418 L 441 426 L 443 425 L 437 416"/>
  <path class="p5" d="M 444 424 L 443 425 L 449 433 L 451 432 L 444 424"/>
  <line x1="451" y1="432" x2="449" y2="433"/>
  <path class="p5" d="M 443 425 L 441 426 L 448 434 L 449 433 L 443 425"/>
  <line x1="449" y1="433" x2="448" y2="434"/>
  <path class="p5" d="M 435 418 L 433 419 L 440 427 L 441 426 L 435 418"/>
  <path class="p5" d="M 433 419 L 432 420 L 439 428 L 440 427 L 433 419"/>
  <path class="p5" d="M 441 426 L 440 427 L 447 435 L 448 434 L 441 426"/>
  <line x1="448" y1="434" x2="447" y2="435"/>
  <path class="p5" d="M 440 427 L 439 428 L 445 436 L 447 435 L 440 427"/>
  <line x1="447" y1="435" x2="445" y2="436"/>
  <path class="p5" d="M 432 420 L 430 422 L 437 429 L 439 428 L 432 420"/>
  <path class="p5" d="M 430 422 L 429 423 L 436 431 L 437 429 L 430 422"/>
  <path class="p5" d="M 439 428 L 437 429 L 444 437 L 445 436 L 439 428"/>
  <line x1="445" y1="436" x2="444" y2="437"/>
  <path class="p5" d="M 437 429 L 436 431 L 443 438 L 444 437 L 437 429"/>
  <line x1="444" y1="437" x2="443" y2="438"/>
  <path class="p5" d="M 429 423 L 427 424 L 435 432 L 436 431 L 429 423"/>
  <path class="p5" d="M 427 424 L 426 426 L 433 433 L 435 432 L 427 424"/>
  <path class="p5" d="M 436 431 L 435 432 L 442 439 L 443 438 L 436 431"/>
  <line x1="443" y1="438" x2="442" y2="439"/>
  <path class="p5" d="M 435 432 L 433 433 L 441 441 L 442 439 L 435 432"/>
  <line x1="442" y1="439" x2="441" y2="441"/>
  <path class="p5" d="M 426 426 L 424 427 L 432 435 L 433 433 L 426 426"/>
  <path class="p5" d="M 424 427 L 423 429 L 431 436 L 432 435 L 424 427"/>
  <path class="p5" d="M 433 433 L 432 435 L 439 442 L 441 441 L 433 433"/>
  <line x1="441" y1="441" x2="439" y2="442"/>
  <path class="p5" d="M 432 435 L 431 436 L 438 443 L 439 442 L 432 435"/>
  <line x1="439" y1="442" x2="438" y2="443"/>
  <path class="p5" d="M 423 429 L 422 430 L 429 437 L 431 436 L 423 429"/>
  <path class="p5" d="M 422 430 L 420 432 L 428 439 L 429 437 L 422 430"/>
  <path class="p5" d="M 431 436 L 429 437 L 437 444 L 438 443 L 431 436"/>
  <line x1="438" y1="443" x2="437" y2="444"/>
  <path class="p5" d="M 429 437 L 428 439 L 436 445 L 437 444 L 429 437"/>
  <line x1="437" y1="444" x2="436" y2="445"/>
  <path class="p5" d="M 420 432 L 419 433 L 427 440 L 428 439 L 420 432"/>
  <path class="p5" d="M 419 433 L 418 435 L 426 441 L 427 440 L 419 433"/>
  <path class="p5" d="M 428 439 L 427 440 L 435 447 L 436 445 L 428 439"/>
  <line x1="436" y1="445" x2="435" y2="447"/>
  <path class="p5" d="M 427 440 L 426 441 L 434 448 L 435 447 L 427 440"/>
  <line x1="435" y1="447" x2="434" y2="448"/>
  <path class="p5" d="M 418 435 L 416 437 L 425 443 L 426 441 L 418 435"/>
  <path class="p5" d="M 416 437 L 415 438 L 424 444 L 425 443 L 416 437"/>
  <path class="p5" d="M 426 441 L 425 443 L 433 449 L 434 448 L 426 441"/>
  <line x1="434" y1="448" x2="433" y2="449"/>
  <path class="p5" d="M 425 443 L 424 444 L 432 451 L 433 449 L 425 443"/>
  <line x1="433" y1="449" x2="432" y2="451"/>
  <path class="p5" d="M 415 438 L 414 440 L 422 446 L 424 444 L 415 438"/>
  <path class="p5" d="M 414 440 L 413 442 L 421 447 L 422 446 L 414 440"/>
  <path class="p5" d="M 424 444 L 422 446 L 431 452 L 432 451 L 424 444"/>
  <line x1="432" y1="451" x2="431" y2="452"/>
  <path class="p5" d="M 422 446 L 421 447 L 430 453 L 431 452 L 422 446"/>
  <line x1="431" y1="452" x2="430" y2="453"/>
  <path class="p5" d="M 413 442 L 412 443 L 420 449 L 421 447 L 413 442"/>
  <path class="p5" d="M 412 443 L 410 445 L 419 451 L 420 449 L 412 443"/>
  <path class="p5" d="M 421 447 L 420 449 L 429 455 L 430 453 L 421 447"/>
  <line x1="430" y1="453" x2="429" y2="455"/>
  <path class="p5" d="M 420 449 L 419 451 L 428 456 L 429 455 L 420 449"/>
  <line x1="429" y1="455" x2="428" y2="456"/>
  <path class="p5" d="M 410 445 L 409 447 L 418 452 L 419 451 L 410 445"/>
  <path class="p5" d="M 409 447 L 408 449 L 418 454 L 418 452 L 409 447"/>
  <path class="p5" d="M 419 451 L 418 452 L 428 458 L 428 456 L 419 451"/>
  <line x1="428" y1="456" x2="428" y2="458"/>
  <path class="p5" d="M 418 452 L 418 454 L 427 459 L 428 458 L 418 452"/>
  <line x1="428" y1="458" x2="427" y2="459"/>
  <path class="p5" d="M 408 449 L 407 451 L 417 455 L 418 454 L 408 449"/>
  <path class="p5" d="M 407 451 L 406 452 L 416 457 L 417 455 L 407 451"/>
  <path class="p5" d="M 418 454 L 417 455 L 426 460 L 427 459 L 418 454"/>
  <line x1="427" y1="459" x2="426" y2="460"/>
  <path class="p5" d="M 417 455 L 416 457 L 425 462 L 426 460 L 417 455"/>
  <line x1="426" y1="460" x2="425" y2="462"/>
  <path class="p5" d="M 406 452 L 406 454 L 415 459 L 416 457 L 406 452"/>
  <path class="p5" d="M 406 454 L 405 456 L 414 460 L 415 459 L 406 454"/>
  <path class="p5" d="M 416 457 L 415 459 L 424 463 L 425 462 L 416 457"/>
  <line x1="425" y1="462" x2="424" y2="463"/>
  <path class="p5" d="M 415 459 L 414 460 L 424 465 L 424 463 L 415 459"/>
  <line x1="424" y1="463" x2="424" y2="465"/>
  <path class="p5" d="M 405 456 L 404 458 L 413 462 L 414 460 L 405 456"/>
  <path class="p5" d="M 404 458 L 403 460 L 413 464 L 413 462 L 404 458"/>
  <path class="p5" d="M 414 460 L 413 462 L 423 466 L 424 465 L 414 460"/>
  <line x1="424" y1="465" x2="423" y2="466"/>
  <path class="p5" d="M 413 462 L 413 464 L 422 468 L 423 466 L 413 462"/>
  <line x1="423" y1="466" x2="422" y2="468"/>
  <path class="p5" d="M 403 460 L 402 462 L 412 466 L 413 464 L 403 460"/>
  <path class="p5" d="M 402 462 L 401 464 L 411 467 L 412 466 L 402 462"/>
  <path class="p5" d="M 413 464 L 412 466 L 422 469 L 422 468 L 413 464"/>
  <line x1="422" y1="468" x2="422" y2="469"/>
  <path class="p5" d="M 412 466 L 411 467 L 421 471 L 422 469 L 412 466"/>
  <line x1="422" y1="469" x2="421" y2="471"/>
  <path class="p5" d="M 401 464 L 401 466 L 411 469 L 411 467 L 401 464"/>
  <path class="p5" d="M 401 466 L 400 468 L 410 471 L 411 469 L 401 466"/>
  <path class="p5" d="M 411 467 L 411 469 L 421 472 L 421 471 L 411 467"/>
  <line x1="421" y1="471" x2="421" y2="472"/>
  <path class="p5" d="M 411 469 L 410 471 L 420 474 L 421 472 L 411 469"/>
  <line x1="421" y1="472" x2="420" y2="474"/>
  <path class="p5" d="M 400 468 L 400 470 L 410 473 L 410 471 L 400 468"/>
  <path class="p5" d="M 400 470 L 399 471 L 409 474 L 410 473 L 400 470"/>
  <path class="p5" d="M 410 471 L 410 473 L 420 476 L 420 474 L 410 471"/>
  <line x1="420" y1="474" x2="420" y2="476"/>
  <path class="p5" d="M 410 473 L 409 474 L 419 477 L 420 476 L 410 473"/>
  <line x1="420" y1="476" x2="419" y2="477"/>
  <path class="p5" d="M 399 471 L 398 473 L 409 476 L 409 474 L 399 471"/>
  <path class="p5" d="M 398 473 L 398 475 L 408 478 L 409 476 L 398 473"/>
  <path class="p5" d="M 409 474 L 409 476 L 419 479 L 419 477 L 409 474"/>
  <line x1="419" y1="477" x2="419" y2="479"/>
  <path class="p5" d="M 409 476 L 408 478 L 418 480 L 419 479 L 409 476"/>
  <line x1="419" y1="479" x2="418" y2="480"/>
  <path class="p5" d="M 398 475 L 397 477 L 408 480 L 408 478 L 398 475"/>
  <path class="p5" d="M 397 477 L 397 480 L 407 482 L 408 480 L 397 477"/>
  <path class="p5" d="M 408 478 L 408 480 L 418 482 L 418 480 L 408 478"/>
  <line x1="418" y1="480" x2="418" y2="482"/>
  <path class="p5" d="M 408 480 L 407 482 L 418 484 L 418 482 L 408 480"/>
  <line x1="418" y1="482" x2="418" y2="484"/>
  <path class="p5" d="M 397 480 L 397 482 L 407 483 L 407 482 L 397 480"/>
  <path class="p5" d="M 397 482 L 396 484 L 407 485 L 407 483 L 397 482"/>
  <path class="p5" d="M 407 482 L 407 483 L 417 485 L 418 484 L 407 482"/>
  <line x1="418" y1="484" x2="417" y2="485"/>
  <path class="p5" d="M 407 483 L 407 485 L 417 487 L 417 485 L 407 483"/>
  <line x1="417" y1="485" x2="417" y2="487"/>
  <path class="p5" d="M 396 484 L 396 486 L 406 487 L 407 485 L 396 484"/>
  <path class="p5" d="M 396 486 L 396 488 L 406 489 L 406 487 L 396 486"/>
  <path class="p5" d="M 407 485 L 406 487 L 417 488 L 417 487 L 407 485"/>
  <line x1="417" y1="487" x2="417" y2="488"/>
  <path class="p5" d="M 406 487 L 406 489 L 417 490 L 417 488 L 406 487"/>
  <line x1="417" y1="488" x2="417" y2="490"/>
  <path class="p5" d="M 396 488 L 396 490 L 406 491 L 406 489 L 396 488"/>
  <path class="p5" d="M 396 490 L 395 492 L 406 493 L 406 491 L 396 490"/>
  <path class="p5" d="M 406 489 L 406 491 L 416 492 L 417 490 L 406 489"/>
  <line x1="417" y1="490" x2="416" y2="492"/>
  <path class="p5" d="M 406 491 L 406 493 L 416 493 L 416 492 L 406 491"/>
  <line x1="416" y1="492" x2="416" y2="493"/>
  <path class="p5" d="M 395 492 L 395 494 L 406 494 L 406 493 L 395 492"/>
  <path class="p5" d="M 395 494 L 395 496 L 406 496 L 406 494 L 395 494"/>
  <path class="p5" d="M 406 493 L 406 494 L 416 495 L 416 493 L 406 493"/>
  <line x1="416" y1="493" x2="416" y2="495"/>
  <path class="p5" d="M 406 494 L 406 496 L 416 497 L 416 495 L 406 494"/>
  <line x1="416" y1="495" x2="416" y2="497"/>
  <path class="p5" d="M 395 496 L 395 498 L 406 498 L 406 496 L 395 496"/>
  <path class="p5" d="M 395 498 L 395 500 L 405 500 L 406 498 L 395 498"/>
  <path class="p5" d="M 406 496 L 406 498 L 416 498 L 416 497 L 406 496"/>
  <line x1="416" y1="497" x2="416" y2="498"/>
  <path class="p5" d="M 406 498 L 405 500 L 416 500 L 416 498 L 406 498"/>
  <line x1="416" y1="498" x2="416" y2="500"/>
  <path class="p5" d="M 395 500 L 395 502 L 406 502 L 405 500 L 395 500"/>
  <path class="p5" d="M 395 502 L 395 504 L 406 504 L 406 502 L 395 502"/>
  <path class="p5" d="M 405 500 L 406 502 L 416 502 L 416 500 L 405 500"/>
  <line x1="416" y1="500" x2="416" y2="502"/>
  <path class="p5" d="M 406 502 L 406 504 L 416 503 L 416 502 L 406 502"/>
  <line x1="416" y1="502" x2="416" y2="503"/>
  <path class="p5" d="M 395 504 L 395 506 L 406 506 L 406 504 L 395 504"/>
  <path class="p5" d="M 395 506 L 395 508 L 406 507 L 406 506 L 395 506"/>
  <path class="p5" d="M 406 504 L 406 506 L 416 505 L 416 503 L 406 504"/>
  <line x1="416" y1="503" x2="416" y2="505"/>
  <path class="p5" d="M 406 506 L 406 507 L 416 507 L 416 505 L 406 506"/>
  <line x1="416" y1="505" x2="416" y2="507"/>
  <path class="p5" d="M 395 508 L 396 510 L 406 509 L 406 507 L 395 508"/>
  <path class="p5" d="M 396 510 L 396 512 L 406 511 L 406 509 L 396 510"/>
  <path class="p5" d="M 406 507 L 406 509 L 416 508 L 416 507 L 406 507"/>
  <line x1="416" y1="507" x2="416" y2="508"/>
  <path class="p5" d="M 406 509 L 406 511 L 417 510 L 416 508 L 406 509"/>
  <line x1="416" y1="508" x2="417" y2="510"/>
  <path class="p5" d="M 396 512 L 396 514 L 406 513 L 406 511 L 396 512"/>
  <path class="p5" d="M 396 514 L 396 516 L 407 515 L 406 513 L 396 514"/>
  <path class="p5" d="M 406 511 L 406 513 L 417 512 L 417 510 L 406 511"/>
  <line x1="417" y1="510" x2="417" y2="512"/>
  <path class="p5" d="M 406 513 L 407 515 L 417 513 L 417 512 L 406 513"/>
  <line x1="417" y1="512" x2="417" y2="513"/>
  <path class="p5" d="M 396 516 L 397 518 L 407 517 L 407 515 L 396 516"/>
  <path class="p5" d="M 397 518 L 397 520 L 407 518 L 407 517 L 397 518"/>
  <path class="p5" d="M 407 515 L 407 517 L 417 515 L 417 513 L 407 515"/>
  <line x1="417" y1="513" x2="417" y2="515"/>
  <path class="p5" d="M 407 517 L 407 518 L 418 516 L 417 515 L 407 517"/>
  <line x1="417" y1="515" x2="418" y2="516"/>
  <path class="p5" d="M 397 520 L 397 523 L 408 520 L 407 518 L 397 520"/>
  <path class="p5" d="M 397 523 L 398 525 L 408 522 L 408 520 L 397 523"/>
  <path class="p5" d="M 407 518 L 408 520 L 418 518 L 418 516 L 407 518"/>
  <line x1="418" y1="516" x2="418" y2="518"/>
  <path class="p5" d="M 408 520 L 408 522 L 418 520 L 418 518 L 408 520"/>
  <line x1="418" y1="518" x2="418" y2="520"/>
  <path class="p5" d="M 398 525 L 398 527 L 409 524 L 408 522 L 398 525"/>
  <path class="p5" d="M 398 527 L 399 529 L 409 526 L 409 524 L 398 527"/>
  <path class="p5" d="M 408 522 L 409 524 L 419 521 L 418 520 L 408 522"/>
  <line x1="418" y1="520" x2="419" y2="521"/>
  <path class="p5" d="M 409 524 L 409 526 L 419 523 L 419 521 L 409 524"/>
  <line x1="419" y1="521" x2="419" y2="523"/>
  <path class="p5" d="M 399 529 L 400 530 L 410 527 L 409 526 L 399 529"/>
  <path class="p5" d="M 400 530 L 400 532 L 410 529 L 410 527 L 400 530"/>
  <path class="p5" d="M 409 526 L 410 527 L 420 524 L 419 523 L 409 526"/>
  <line x1="419" y1="523" x2="420" y2="524"/>
  <path class="p5" d="M 410 527 L 410 529 L 420 526 L 420 524 L 410 527"/>
  <line x1="420" y1="524" x2="420" y2="526"/>
  <path class="p5" d="M 400 532 L 401 534 L 411 531 L 410 529 L 400 532"/>
  <path class="p5" d="M 401 534 L 401 536 L 411 533 L 411 531 L 401 534"/>
  <path class="p5" d="M 410 529 L 411 531 L 421 528 L 420 526 L 410 529"/>
  <line x1="420" y1="526" x2="421" y2="528"/>
  <path class="p5" d="M 411 531 L 411 533 L 421 529 L 421 528 L 411 531"/>
  <line x1="421" y1="528" x2="421" y2="529"/>
  <path class="p5" d="M 401 536 L 402 538 L 412 534 L 411 533 L 401 536"/>
  <path class="p5" d="M 402 538 L 403 540 L 413 536 L 412 534 L 402 538"/>
  <path class="p5" d="M 411 533 L 412 534 L 422 531 L 421 529 L 411 533"/>
  <line x1="421" y1="529" x2="422" y2="531"/>
  <path class="p5" d="M 412 534 L 413 536 L 422 532 L 422 531 L 412 534"/>
  <line x1="422" y1="531" x2="422" y2="532"/>
  <path class="p5" d="M 403 540 L 404 542 L 413 538 L 413 536 L 403 540"/>
  <path class="p5" d="M 404 542 L 405 544 L 414 540 L 413 538 L 404 542"/>
  <path class="p5" d="M 413 536 L 413 538 L 423 534 L 422 532 L 413 536"/>
  <line x1="422" y1="532" x2="423" y2="534"/>
  <path class="p5" d="M 413 538 L 414 540 L 424 535 L 423 534 L 413 538"/>
  <line x1="423" y1="534" x2="424" y2="535"/>
  <path class="p5" d="M 405 544 L 406 546 L 415 541 L 414 540 L 405 544"/>
  <path class="p5" d="M 406 546 L 406 548 L 416 543 L 415 541 L 406 546"/>
  <path class="p5" d="M 414 540 L 415 541 L 424 537 L 424 535 L 414 540"/>
  <line x1="424" y1="535" x2="424" y2="537"/>
  <path class="p5" d="M 415 541 L 416 543 L 425 538 L 424 537 L 415 541"/>
  <line x1="424" y1="537" x2="425" y2="538"/>
  <path class="p5" d="M 406 548 L 407 549 L 417 545 L 416 543 L 406 548"/>
  <path class="p5" d="M 407 549 L 408 551 L 418 546 L 417 545 L 407 549"/>
  <path class="p5" d="M 416 543 L 417 545 L 426 540 L 425 538 L 416 543"/>
  <line x1="425" y1="538" x2="426" y2="540"/>
  <path class="p5" d="M 417 545 L 418 546 L 427 541 L 426 540 L 417 545"/>
  <line x1="426" y1="540" x2="427" y2="541"/>
  <path class="p5" d="M 408 551 L 409 553 L 418 548 L 418 546 L 408 551"/>
  <path class="p5" d="M 409 553 L 410 555 L 419 549 L 418 548 L 409 553"/>
  <path class="p5" d="M 418 546 L 418 548 L 428 542 L 427 541 L 418 546"/>
  <line x1="427" y1="541" x2="428" y2="542"/>
  <path class="p5" d="M 418 548 L 419 549 L 428 544 L 428 542 L 418 548"/>
  <line x1="428" y1="542" x2="428" y2="544"/>
  <path class="p5" d="M 410 555 L 412 557 L 420 551 L 419 549 L 410 555"/>
  <path class="p5" d="M 412 557 L 413 558 L 421 553 L 420 551 L 412 557"/>
  <path class="p5" d="M 419 549 L 420 551 L 429 545 L 428 544 L 419 549"/>
  <line x1="428" y1="544" x2="429" y2="545"/>
  <path class="p5" d="M 420 551 L 421 553 L 430 547 L 429 545 L 420 551"/>
  <line x1="429" y1="545" x2="430" y2="547"/>
  <path class="p5" d="M 413 558 L 414 560 L 422 554 L 421 553 L 413 558"/>
  <path class="p5" d="M 414 560 L 415 562 L 424 556 L 422 554 L 414 560"/>
  <path class="p5" d="M 421 553 L 422 554 L 431 548 L 430 547 L 421 553"/>
  <line x1="430" y1="547" x2="431" y2="548"/>
  <path class="p5" d="M 422 554 L 424 556 L 432 549 L 431 548 L 422 554"/>
  <line x1="431" y1="548" x2="432" y2="549"/>
  <path class="p5" d="M 415 562 L 416 563 L 425 557 L 424 556 L 415 562"/>
  <path class="p5" d="M 416 563 L 418 565 L 426 559 L 425 557 L 416 563"/>
  <path class="p5" d="M 424 556 L 425 557 L 433 551 L 432 549 L 424 556"/>
  <line x1="432" y1="549" x2="433" y2="551"/>
  <path class="p5" d="M 425 557 L 426 559 L 434 552 L 433 551 L 425 557"/>
  <line x1="433" y1="551" x2="434" y2="552"/>
  <path class="p5" d="M 418 565 L 419 567 L 427 560 L 426 559 L 418 565"/>
  <path class="p5" d="M 419 567 L 420 568 L 428 561 L 427 560 L 419 567"/>
  <path class="p5" d="M 426 559 L 427 560 L 435 553 L 434 552 L 426 559"/>
  <line x1="434" y1="552" x2="435" y2="553"/>
  <path class="p5" d="M 427 560 L 428 561 L 436 555 L 435 553 L 427 560"/>
  <line x1="435" y1="553" x2="436" y2="555"/>
  <path class="p5" d="M 420 568 L 422 570 L 429 563 L 428 561 L 420 568"/>
  <path class="p5" d="M 422 570 L 423 571 L 431 564 L 429 563 L 422 570"/>
  <path class="p5" d="M 428 561 L 429 563 L 437 556 L 436 555 L 428 561"/>
  <line x1="436" y1="555" x2="437" y2="556"/>
  <path class="p5" d="M 429 563 L 431 564 L 438 557 L 437 556 L 429 563"/>
  <line x1="437" y1="556" x2="438" y2="557"/>
  <path class="p5" d="M 423 571 L 424 573 L 432 565 L 431 564 L 423 571"/>
  <path class="p5" d="M 424 573 L 426 574 L 433 567 L 432 565 L 424 573"/>
  <path class="p5" d="M 431 564 L 432 565 L 439 558 L 438 557 L 431 564"/>
  <line x1="438" y1="557" x2="439" y2="558"/>
  <path class="p5" d="M 432 565 L 433 567 L 441 559 L 439 558 L 432 565"/>
  <line x1="439" y1="558" x2="441" y2="559"/>
  <path class="p5" d="M 426 574 L 427 576 L 435 568 L 433 567 L 426 574"/>
  <path class="p5" d="M 427 576 L 429 577 L 436 569 L 435 568 L 427 576"/>
  <path class="p5" d="M 433 567 L 435 568 L 442 561 L 441 559 L 433 567"/>
  <line x1="441" y1="559" x2="442" y2="561"/>
  <path class="p5" d="M 435 568 L 436 569 L 443 562 L 442 561 L 435 568"/>
  <line x1="442" y1="561" x2="443" y2="562"/>
  <path class="p5" d="M 429 577 L 430 578 L 437 571 L 436 569 L 429 577"/>
  <path class="p5" d="M 430 578 L 432 580 L 439 572 L 437 571 L 430 578"/>
  <path class="p5" d="M 436 569 L 437 571 L 444 563 L 443 562 L 436 569"/>
  <line x1="443" y1="562" x2="444" y2="563"/>
  <path class="p5" d="M 437 571 L 439 572 L 445 564 L 444 563 L 437 571"/>
  <line x1="444" y1="563" x2="445" y2="564"/>
  <path class="p5" d="M 432 580 L 433 581 L 440 573 L 439 572 L 432 580"/>
  <path class="p5" d="M 433 581 L 435 582 L 441 574 L 440 573 L 433 581"/>
  <path class="p5" d="M 439 572 L 440 573 L 447 565 L 445 564 L 439 572"/>
  <line x1="445" y1="564" x2="447" y2="565"/>
  <path class="p5" d="M 440 573 L 441 574 L 448 566 L 447 565 L 440 573"/>
  <line x1="447" y1="565" x2="448" y2="566"/>
  <path class="p5" d="M 435 582 L 437 584 L 443 575 L 441 574 L 435 582"/>
  <path class="p5" d="M 437 584 L 438 585 L 444 576 L 443 575 L 437 584"/>
  <path class="p5" d="M 441 574 L 443 575 L 449 567 L 448 566 L 441 574"/>
  <line x1="448" y1="566" x2="449" y2="567"/>
  <path class="p5" d="M 443 575 L 444 576 L 451 568 L 449 567 L 443 575"/>
  <line x1="449" y1="567" x2="451" y2="568"/>
  <path class="p5" d="M 438 585 L 440 586 L 446 578 L 444 576 L 438 585"/>
  <path class="p5" d="M 440 586 L 442 587 L 447 579 L 446 578 L 440 586"/>
  <path class="p5" d="M 444 576 L 446 578 L 452 569 L 451 568 L 444 576"/>
  <line x1="451" y1="568" x2="452" y2="569"/>
  <path class="p5" d="M 446 578 L 447 579 L 453 570 L 452 569 L 446 578"/>
  <line x1="452" y1="569" x2="453" y2="570"/>
  <path class="p5" d="M 442 587 L 443 588 L 449 580 L 447 579 L 442 587"/>
  <path class="p5" d="M 443 588 L 445 590 L 451 581 L 449 580 L 443 588"/>
  <path class="p5" d="M 447 579 L 449 580 L 455 571 L 453 570 L 447 579"/>
  <line x1="453" y1="570" x2="455" y2="571"/>
  <path class="p5" d="M 449 580 L 451 581 L 456 572 L 455 571 L 449 580"/>
  <line x1="455" y1="571" x2="456" y2="572"/>
  <path class="p5" d="M 445 590 L 447 591 L 452 582 L 451 581 L 445 590"/>
  <path class="p5" d="M 447 591 L 449 592 L 454 582 L 452 582 L 447 591"/>
  <path class="p5" d="M 451 581 L 452 582 L 458 572 L 456 572 L 451 581"/>
  <line x1="456" y1="572" x2="458" y2="572"/>
  <path class="p5" d="M 452 582 L 454 582 L 459 573 L 458 572 L 452 582"/>
  <line x1="458" y1="572" x2="459" y2="573"/>
  <path class="p5" d="M 449 592 L 451 593 L 455 583 L 454 582 L 449 592"/>
  <path class="p5" d="M 451 593 L 452 594 L 457 584 L 455 583 L 451 593"/>
  <path class="p5" d="M 454 582 L 455 583 L 460 574 L 459 573 L 454 582"/>
  <line x1="459" y1="573" x2="460" y2="574"/>
  <path class="p5" d="M 455 583 L 457 584 L 462 575 L 460 574 L 455 583"/>
  <line x1="460" y1="574" x2="462" y2="575"/>
  <path class="p5" d="M 452 594 L 454 594 L 459 585 L 457 584 L 452 594"/>
  <path class="p5" d="M 454 594 L 456 595 L 460 586 L 459 585 L 454 594"/>
  <path class="p5" d="M 457 584 L 459 585 L 463 576 L 462 575 L 457 584"/>
  <line x1="462" y1="575" x2="463" y2="576"/>
  <path class="p5" d="M 459 585 L 460 586 L 465 576 L 463 576 L 459 585"/>
  <line x1="463" y1="576" x2="465" y2="576"/>
  <path class="p5" d="M 456 595 L 458 596 L 462 587 L 460 586 L 456 595"/>
  <path class="p5" d="M 458 596 L 460 597 L 464 587 L 462 587 L 458 596"/>
  <path class="p5" d="M 460 586 L 462 587 L 466 577 L 465 576 L 460 586"/>
  <line x1="465" y1="576" x2="466" y2="577"/>
  <path class="p5" d="M 462 587 L 464 587 L 468 578 L 466 577 L 462 587"/>
  <line x1="466" y1="577" x2="468" y2="578"/>
  <path class="p5" d="M 460 597 L 462 598 L 466 588 L 464 587 L 460 597"/>
  <path class="p5" d="M 462 598 L 464 599 L 467 589 L 466 588 L 462 598"/>
  <path class="p5" d="M 464 587 L 466 588 L 469 578 L 468 578 L 464 587"/>
  <line x1="468" y1="578" x2="469" y2="578"/>
  <path class="p5" d="M 466 588 L 467 589 L 471 579 L 469 578 L 466 588"/>
  <line x1="469" y1="578" x2="471" y2="579"/>
  <path class="p5" d="M 464 599 L 466 599 L 469 589 L 467 589 L 464 599"/>
  <path class="p5" d="M 466 599 L 468 600 L 471 590 L 469 589 L 466 599"/>
  <path class="p5" d="M 467 589 L 469 589 L 472 579 L 471 579 L 467 589"/>
  <line x1="471" y1="579" x2="472" y2="579"/>
  <path class="p5" d="M 469 589 L 471 590 L 474 580 L 472 579 L 469 589"/>
  <line x1="472" y1="579" x2="474" y2="580"/>
  <path class="p5" d="M 468 600 L 470 600 L 473 590 L 471 590 L 468 600"/>
  <path class="p5" d="M 470 600 L 471 601 L 474 591 L 473 590 L 470 600"/>
  <path class="p5" d="M 471 590 L 473 590 L 476 580 L 474 580 L 471 590"/>
  <line x1="474" y1="580" x2="476" y2="580"/>
  <path class="p5" d="M 473 590 L 474 591 L 477 581 L 476 580 L 473 590"/>
  <line x1="476" y1="580" x2="477" y2="581"/>
  <path class="p5" d="M 471 601 L 473 602 L 476 591 L 474 591 L 471 601"/>
  <path class="p5" d="M 473 602 L 475 602 L 478 592 L 476 591 L 473 602"/>
  <path class="p5" d="M 474 591 L 476 591 L 479 581 L 477 581 L 474 591"/>
  <line x1="477" y1="581" x2="479" y2="581"/>
  <path class="p5" d="M 476 591 L 478 592 L 480 582 L 479 581 L 476 591"/>
  <line x1="479" y1="581" x2="480" y2="582"/>
  <path class="p5" d="M 475 602 L 477 603 L 480 592 L 478 592 L 475 602"/>
  <path class="p5" d="M 477 603 L 480 603 L 482 593 L 480 592 L 477 603"/>
  <path class="p5" d="M 478 592 L 480 592 L 482 582 L 480 582 L 478 592"/>
  <line x1="480" y1="582" x2="482" y2="582"/>
  <path class="p5" d="M 480 592 L 482 593 L 484 582 L 482 582 L 480 592"/>
  <line x1="482" y1="582" x2="484" y2="582"/>
  <path class="p5" d="M 480 603 L 482 603 L 483 593 L 482 593 L 480 603"/>
  <path class="p5" d="M 482 603 L 484 604 L 485 593 L 483 593 L 482 603"/>
  <path class="p5" d="M 482 593 L 483 593 L 485 583 L 484 582 L 482 593"/>
  <line x1="484" y1="582" x2="485" y2="583"/>
  <path class="p5" d="M 483 593 L 485 593 L 487 583 L 485 583 L 483 593"/>
  <line x1="485" y1="583" x2="487" y2="583"/>
  <path class="p5" d="M 484 604 L 486 604 L 487 594 L 485 593 L 484 604"/>
  <path class="p5" d="M 486 604 L 488 604 L 489 594 L 487 594 L 486 604"/>
  <path class="p5" d="M 485 593 L 487 594 L 488 583 L 487 583 L 485 593"/>
  <line x1="487" y1="583" x2="488" y2="583"/>
  <path class="p5" d="M 487 594 L 489 594 L 490 583 L 488 583 L 487 594"/>
  <line x1="488" y1="583" x2="490" y2="583"/>
  <path class="p5" d="M 488 604 L 490 604 L 491 594 L 489 594 L 488 604"/>
  <path class="p5" d="M 490 604 L 492 605 L 493 594 L 491 594 L 490 604"/>
  <path class="p5" d="M 489 594 L 491 594 L 492 584 L 490 583 L 489 594"/>
  <line x1="490" y1="583" x2="492" y2="584"/>
  <path class="p5" d="M 491 594 L 493 594 L 493 584 L 492 584 L 491 594"/>
  <line x1="492" y1="584" x2="493" y2="584"/>
  <path class="p5" d="M 492 605 L 494 605 L 494 594 L 493 594 L 492 605"/>
  <path class="p5" d="M 494 605 L 496 605 L 496 594 L 494 594 L 494 605"/>
  <path class="p5" d="M 493 594 L 494 594 L 495 584 L 493 584 L 493 594"/>
  <line x1="493" y1="584" x2="495" y2="584"/>
  <path class="p5" d="M 494 594 L 496 594 L 497 584 L 495 584 L 494 594"/>
  <line x1="495" y1="584" x2="497" y2="584"/>
  <path class="p5" d="M 496 605 L 498 605 L 498 594 L 496 594 L 496 605"/>
  <path class="p5" d="M 498 605 L 500 605 L 500 595 L 498 594 L 498 605"/>
  <path class="p5" d="M 496 594 L 498 594 L 498 584 L 497 584 L 496 594"/>
  <line x1="497" y1="584" x2="498" y2="584"/>
  <path class="p5" d="M 498 594 L 500 595 L 500 584 L 498 584 L 498 594"/>
  <line x1="498" y1="584" x2="500" y2="584"/>
  <path class="p5" d="M 500 605 L 502 605 L 502 594 L 500 595 L 500 605"/>
  <path class="p5" d="M 502 605 L 504 605 L 504 594 L 502 594 L 502 605"/>
  <path class="p5" d="M 500 595 L 502 594 L 502 584 L 500 584 L 500 595"/>
  <line x1="500" y1="584" x2="502" y2="584"/>
  <path class="p5" d="M 502 594 L 504 594 L 503 584 L 502 584 L 502 594"/>
  <line x1="502" y1="584" x2="503" y2="584"/>
  <path class="p5" d="M 504 605 L 506 605 L 506 594 L 504 594 L 504 605"/>
  <path class="p5" d="M 506 605 L 508 605 L 507 594 L 506 594 L 506 605"/>
  <path class="p5" d="M 504 594 L 506 594 L 505 584 L 503 584 L 504 594"/>
  <line x1="503" y1="584" x2="505" y2="584"/>
  <path class="p5" d="M 506 594 L 507 594 L 507 584 L 505 584 L 506 594"/>
  <line x1="505" y1="584" x2="507" y2="584"/>
  <path class="p5" d="M 508 605 L 510 604 L 509 594 L 507 594 L 508 605"/>
  <path class="p5" d="M 510 604 L 512 604 L 511 594 L 509 594 L 510 604"/>
  <path class="p5" d="M 507 594 L 509 594 L 508 584 L 507 584 L 507 594"/>
  <line x1="507" y1="584" x2="508" y2="584"/>
  <path class="p5" d="M 509 594 L 511 594 L 510 583 L 508 584 L 509 594"/>
  <line x1="508" y1="584" x2="510" y2="583"/>
  <path class="p5" d="M 512 604 L 514 604 L 513 594 L 511 594 L 512 604"/>
  <path class="p5" d="M 514 604 L 516 604 L 515 593 L 513 594 L 514 604"/>
  <path class="p5" d="M 511 594 L 513 594 L 512 583 L 510 583 L 511 594"/>
  <line x1="510" y1="583" x2="512" y2="583"/>
  <path class="p5" d="M 513 594 L 515 593 L 513 583 L 512 583 L 513 594"/>
  <line x1="512" y1="583" x2="513" y2="583"/>
  <path class="p5" d="M 516 604 L 518 603 L 517 593 L 515 593 L 516 604"/>
  <path class="p5" d="M 518 603 L 520 603 L 518 593 L 517 593 L 518 603"/>
  <path class="p5" d="M 515 593 L 517 593 L 515 583 L 513 583 L 515 593"/>
  <line x1="513" y1="583" x2="515" y2="583"/>
  <path class="p5" d="M 517 593 L 518 593 L 516 582 L 515 583 L 517 593"/>
  <line x1="515" y1="583" x2="516" y2="582"/>
  <path class="p5" d="M 520 603 L 523 603 L 520 592 L 518 593 L 520 603"/>
  <path class="p5" d="M 523 603 L 525 602 L 522 592 L 520 592 L 523 603"/>
  <path class="p5" d="M 518 593 L 520 592 L 518 582 L 516 582 L 518 593"/>
  <line x1="516" y1="582" x2="518" y2="582"/>
  <path class="p5" d="M 520 592 L 522 592 L 520 582 L 518 582 L 520 592"/>
  <line x1="518" y1="582" x2="520" y2="582"/>
  <path class="p5" d="M 525 602 L 527 602 L 524 591 L 522 592 L 525 602"/>
  <path class="p5" d="M 527 602 L 529 601 L 526 591 L 524 591 L 527 602"/>
  <path class="p5" d="M 522 592 L 524 591 L 521 581 L 520 582 L 522 592"/>
  <line x1="520" y1="582" x2="521" y2="581"/>
  <path class="p5" d="M 524 591 L 526 591 L 523 581 L 521 581 L 524 591"/>
  <line x1="521" y1="581" x2="523" y2="581"/>
  <path class="p5" d="M 529 601 L 530 600 L 527 590 L 526 591 L 529 601"/>
  <path class="p5" d="M 530 600 L 532 600 L 529 590 L 527 590 L 530 600"/>
  <path class="p5" d="M 526 591 L 527 590 L 524 580 L 523 581 L 526 591"/>
  <line x1="523" y1="581" x2="524" y2="580"/>
  <path class="p5" d="M 527 590 L 529 590 L 526 580 L 524 580 L 527 590"/>
  <line x1="524" y1="580" x2="526" y2="580"/>
  <path class="p5" d="M 532 600 L 534 599 L 531 589 L 529 590 L 532 600"/>
  <path class="p5" d="M 534 599 L 536 599 L 533 589 L 531 589 L 534 599"/>
  <path class="p5" d="M 529 590 L 531 589 L 528 579 L 526 580 L 529 590"/>
  <line x1="526" y1="580" x2="528" y2="579"/>
  <path class="p5" d="M 531 589 L 533 589 L 529 579 L 528 579 L 531 589"/>
  <line x1="528" y1="579" x2="529" y2="579"/>
  <path class="p5" d="M 536 599 L 538 598 L 534 588 L 533 589 L 536 599"/>
  <path class="p5" d="M 538 598 L 540 597 L 536 587 L 534 588 L 538 598"/>
  <path class="p5" d="M 533 589 L 534 588 L 531 578 L 529 579 L 533 589"/>
  <line x1="529" y1="579" x2="531" y2="578"/>
  <path class="p5" d="M 534 588 L 536 587 L 532 578 L 531 578 L 534 588"/>
  <line x1="531" y1="578" x2="532" y2="578"/>
  <path class="p5" d="M 540 597 L 542 596 L 538 587 L 536 587 L 540 597"/>
  <path class="p5" d="M 542 596 L 544 595 L 540 586 L 538 587 L 542 596"/>
  <path class="p5" d="M 536 587 L 538 587 L 534 577 L 532 578 L 536 587"/>
  <line x1="532" y1="578" x2="534" y2="577"/>
  <path class="p5" d="M 538 587 L 540 586 L 535 576 L 534 577 L 538 587"/>
  <line x1="534" y1="577" x2="535" y2="576"/>
  <path class="p5" d="M 544 595 L 546 594 L 541 585 L 540 586 L 544 595"/>
  <path class="p5" d="M 546 594 L 548 594 L 543 584 L 541 585 L 546 594"/>
  <path class="p5" d="M 540 586 L 541 585 L 537 576 L 535 576 L 540 586"/>
  <line x1="535" y1="576" x2="537" y2="576"/>
  <path class="p5" d="M 541 585 L 543 584 L 538 575 L 537 576 L 541 585"/>
  <line x1="537" y1="576" x2="538" y2="575"/>
  <path class="p5" d="M 548 594 L 549 593 L 545 583 L 543 584 L 548 594"/>
  <path class="p5" d="M 549 593 L 551 592 L 546 582 L 545 583 L 549 593"/>
  <path class="p5" d="M 543 584 L 545 583 L 540 574 L 538 575 L 543 584"/>
  <line x1="538" y1="575" x2="540" y2="574"/>
  <path class="p5" d="M 545 583 L 546 582 L 541 573 L 540 574 L 545 583"/>
  <line x1="540" y1="574" x2="541" y2="573"/>
  <path class="p5" d="M 551 592 L 553 591 L 548 582 L 546 582 L 551 592"/>
  <path class="p5" d="M 553 591 L 555 590 L 549 581 L 548 582 L 553 591"/>
  <path class="p5" d="M 546 582 L 548 582 L 542 572 L 541 573 L 546 582"/>
  <line x1="541" y1="573" x2="542" y2="572"/>
  <path class="p5" d="M 548 582 L 549 581 L 544 572 L 542 572 L 548 582"/>
  <line x1="542" y1="572" x2="544" y2="572"/>
  <path class="p5" d="M 555 590 L 557 588 L 551 580 L 549 581 L 555 590"/>
  <path class="p5" d="M 557 588 L 558 587 L 553 579 L 551 580 L 557 588"/>
  <path class="p5" d="M 549 581 L 551 580 L 545 571 L 544 572 L 549 581"/>
  <line x1="544" y1="572" x2="545" y2="571"/>
  <path class="p5" d="M 551 580 L 553 579 L 547 570 L 545 571 L 551 580"/>
  <line x1="545" y1="571" x2="547" y2="570"/>
  <path class="p5" d="M 558 587 L 560 586 L 554 578 L 553 579 L 558 587"/>
  <path class="p5" d="M 560 586 L 562 585 L 556 576 L 554 578 L 560 586"/>
  <path class="p5" d="M 553 579 L 554 578 L 548 569 L 547 570 L 553 579"/>
  <line x1="547" y1="570" x2="548" y2="569"/>
  <path class="p5" d="M 554 578 L 556 576 L 549 568 L 548 569 L 554 578"/>
  <line x1="548" y1="569" x2="549" y2="568"/>
  <path class="p5" d="M 562 585 L 563 584 L 557 575 L 556 576 L 562 585"/>
  <path class="p5" d="M 563 584 L 565 582 L 559 574 L 557 575 L 563 584"/>
  <path class="p5" d="M 556 576 L 557 575 L 551 567 L 549 568 L 556 576"/>
  <line x1="549" y1="568" x2="551" y2="567"/>
  <path class="p5" d="M 557 575 L 559 574 L 552 566 L 551 567 L 557 575"/>
  <line x1="551" y1="567" x2="552" y2="566"/>
  <path class="p5" d="M 565 582 L 567 581 L 560 573 L 559 574 L 565 582"/>
  <path class="p5" d="M 567 581 L 568 580 L 561 572 L 560 573 L 567 581"/>
  <path class="p5" d="M 559 574 L 560 573 L 553 565 L 552 566 L 559 574"/>
  <line x1="552" y1="566" x2="553" y2="565"/>
  <path class="p5" d="M 560 573 L 561 572 L 555 564 L 553 565 L 560 573"/>
  <line x1="553" y1="565" x2="555" y2="564"/>
  <path class="p5" d="M 568 580 L 570 578 L 563 571 L 561 572 L 568 580"/>
  <path class="p5" d="M 570 578 L 571 577 L 564 569 L 563 571 L 570 578"/>
  <path class="p5" d="M 561 572 L 563 571 L 556 563 L 555 564 L 561 572"/>
  <line x1="555" y1="564" x2="556" y2="563"/>
  <path class="p5" d="M 563 571 L 564 569 L 557 562 L 556 563 L 563 571"/>
  <line x1="556" y1="563" x2="557" y2="562"/>
  <path class="p5" d="M 571 577 L 573 576 L 565 568 L 564 569 L 571 577"/>
  <path class="p5" d="M 573 576 L 574 574 L 567 567 L 565 568 L 573 576"/>
  <path class="p5" d="M 564 569 L 565 568 L 558 561 L 557 562 L 564 569"/>
  <line x1="557" y1="562" x2="558" y2="561"/>
  <path class="p5" d="M 565 568 L 567 567 L 559 559 L 558 561 L 565 568"/>
  <line x1="558" y1="561" x2="559" y2="559"/>
  <path class="p5" d="M 574 574 L 576 573 L 568 565 L 567 567 L 574 574"/>
  <path class="p5" d="M 576 573 L 577 571 L 569 564 L 568 565 L 576 573"/>
  <path class="p5" d="M 567 567 L 568 565 L 561 558 L 559 559 L 567 567"/>
  <line x1="559" y1="559" x2="561" y2="558"/>
  <path class="p5" d="M 568 565 L 569 564 L 562 557 L 561 558 L 568 565"/>
  <line x1="561" y1="558" x2="562" y2="557"/>
  <path class="p5" d="M 577 571 L 578 570 L 571 563 L 569 564 L 577 571"/>
  <path class="p5" d="M 578 570 L 580 568 L 572 561 L 571 563 L 578 570"/>
  <path class="p5" d="M 569 564 L 571 563 L 563 556 L 562 557 L 569 564"/>
  <line x1="562" y1="557" x2="563" y2="556"/>
  <path class="p5" d="M 571 563 L 572 561 L 564 555 L 563 556 L 571 563"/>
  <line x1="563" y1="556" x2="564" y2="555"/>
  <path class="p5" d="M 580 568 L 581 567 L 573 560 L 572 561 L 580 568"/>
  <path class="p5" d="M 581 567 L 582 565 L 574 559 L 573 560 L 581 567"/>
  <path class="p5" d="M 572 561 L 573 560 L 565 553 L 564 555 L 572 561"/>
  <line x1="564" y1="555" x2="565" y2="553"/>
  <path class="p5" d="M 573 560 L 574 559 L 566 552 L 565 553 L 573 560"/>
  <line x1="565" y1="553" x2="566" y2="552"/>
  <path class="p5" d="M 582 565 L 584 563 L 575 557 L 574 559 L 582 565"/>
  <path class="p5" d="M 584 563 L 585 562 L 576 556 L 575 557 L 584 563"/>
  <path class="p5" d="M 574 559 L 575 557 L 567 551 L 566 552 L 574 559"/>
  <line x1="566" y1="552" x2="567" y2="551"/>
  <path class="p5" d="M 575 557 L 576 556 L 568 549 L 567 551 L 575 557"/>
  <line x1="567" y1="551" x2="568" y2="549"/>
  <path class="p5" d="M 585 562 L 586 560 L 578 554 L 576 556 L 585 562"/>
  <path class="p5" d="M 586 560 L 587 558 L 579 553 L 578 554 L 586 560"/>
  <path class="p5" d="M 576 556 L 578 554 L 569 548 L 568 549 L 576 556"/>
  <line x1="568" y1="549" x2="569" y2="548"/>
  <path class="p5" d="M 578 554 L 579 553 L 570 547 L 569 548 L 578 554"/>
  <line x1="569" y1="548" x2="570" y2="547"/>
  <path class="p5" d="M 587 558 L 588 557 L 580 551 L 579 553 L 587 558"/>
  <path class="p5" d="M 588 557 L 590 555 L 581 549 L 580 551 L 588 557"/>
  <path class="p5" d="M 579 553 L 580 551 L 571 545 L 570 547 L 579 553"/>
  <line x1="570" y1="547" x2="571" y2="545"/>
  <path class="p5" d="M 580 551 L 581 549 L 572 544 L 571 545 L 580 551"/>
  <line x1="571" y1="545" x2="572" y2="544"/>
  <path class="p5" d="M 590 555 L 591 553 L 582 548 L 581 549 L 590 555"/>
  <path class="p5" d="M 591 553 L 592 551 L 582 546 L 582 548 L 591 553"/>
  <path class="p5" d="M 581 549 L 582 548 L 572 542 L 572 544 L 581 549"/>
  <line x1="572" y1="544" x2="572" y2="542"/>
  <path class="p5" d="M 582 548 L 582 546 L 573 541 L 572 542 L 582 548"/>
  <line x1="572" y1="542" x2="573" y2="541"/>
  <path class="p5" d="M 592 551 L 593 549 L 583 545 L 582 546 L 592 551"/>
  <path class="p5" d="M 593 549 L 594 548 L 584 543 L 583 545 L 593 549"/>
  <path class="p5" d="M 582 546 L 583 545 L 574 540 L 573 541 L 582 546"/>
  <line x1="573" y1="541" x2="574" y2="540"/>
  <path class="p5" d="M 583 545 L 584 543 L 575 538 L 574 540 L 583 545"/>
  <line x1="574" y1="540" x2="575" y2="538"/>
  <path class="p5" d="M 594 548 L 594 546 L 585 541 L 584 543 L 594 548"/>
  <path class="p5" d="M 594 546 L 595 544 L 586 540 L 585 541 L 594 546"/>
  <path class="p5" d="M 584 543 L 585 541 L 576 537 L 575 538 L 584 543"/>
  <line x1="575" y1="538" x2="576" y2="537"/>
  <path class="p5" d="M 585 541 L 586 540 L 576 535 L 576 537 L 585 541"/>
  <line x1="576" y1="537" x2="576" y2="535"/>
  <path class="p5" d="M 595 544 L 596 542 L 587 538 L 586 540 L 595 544"/>
  <path class="p5" d="M 596 542 L 597 540 L 587 536 L 587 538 L 596 542"/>
  <path class="p5" d="M 586 540 L 587 538 L 577 534 L 576 535 L 586 540"/>
  <line x1="576" y1="535" x2="577" y2="534"/>
  <path class="p5" d="M 587 538 L 587 536 L 578 532 L 577 534 L 587 538"/>
  <line x1="577" y1="534" x2="578" y2="532"/>
  <path class="p5" d="M 597 540 L 598 538 L 588 534 L 587 536 L 597 540"/>
  <path class="p5" d="M 598 538 L 599 536 L 589 533 L 588 534 L 598 538"/>
  <path class="p5" d="M 587 536 L 588 534 L 578 531 L 578 532 L 587 536"/>
  <line x1="578" y1="532" x2="578" y2="531"/>
  <path class="p5" d="M 588 534 L 589 533 L 579 529 L 578 531 L 588 534"/>
  <line x1="578" y1="531" x2="579" y2="529"/>
  <path class="p5" d="M 599 536 L 599 534 L 589 531 L 589 533 L 599 536"/>
  <path class="p5" d="M 599 534 L 600 532 L 590 529 L 589 531 L 599 534"/>
  <path class="p5" d="M 589 533 L 589 531 L 579 528 L 579 529 L 589 533"/>
  <line x1="579" y1="529" x2="579" y2="528"/>
  <path class="p5" d="M 589 531 L 590 529 L 580 526 L 579 528 L 589 531"/>
  <line x1="579" y1="528" x2="580" y2="526"/>
  <path class="p5" d="M 600 532 L 600 530 L 590 527 L 590 529 L 600 532"/>
  <path class="p5" d="M 600 530 L 601 529 L 591 526 L 590 527 L 600 530"/>
  <path class="p5" d="M 590 529 L 590 527 L 580 524 L 580 526 L 590 529"/>
  <line x1="580" y1="526" x2="580" y2="524"/>
  <path class="p5" d="M 590 527 L 591 526 L 581 523 L 580 524 L 590 527"/>
  <line x1="580" y1="524" x2="581" y2="523"/>
  <path class="p5" d="M 601 529 L 602 527 L 591 524 L 591 526 L 601 529"/>
  <path class="p5" d="M 602 527 L 602 525 L 592 522 L 591 524 L 602 527"/>
  <path class="p5" d="M 591 526 L 591 524 L 581 521 L 581 523 L 591 526"/>
  <line x1="581" y1="523" x2="581" y2="521"/>
  <path class="p5" d="M 591 524 L 592 522 L 582 520 L 581 521 L 591 524"/>
  <line x1="581" y1="521" x2="582" y2="520"/>
  <path class="p5" d="M 602 525 L 603 523 L 592 520 L 592 522 L 602 525"/>
  <path class="p5" d="M 603 523 L 603 520 L 593 518 L 592 520 L 603 523"/>
  <path class="p5" d="M 592 522 L 592 520 L 582 518 L 582 520 L 592 522"/>
  <line x1="582" y1="520" x2="582" y2="518"/>
  <path class="p5" d="M 592 520 L 593 518 L 582 516 L 582 518 L 592 520"/>
  <line x1="582" y1="518" x2="582" y2="516"/>
  <path class="p5" d="M 603 520 L 603 518 L 593 517 L 593 518 L 603 520"/>
  <path class="p5" d="M 603 518 L 604 516 L 593 515 L 593 517 L 603 518"/>
  <path class="p5" d="M 593 518 L 593 517 L 583 515 L 582 516 L 593 518"/>
  <line x1="582" y1="516" x2="583" y2="515"/>
  <path class="p5" d="M 593 517 L 593 515 L 583 513 L 583 515 L 593 517"/>
  <line x1="583" y1="515" x2="583" y2="513"/>
  <path class="p5" d="M 604 516 L 604 514 L 594 513 L 593 515 L 604 516"/>
  <path class="p5" d="M 604 514 L 604 512 L 594 511 L 594 513 L 604 514"/>
  <path class="p5" d="M 593 515 L 594 513 L 583 512 L 583 513 L 593 515"/>
  <line x1="583" y1="513" x2="583" y2="512"/>
  <path class="p5" d="M 594 513 L 594 511 L 583 510 L 583 512 L 594 513"/>
  <line x1="583" y1="512" x2="583" y2="510"/>
  <path class="p5" d="M 604 512 L 604 510 L 594 509 L 594 511 L 604 512"/>
  <path class="p5" d="M 604 510 L 605 508 L 594 507 L 594 509 L 604 510"/>
  <path class="p5" d="M 594 511 L 594 509 L 584 508 L 583 510 L 594 511"/>
  <line x1="583" y1="510" x2="584" y2="508"/>
  <path class="p5" d="M 594 509 L 594 507 L 584 507 L 584 508 L 594 509"/>
  <line x1="584" y1="508" x2="584" y2="507"/>
  <path class="p5" d="M 605 508 L 605 506 L 594 506 L 594 507 L 605 508"/>
  <path class="p5" d="M 605 506 L 605 504 L 594 504 L 594 506 L 605 506"/>
  <path class="p5" d="M 594 507 L 594 506 L 584 505 L 584 507 L 594 507"/>
  <line x1="584" y1="507" x2="584" y2="505"/>
  <path class="p5" d="M 594 506 L 594 504 L 584 503 L 584 505 L 594 506"/>
  <line x1="584" y1="505" x2="584" y2="503"/>
  <path class="p5" d="M 605 504 L 605 502 L 594 502 L 594 504 L 605 504"/>
  <path class="p5" d="M 605 502 L 605 500 L 595 500 L 594 502 L 605 502"/>
  <path class="p5" d="M 594 504 L 594 502 L 584 502 L 584 503 L 594 504"/>
  <line x1="584" y1="503" x2="584" y2="502"/>
  <path class="p5" d="M 594 502 L 595 500 L 584 500 L 584 502 L 594 502"/>
  <line x1="584" y1="502" x2="584" y2="500"/>

</svg>