$MeshFormat
4.1 0 8
$EndMeshFormat
$PhysicalNames
8
1 1 "EmitterUp"
1 2 "EmitterDown"
1 3 "CollectorUp"
1 4 "CollectorDown"
1 11 "inlet"
1 12 "outlet"
1 13 "walls"
2 1 "Domain"
$EndPhysicalNames
$Entities
58 88 32 0
6 0.053175 0.03 0 0 
7 0.05635 0.03 0 0 
8 0.053175 0.033175 0 0 
9 0.05 0.03 0 0 
10 0.053175 0.026825 0 0 
11 -0.08 -0.06 0 0 
12 -0.08 0.06 0 0 
21 0 0.03 0 0 
22 0.00011 0.03 0 0 
23 0 0.03011 0 0 
24 -0.00011 0.03 0 0 
25 0 0.02989 0 0 
31 0 -0.03 0 0 
32 0.00011 -0.03 0 0 
33 0 -0.02989 0 0 
34 -0.00011 -0.03 0 0 
35 0 -0.03011 0 0 
41 0.133175 0.06 0 0 
43 0.133175 -0.06 0 0 
50 0.053175 -0.03 0 0 
51 0.05635 -0.03 0 0 
52 0.053175 -0.033175 0 0 
53 0.05 -0.03 0 0 
54 0.053175 -0.026825 0 0 
107 0.064175 0.03 0 0 
108 0.053175 0.041 0 0 
109 0.042175 0.03 0 0 
110 0.053175 0.019 0 0 
122 0.011 0.03 0 0 
123 0 0.041 0 0 
124 -0.011 0.03 0 0 
125 0 0.019 0 0 
132 0.011 -0.03 0 0 
133 0 -0.019 0 0 
134 -0.011 -0.03 0 0 
135 0 -0.041 0 0 
151 0.064175 -0.03 0 0 
152 0.053175 -0.019 0 0 
153 0.042175 -0.03 0 0 
154 0.053175 -0.041 0 0 
155 -0.1 0 0 0 
156 -0.08 -0.03 0 0 
157 -0.08 0 0 0 
158 -0.08 0.03 0 0 
159 0.133175 -0.03 0 0 
160 0.133175 0.03 0 0 
161 0.133175 0 0 0 
162 0 -0.06 0 0 
163 0.0265875 -0.06 0 0 
164 0.0265875 0.06 0 0 
165 0.0265875 -0.03 0 0 
166 0.0265875 0.03 0 0 
167 0.0265875 0 0 0 
168 0 0 0 0 
169 0.053175 0 0 0 
170 0.053175 -0.06 0 0 
171 0.053175 0.06 0 0 
172 0 0.06 0 0 
5 0.053175 0.03 0 0.05635 0.033175 0 1 3 2 7 -8 
6 0.05 0.03 0 0.053175 0.033175 0 1 3 2 8 -9 
7 0.05 0.026825 0 0.053175 0.03 0 1 3 2 9 -10 
8 0.053175 0.026825 0 0.05635 0.03 0 1 3 2 10 -7 
10 0.05 -0.03 0 0.053175 -0.026825 0 1 4 2 54 -53 
11 0.05 -0.033175 0 0.053175 -0.03 0 1 4 2 53 -52 
12 0.053175 -0.033175 0 0.05635 -0.03 0 1 4 2 52 -51 
13 0.053175 -0.03 0 0.05635 -0.02682499999999999 0 1 4 2 51 -54 
21 6.776263578034403e-21 0.03 0 0.00011 0.03011 0 1 1 2 22 -23 
22 -0.000109999999999999 0.03 0 0 0.03011 0 1 1 2 23 -24 
23 -0.00011 0.02989 0 -6.776263578034403e-21 0.03 0 1 1 2 24 -25 
24 0 0.02989 0 0.000109999999999999 0.03 0 1 1 2 25 -22 
31 6.776263578034403e-21 -0.03 0 0.00011 -0.02989 0 1 2 2 32 -33 
32 -0.000109999999999999 -0.03 0 0 -0.02989 0 1 2 2 33 -34 
33 -0.00011 -0.03011 0 -6.776263578034403e-21 -0.03 0 1 2 2 34 -35 
34 0 -0.03011 0 0.000109999999999999 -0.03 0 1 2 2 35 -32 
105 0.053175 0.03 0 0.064175 0.04099999999999999 0 0 2 107 -108 
106 0.042175 0.03 0 0.053175 0.041 0 0 2 108 -109 
107 0.042175 0.019 0 0.053175 0.03 0 0 2 109 -110 
108 0.053175 0.019 0 0.06417500000000001 0.03 0 0 2 110 -107 
110 0.042175 -0.041 0 0.053175 -0.03 0 0 2 154 -153 
111 0.042175 -0.03 0 0.053175 -0.019 0 0 2 153 -152 
112 0.053175 -0.03 0 0.06417500000000001 -0.019 0 0 2 152 -151 
113 0.053175 -0.04099999999999999 0 0.064175 -0.03 0 0 2 151 -154 
121 8.673617379884035e-19 0.03 0 0.011 0.041 0 0 2 122 -123 
122 -0.011 0.03 0 0 0.041 0 0 2 123 -124 
123 -0.011 0.019 0 -8.673617379884035e-19 0.03 0 0 2 124 -125 
124 0 0.019 0 0.011 0.03 0 0 2 125 -122 
131 8.673617379884035e-19 -0.03 0 0.011 -0.019 0 0 2 132 -133 
132 -0.011 -0.03 0 0 -0.019 0 0 2 133 -134 
133 -0.011 -0.041 0 -8.673617379884035e-19 -0.03 0 0 2 134 -135 
134 0 -0.041 0 0.011 -0.03 0 0 2 135 -132 
135 0 0.03011 0 0 0.041 0 0 2 23 -123 
136 0.0001099999999999999 0.03 0 0.011 0.03 0 0 2 22 -122 
137 0 0.019 0 0 0.02989 0 0 2 25 -125 
138 -0.011 0.03 0 -0.0001099999999999999 0.03 0 0 2 24 -124 
139 0 -0.02989 0 0 -0.019 0 0 2 33 -133 
140 0.0001099999999999999 -0.03 0 0.011 -0.03 0 0 2 32 -132 
141 0 -0.041 0 0 -0.03011 0 0 2 35 -135 
142 -0.011 -0.03 0 -0.0001099999999999999 -0.03 0 0 2 34 -134 
143 0.053175 0.033175 0 0.053175 0.041 0 0 2 8 -108 
144 0.042175 0.03 0 0.05 0.03 0 0 2 9 -109 
145 0.053175 0.019 0 0.053175 0.026825 0 0 2 10 -110 
146 0.053175 -0.026825 0 0.053175 -0.019 0 0 2 152 -54 
147 0.05635 -0.03 0 0.064175 -0.03 0 0 2 51 -151 
148 0.053175 -0.041 0 0.053175 -0.033175 0 0 2 52 -154 
149 0.042175 -0.03 0 0.05 -0.03 0 0 2 53 -153 
150 -0.08 0.03 0 -0.011 0.03 0 0 2 158 -124 
151 0 0.041 0 0 0.06 0 0 2 123 -172 
152 0.011 0.03 0 0.0265875 0.03 0 0 2 122 -166 
153 0.0265875 0.03 0 0.042175 0.03 0 0 2 166 -109 
154 0.0265875 0.03 0 0.0265875 0.06 0 0 2 166 -164 
155 0.053175 0.041 0 0.053175 0.06 0 0 2 108 -171 
156 0.05635 0.03 0 0.064175 0.03 0 0 2 7 -107 
157 0.064175 0.03 0 0.133175 0.03 0 0 2 107 -160 
158 0.053175 0 0 0.053175 0.019 0 0 2 110 -169 
159 0.053175 -0.019 0 0.053175 0 0 0 2 169 -152 
160 0.053175 0 0 0.133175 0 0 0 2 169 -161 
161 0.064175 -0.03 0 0.133175 -0.03 0 0 2 151 -159 
162 0.053175 -0.06 0 0.053175 -0.041 0 0 2 154 -170 
163 0.0265875 -0.03 0 0.042175 -0.03 0 0 2 153 -165 
164 0.0265875 -0.06 0 0.0265875 -0.03 0 0 2 165 -163 
165 0.011 -0.03 0 0.0265875 -0.03 0 0 2 165 -132 
166 0 -0.06 0 0 -0.041 0 0 2 135 -162 
167 0.0265875 0 0 0.053175 0 0 0 2 167 -169 
168 0.0265875 -0.03 0 0.0265875 0 0 0 2 165 -167 
169 0.0265875 0 0 0.0265875 0.03 0 0 2 167 -166 
170 0 0 0 0 0.019 0 0 2 125 -168 
171 0 -0.019 0 0 0 0 0 2 168 -133 
172 0 0 0 0.0265875 0 0 0 2 167 -168 
173 -0.08 0 0 0 0 0 0 2 168 -157 
174 -0.08 -0.03 0 -0.011 -0.03 0 0 2 134 -156 
175 -0.08 0.03 0 -0.08 0.06 0 1 11 2 12 -158 
176 -0.08 0 0 -0.08 0.03 0 1 11 2 158 -157 
177 -0.08 -0.03 0 -0.08 0 0 1 11 2 157 -156 
178 -0.08 -0.06 0 -0.08 -0.03 0 1 11 2 156 -11 
179 -0.08 -0.06 0 0 -0.06 0 1 13 2 11 -162 
180 0 -0.06 0 0.0265875 -0.06 0 1 13 2 162 -163 
181 0.0265875 -0.06 0 0.053175 -0.06 0 1 13 2 163 -170 
182 0.053175 -0.06 0 0.133175 -0.06 0 1 13 2 170 -43 
183 0.133175 -0.06 0 0.133175 -0.03 0 1 12 2 43 -159 
184 0.133175 -0.03 0 0.133175 0 0 1 12 2 159 -161 
185 0.133175 0 0 0.133175 0.03 0 1 12 2 161 -160 
186 0.133175 0.03 0 0.133175 0.06 0 1 12 2 160 -41 
187 0.053175 0.06 0 0.133175 0.06 0 1 13 2 41 -171 
188 0.0265875 0.06 0 0.053175 0.06 0 1 13 2 171 -164 
189 0 0.06 0 0.0265875 0.06 0 1 13 2 164 -172 
190 -0.08 0.06 0 0 0.06 0 1 13 2 172 -12 
1 -0.08 0.03 0 0 0.06 0 1 1 5 190 175 150 -122 151 
2 -0.08 0 0 0 0.03 0 1 1 5 150 123 170 173 -176 
3 -0.08 -0.03 0 0 0 0 1 1 5 173 177 -174 -132 -171 
4 -0.08 -0.06 0 0 -0.03 0 1 1 5 174 178 179 -166 -133 
5 0 -0.06 0 0.0265875 -0.03 0 1 1 5 166 180 -164 165 -134 
6 0.0265875 -0.06 0 0.053175 -0.03 0 1 1 5 164 181 -162 110 163 
7 0.053175 -0.06 0 0.133175 -0.03 0 1 1 5 162 182 183 -161 113 
8 0.053175 -0.03 0 0.133175 0 0 1 1 5 159 112 161 184 -160 
9 0.053175 0 0 0.133175 0.03 0 1 1 5 158 160 185 -157 -108 
10 0.053175 0.03 0 0.133175 0.06 0 1 1 5 105 155 -187 -186 -157 
11 0.0265875 0.03 0 0.053175 0.06 0 1 1 5 188 -154 153 -106 155 
12 0 0.03 0 0.0265875 0.06 0 1 1 5 189 -151 -121 152 154 
13 0 0 0 0.0265875 0.03 0 1 1 5 170 -172 169 -152 -124 
14 0.0265875 0 0 0.053175 0.03 0 1 1 5 169 153 107 158 -167 
15 0 -0.03 0 0.0265875 0 0 1 1 5 172 171 -131 -165 168 
16 0.0265875 -0.03 0 0.053175 0 0 1 1 5 167 159 -111 163 168 
17 -0.011 0.03 0 0 0.041 0 1 1 4 122 -138 -22 135 
18 -0.011 0.019 0 0 0.03 0 1 1 4 138 123 -137 -23 
19 0 0.019 0 0.011 0.03 0 1 1 4 24 136 -124 -137 
20 0 0.03 0 0.011 0.041 0 1 1 4 135 -121 -136 21 
21 -0.011 -0.03 0 0 -0.019 0 1 1 4 132 -142 -32 139 
22 -0.011 -0.041 0 0 -0.03 0 1 1 4 142 133 -141 -33 
23 0 -0.041 0 0.011 -0.03 0 1 1 4 141 134 -140 -34 
24 0 -0.03 0 0.011 -0.019 0 1 1 4 139 -131 -140 31 
25 0.042175 -0.03 0 0.053175 -0.019 0 1 1 4 111 146 10 149 
26 0.042175 -0.041 0 0.053175 -0.03 0 1 1 4 149 -110 -148 -11 
27 0.053175 -0.041 0 0.064175 -0.03 0 1 1 4 12 147 113 -148 
28 0.053175 -0.03 0 0.06417500000000001 -0.019 0 1 1 4 146 -13 147 -112 
29 0.042175 0.03 0 0.053175 0.041 0 1 1 4 106 -144 -6 143 
30 0.042175 0.019 0 0.053175 0.03 0 1 1 4 144 107 -145 -7 
31 0.053175 0.019 0 0.06417500000000001 0.03 0 1 1 4 8 156 -108 -145 
32 0.053175 0.03 0 0.064175 0.041 0 1 1 4 143 -105 -156 5 
$EndEntities
$Nodes
165 500 1 500
0 7 0 1
1
0.05635 0.03 0
0 8 0 1
2
0.053175 0.033175 0
0 9 0 1
3
0.05 0.03 0
0 10 0 1
4
0.053175 0.026825 0
0 11 0 1
5
-0.08 -0.06 0
0 12 0 1
6
-0.08 0.06 0
0 22 0 1
7
0.00011 0.03 0
0 23 0 1
8
0 0.03011 0
0 24 0 1
9
-0.00011 0.03 0
0 25 0 1
10
0 0.02989 0
0 32 0 1
11
0.00011 -0.03 0
0 33 0 1
12
0 -0.02989 0
0 34 0 1
13
-0.00011 -0.03 0
0 35 0 1
14
0 -0.03011 0
0 41 0 1
15
0.133175 0.06 0
0 43 0 1
16
0.133175 -0.06 0
0 51 0 1
17
0.05635 -0.03 0
0 52 0 1
18
0.053175 -0.033175 0
0 53 0 1
19
0.05 -0.03 0
0 54 0 1
20
0.053175 -0.026825 0
0 107 0 1
21
0.064175 0.03 0
0 108 0 1
22
0.053175 0.041 0
0 109 0 1
23
0.042175 0.03 0
0 110 0 1
24
0.053175 0.019 0
0 122 0 1
25
0.011 0.03 0
0 123 0 1
26
0 0.041 0
0 124 0 1
27
-0.011 0.03 0
0 125 0 1
28
0 0.019 0
0 132 0 1
29
0.011 -0.03 0
0 133 0 1
30
0 -0.019 0
0 134 0 1
31
-0.011 -0.03 0
0 135 0 1
32
0 -0.041 0
0 151 0 1
33
0.064175 -0.03 0
0 152 0 1
34
0.053175 -0.019 0
0 153 0 1
35
0.042175 -0.03 0
0 154 0 1
36
0.053175 -0.041 0
0 156 0 1
37
-0.08 -0.03 0
0 157 0 1
38
-0.08 0 0
0 158 0 1
39
-0.08 0.03 0
0 159 0 1
40
0.133175 -0.03 0
0 160 0 1
41
0.133175 0.03 0
0 161 0 1
42
0.133175 0 0
0 162 0 1
43
0 -0.06 0
0 163 0 1
44
0.0265875 -0.06 0
0 164 0 1
45
0.0265875 0.06 0
0 165 0 1
46
0.0265875 -0.03 0
0 166 0 1
47
0.0265875 0.03 0
0 167 0 1
48
0.0265875 0 0
0 168 0 1
49
0 0 0
0 169 0 1
50
0.053175 0 0
0 170 0 1
51
0.053175 -0.06 0
0 171 0 1
52
0.053175 0.06 0
0 172 0 1
53
0 0.06 0
1 5 0 1
54
0.05542006403158778 0.0322450640289468 0
1 6 0 1
55
0.0509299359648174 0.03224506402535197 0
1 7 0 1
56
0.05092993597500629 0.02775493596445914 0
1 8 0 1
57
0.05542006403472197 0.02775493597418738 0
1 10 0 1
58
0.05092993596527803 -0.02775493597418738 0
1 11 0 1
59
0.05092993597600625 -0.03224506403654082 0
1 12 0 1
60
0.0554200640351826 -0.03224506402535197 0
1 13 0 1
61
0.05542006403320105 -0.02775493597266647 0
1 21 0 1
62
7.778174568604939e-05 0.03007778174617499 0
1 22 0 1
63
-7.778174663116914e-05 0.03007778174522987 0
1 23 0 1
64
-7.778174568604939e-05 0.02992221825382501 0
1 24 0 1
65
7.778174663116914e-05 0.02992221825477013 0
1 31 0 1
66
7.778174568604939e-05 -0.02992221825382501 0
1 32 0 1
67
-7.778174663116914e-05 -0.02992221825477013 0
1 33 0 1
68
-7.778174568604939e-05 -0.03007778174617499 0
1 34 0 1
69
7.778174663116914e-05 -0.03007778174522987 0
1 105 0 1
70
0.06095317457177311 0.03777817461433093 0
1 106 0 1
71
0.0453968253888607 0.03777817457496475 0
1 107 0 1
72
0.04539682542420214 0.02222182538969381 0
1 108 0 1
73
0.06095317461076229 0.02222182542465824 0
1 110 0 1
74
0.0453968253888607 -0.03777817457496475 0
1 111 0 1
75
0.04539682542420214 -0.02222182538969381 0
1 112 0 1
76
0.06095317461076229 -0.02222182542465824 0
1 113 0 1
77
0.06095317457177311 -0.03777817461433093 0
1 121 0 1
78
0.007778174567319678 0.03777817461878437 0
1 122 0 1
79
-0.007778174611346456 0.03777817457475759 0
1 123 0 1
80
-0.0077781745743249 0.02222182538822085 0
1 124 0 1
81
0.007778174610184291 0.02222182542408024 0
1 131 0 1
82
0.0077781745743249 -0.02222182538822085 0
1 132 0 1
83
-0.007778174610184291 -0.02222182542408024 0
1 133 0 1
84
-0.007778174567319678 -0.03777817461878437 0
1 134 0 1
85
0.007778174611346456 -0.03777817457475759 0
1 135 0 3
86
87
88
0 0.03040673835072167 0
0 0.03126727945439364 0
0 0.03376284882416118 0
1 136 0 3
89
90
91
0.0004067383507228794 0.03 0
0.001267279454394571 0.03 0
0.003762848824162915 0.03 0
1 137 0 3
92
93
94
0 0.0295932616492782 0
0 0.02873272054560552 0
0 0.0262371511758377 0
1 138 0 3
95
96
97
-0.0004067383507228794 0.03 0
-0.001267279454394571 0.03 0
-0.003762848824162915 0.03 0
1 139 0 3
98
99
100
0 -0.0295932616492782 0
0 -0.02873272054560552 0
0 -0.0262371511758377 0
1 140 0 3
101
102
103
0.0004067383507228794 -0.03 0
0.001267279454394571 -0.03 0
0.003762848824162915 -0.03 0
1 141 0 3
104
105
106
0 -0.03040673835072167 0
0 -0.03126727945439364 0
0 -0.03376284882416118 0
1 142 0 3
107
108
109
-0.0004067383507228794 -0.03 0
-0.001267279454394571 -0.03 0
-0.003762848824162915 -0.03 0
1 150 0 7
110
111
112
113
114
115
116
-0.07211296328594327 0.03 0
-0.06402558750422441 0.03 0
-0.05573278337452063 0.03 0
-0.04722933274578697 0.03 0
-0.03850988615845629 0.03 0
-0.02956895565820387 0.03 0
-0.02040091613570673 0.03 0
1 151 0 1
117
0 0.05072631813431557 0
1 152 0 1
118
0.0189794202680705 0.03 0
1 153 0 1
119
0.03419557973189044 0.03 0
1 154 0 3
120
121
122
0.0265875 0.03749999999998069 0
0.0265875 0.04499999999995868 0
0.0265875 0.05249999999998003 0
1 155 0 1
123
0.053175 0.05072631813431557 0
1 157 0 7
124
125
126
127
128
129
130
0.07357591613566238 0.03 0
0.08274395565810731 0.03 0
0.09168488615831127 0.03 0
0.100404332745614 0.03 0
0.1089077833743957 0.03 0
0.1172005875041457 0.03 0
0.1252879632859088 0.03 0
1 158 0 1
131
0.053175 0.009273681865681147 0
1 159 0 1
132
0.053175 -0.009273681865632212 0
1 160 0 9
133
134
135
136
137
138
139
140
141
0.06155958998707699 0 0
0.06985630728150748 0 0
0.0780660677295793 0 0
0.08618978429516957 0 0
0.09422835849155994 0 0
0.1021826816246839 0 0
0.110053641490104 0 0
0.1178421030533204 0 0
0.1255489365237163 0 0
1 161 0 7
142
143
144
145
146
147
148
0.07357591613566238 -0.03 0
0.08274395565810731 -0.03 0
0.09168488615831127 -0.03 0
0.100404332745614 -0.03 0
0.1089077833743957 -0.03 0
0.1172005875041457 -0.03 0
0.1252879632859088 -0.03 0
1 162 0 1
149
0.053175 -0.05072631813431557 0
1 163 0 1
150
0.03419557973192996 -0.03 0
1 164 0 3
151
152
153
0.0265875 -0.03749999999998069 0
0.0265875 -0.04499999999995868 0
0.0265875 -0.05249999999998003 0
1 165 0 1
154
0.01897942026811075 -0.03 0
1 166 0 1
155
0 -0.05072631813431557 0
1 167 0 3
156
157
158
0.0332343749999834 0 0
0.0398812499999668 0 0
0.04652812499998274 0 0
1 168 0 3
159
160
161
0.0265875 -0.02250000000001981 0
0.0265875 -0.01500000000004267 0
0.0265875 -0.007500000000020813 0
1 169 0 3
162
163
164
0.0265875 0.007499999999980961 0
0.0265875 0.01499999999995807 0
0.0265875 0.02249999999997956 0
1 170 0 1
165
0 0.009273681865681147 0
1 171 0 1
166
0 -0.009273681865632212 0
1 172 0 3
167
168
169
0.01994062500001677 0 0
0.01329375000003456 0 0
0.006646875000017084 0 0
1 173 0 9
170
171
172
173
174
175
176
177
178
-0.008384589987076745 0 0
-0.01668130728150849 0 0
-0.02489106772957839 0 0
-0.0330147842951697 0 0
-0.04105335849155991 0 0
-0.04900768162468309 0 0
-0.05687864149010426 0 0
-0.06466710305331916 0 0
-0.07237393652371413 0 0
1 174 0 7
179
180
181
182
183
184
185
-0.02040091613566283 -0.03 0
-0.02956895565810771 -0.03 0
-0.03850988615831111 -0.03 0
-0.04722933274561453 -0.03 0
-0.05573278337439647 -0.03 0
-0.06402558750414655 -0.03 0
-0.07211296328590869 -0.03 0
1 175 0 3
186
187
188
-0.08 0.05220112445596778 0
-0.08 0.04460499056566477 0
-0.08 0.03720632601120447 0
1 176 0 3
189
190
191
-0.08 0.02250000000001982 0
-0.08 0.01500000000004267 0
-0.08 0.007500000000020827 0
1 177 0 3
192
193
194
-0.08 -0.007499999999980956 0
-0.08 -0.01499999999995806 0
-0.08 -0.02249999999997954 0
1 178 0 3
195
196
197
-0.08 -0.03720632601117012 0
-0.08 -0.0446049905655882 0
-0.08 -0.05220112445592761 0
1 179 0 7
198
199
200
201
202
203
204
-0.07000000000002678 -0.06 0
-0.0600000000000427 -0.06 0
-0.05000000000008167 -0.06 0
-0.04000000000010576 -0.06 0
-0.03000000000007695 -0.06 0
-0.02000000000005357 -0.06 0
-0.01000000000001934 -0.06 0
1 180 0 3
205
206
207
0.006646874999983879 -0.06 0
0.01329374999996497 -0.06 0
0.01994062499998268 -0.06 0
1 181 0 3
208
209
210
0.0332343749999834 -0.06 0
0.0398812499999668 -0.06 0
0.04652812499998274 -0.06 0
1 182 0 7
211
212
213
214
215
216
217
0.06317499999997289 -0.06 0
0.07317499999994848 -0.06 0
0.08317499999992406 -0.06 0
0.09317499999989422 -0.06 0
0.1031749999999159 -0.06 0
0.1131749999999403 -0.06 0
0.123174999999981 -0.06 0
1 183 0 3
218
219
220
0.133175 -0.05220112445596778 0
0.133175 -0.04460499056566477 0
0.133175 -0.03720632601120447 0
1 184 0 3
221
222
223
0.133175 -0.02250000000001982 0
0.133175 -0.01500000000004267 0
0.133175 -0.007500000000020827 0
1 185 0 3
224
225
226
0.133175 0.007499999999980956 0
0.133175 0.01499999999995806 0
0.133175 0.02249999999997954 0
1 186 0 3
227
228
229
0.133175 0.03720632601117012 0
0.133175 0.0446049905655882 0
0.133175 0.05220112445592761 0
1 187 0 7
230
231
232
233
234
235
236
0.1231750000000176 0.06 0
0.1131750000000434 0.06 0
0.1031750000000692 0.06 0
0.09317500000010034 0.06 0
0.08317500000008 0.06 0
0.07317500000005694 0.06 0
0.06317500000001763 0.06 0
1 188 0 3
237
238
239
0.04652812500001491 0.06 0
0.03988125000003116 0.06 0
0.03323437500001489 0.06 0
1 189 0 3
240
241
242
0.01994062500001677 0.06 0
0.01329375000003456 0.06 0
0.006646875000017084 0.06 0
1 190 0 7
243
244
245
246
247
248
249
-0.009999999999982459 0.06 0
-0.01999999999995263 0.06 0
-0.02999999999992347 0.06 0
-0.03999999999989566 0.06 0
-0.04999999999992411 0.06 0
-0.05999999999994714 0.06 0
-0.06999999999998102 0.06 0
2 1 0 18
250
251
252
253
254
255
256
257
258
259
260
261
262
263
264
265
266
267
-0.05713607080578429 0.03945348242837896 0
-0.02957786684645658 0.03967358094844163 0
-0.008560200332361635 0.05118516999610489 0
-0.04905875035216109 0.04973568341554403 0
-0.06977013746002907 0.04857901567342654 0
-0.07306811335903216 0.03758425211156172 0
-0.03889117816157046 0.03978637096146308 0
-0.03942245837490709 0.04983226147465842 0
-0.0295861164087686 0.04972262688004328 0
-0.01482721923482682 0.0377866022963973 0
-0.05877938536047413 0.04947900555259561 0
-0.01821566445784217 0.04861652343680899 0
-0.06568510946278573 0.03864098463824422 0
-0.04807400227318904 0.03974161379862794 0
-0.07452814993812967 0.04326816207639604 0
-0.02066489488345441 0.03874517392814784 0
-0.01135630697634919 0.04177077084919193 0
-0.007277163338082757 0.04506941631582562 0
2 2 0 26
268
269
270
271
272
273
274
275
276
277
278
279
280
281
282
283
284
285
286
287
288
289
290
291
292
293
-0.06455216480858184 0.007406463499058756 0
-0.04877375589628692 0.007456944200599083 0
-0.03271470878086274 0.007943599693291994 0
-0.01532957679320445 0.0226845622758533 0
-0.06418634100447541 0.02234503601105812 0
-0.04779560414878421 0.02233018006390554 0
-0.02360291398886259 0.009884221437396659 0
-0.01663759121823159 0.008253004318793269 0
-0.03131215929864269 0.0221989724771607 0
-0.07223165595507765 0.01489692256695429 0
-0.07229458170147822 0.007442885371991986 0
-0.07213621679446934 0.02242397939306669 0
-0.008613263033607352 0.005523726921664704 0
-0.01099254034924219 0.01428384890070316 0
-0.03945362130511647 0.02235874053275004 0
-0.05606268454027179 0.02235329247495316 0
-0.05668926709998005 0.007414595167242327 0
-0.04074904938003867 0.007538856074521717 0
-0.06436612002650857 0.01485046663565832 0
-0.02681801965782804 0.01547381949984028 0
-0.01823053330505143 0.01757019852418762 0
-0.02443459090357004 0.02068655884932245 0
-0.05640209723126599 0.01485592476287846 0
-0.04832904185288951 0.01487408492221219 0
-0.03252067313634663 0.01511174455110844 0
-0.04024188753396814 0.01494207789049741 0
2 3 0 26
294
295
296
297
298
299
300
301
302
303
304
305
306
307
308
309
310
311
312
313
314
315
316
317
318
319
-0.06451719075721488 -0.007425061586877585 0
-0.04770524775687567 -0.008692917353124932 0
-0.03336906268318691 -0.007760979655291613 0
-0.06414907780774454 -0.02229382459579838 0
-0.01856466503053929 -0.008298438566425819 0
-0.04605608250728732 -0.02009413086319883 0
-0.02780582338088977 -0.02262623191033764 0
-0.07221722788589678 -0.01489257127127479 0
-0.07228345039769364 -0.007444107842178893 0
-0.07212488859361957 -0.02241529463509377 0
-0.009280473802897 -0.009319547017892466 0
-0.01202799629901331 -0.02059762358889044 0
-0.007432846509739075 -0.01615930600809736 0
-0.03591150140575521 -0.02194577649286055 0
-0.05591344563477289 -0.02196305959678441 0
-0.05663028650014705 -0.007586632592602106 0
-0.02484070503422645 -0.0082031025091554 0
-0.04063138406050983 -0.005155287779797596 0
-0.02181324058939527 -0.02289703319493325 0
-0.06432002548054032 -0.01481815389997476 0
-0.01731331436469225 -0.01778049603195738 0
-0.05641429569516224 -0.0147045270776544 0
-0.0502747202113225 -0.01442114396796915 0
-0.03125264073961604 -0.01471279837197515 0
-0.02354601592753201 -0.01573902490356959 0
-0.03911157126439922 -0.01273152017380432 0
2 4 0 16
320
321
322
323
324
325
326
327
328
329
330
331
332
333
334
335
-0.06492548404406168 -0.03757062406968157 0
-0.04832813546113985 -0.03946430203030389 0
-0.01944931457054437 -0.03939128733783512 0
-0.07095800796131572 -0.05146598845790057 0
-0.009516046980712253 -0.04969278379923022 0
-0.01952254744079462 -0.04955348036138916 0
-0.04944215849130749 -0.04946273304841206 0
-0.02959985714588501 -0.04969280908317073 0
-0.03894209551054949 -0.03969210650311202 0
-0.07232695497659453 -0.03713383741827548 0
-0.02941168276476355 -0.03970256597265353 0
-0.06081079145466594 -0.0484585031210189 0
-0.03948205367943865 -0.04971815881414186 0
-0.0571753165448993 -0.03864137219267553 0
-0.07202147868918846 -0.04402611020984461 0
-0.06618840038027193 -0.04306089482502162 0
2 5 0 7
336
337
338
339
340
341
342
0.006608297839336781 -0.04660806001575432 0
0.01975339551408789 -0.05266117407243899 0
0.01906414222559066 -0.0452192565784711 0
0.01845234243031061 -0.03764040677863136 0
0.01305971267738967 -0.05278047712733717 0
0.006553772401850192 -0.05225693270288227 0
0.01158857666598061 -0.04569932527094594 0
2 6 0 7
343
344
345
346
347
348
349
0.03480997646469239 -0.03765669922203056 0
0.0343283166942038 -0.04525429353328363 0
0.04033119035572675 -0.05280714866850247 0
0.03363102089568733 -0.05267057225386054 0
0.04675023294449017 -0.05226488225221641 0
0.0468679634515721 -0.04660282741026883 0
0.04181909200020562 -0.04572122560796704 0
2 7 0 16
350
351
352
353
354
355
356
357
358
359
360
361
362
363
364
365
0.1103112690166075 -0.03945293182779901 0
0.08290444592894296 -0.03969599186459354 0
0.06359255908315177 -0.0469820492379476 0
0.1022352342044538 -0.04973161015508994 0
0.122945153882071 -0.04857896636693356 0
0.1262431154690886 -0.03758424540568608 0
0.09209468681515208 -0.0397726585321924 0
0.09262611394356872 -0.04980773393949438 0
0.08305898786536875 -0.04973231621984638 0
0.06788404595900736 -0.03888313567804191 0
0.07368653122973756 -0.04924857946397987 0
0.1119546945052892 -0.04947815370214241 0
0.118860157822138 -0.03864084906641321 0
0.1012549193103393 -0.03973684677541696 0
0.07410334549068694 -0.03936861167670674 0
0.127703157285809 -0.04326814067732584 0
2 8 0 26
366
367
368
369
370
371
372
373
374
375
376
377
378
379
380
381
382
383
384
385
386
387
388
389
390
391
0.1097577988296774 -0.007418953696024524 0
0.08605978276363668 -0.007690558289735465 0
0.06950928685859462 -0.02008645763211564 0
0.1172019206917276 -0.02233524385702449 0
0.1253993792610629 -0.007433634079669456 0
0.1090871537675896 -0.0223321752187248 0
0.06870358023934159 -0.008850614381396822 0
0.09260963689947216 -0.02243591754104632 0
0.09398237713742465 -0.007581025343282245 0
0.1252363923494893 -0.02241601114729397 0
0.06144544742545174 -0.005799738156631932 0
0.06299488066153093 -0.01582981614242284 0
0.08436958166319511 -0.02246506295775395 0
0.1008953813916517 -0.02238905580353056 0
0.1175823787607613 -0.007403542536249437 0
0.1018753883509371 -0.007468643899204827 0
0.07802702521041083 -0.007789135717584589 0
0.1252837435572923 -0.01489885579318544 0
0.1173617096678143 -0.01484941531094264 0
0.09344510955236485 -0.01502890612054267 0
0.07227860439727367 -0.01483385512684285 0
0.1094168555861252 -0.01485249289265372 0
0.1014169752032593 -0.01491129662457762 0
0.08548437224351985 -0.01507329908673568 0
0.07636984762123693 -0.02209419772787496 0
0.07781530839290973 -0.01492207342614233 0
2 9 0 26
392
393
394
395
396
397
398
399
400
401
402
403
404
405
406
407
408
409
410
411
412
413
414
415
416
417
0.117727164808569 0.007406463499041106 0
0.1019487558963092 0.007456944200584678 0
0.08588970878193562 0.007943599693375755 0
0.06850457680580353 0.02268456228577756 0
0.1173613410044182 0.02234503601103766 0
0.1009706041487249 0.02233018006389054 0
0.07677791399209966 0.009884221438524538 0
0.0698125912182322 0.008253004318793623 0
0.08448715929962979 0.02219897247738934 0
0.1254066559550608 0.01489692256691477 0
0.1254695817014716 0.007442885371965917 0
0.1253112167944416 0.02242397939303959 0
0.06178826303511578 0.005523726922461715 0
0.06416754035909022 0.01428384890844741 0
0.09262862130532022 0.02235874053277932 0
0.1092376845401949 0.02235329247493723 0
0.1098642670999678 0.007414595167228207 0
0.09392404938032138 0.007538856074529666 0
0.1175411200264759 0.01485046663563309 0
0.07999301966103077 0.01547381950082102 0
0.07140553331371469 0.01757019853034213 0
0.07760959090716978 0.02068655885130938 0
0.1095770972312292 0.01485592476285811 0
0.1015040418529317 0.01487408492219881 0
0.08569567313781268 0.01511174455150066 0
0.09341688753441028 0.01494207789056516 0
2 10 0 18
418
419
420
421
422
423
424
425
426
427
428
429
430
431
432
433
434
435
0.1103110708057414 0.03945348242838822 0
0.08275286684587625 0.03967358094954811 0
0.06173520033039306 0.05118517000064125 0
0.1022337503522014 0.04973568341556747 0
0.1229451374600421 0.04857901567341874 0
0.1262431133590193 0.03758425211154881 0
0.09206617816140755 0.03978637096167865 0
0.09259745837485152 0.04983226147485512 0
0.08276111640822537 0.04972262688127185 0
0.0680022192277662 0.03778660230608916 0
0.1119543853605026 0.04947900555260294 0
0.0713906644552819 0.04861652344172971 0
0.1188601094627565 0.03864098463824359 0
0.1012490022731118 0.03974161379867798 0
0.1277031499381283 0.04326816207636908 0
0.0738398948810563 0.0387451739322129 0
0.06453130696691969 0.04177077086178085 0
0.06045216333106752 0.0450694163254016 0
2 11 0 7
436
437
438
439
440
441
442
0.03430136627040476 0.0452544864862862 0
0.03359695733619118 0.05268353448455285 0
0.0348172197771314 0.03765170912110226 0
0.04033055034762877 0.05278770155453484 0
0.04675273034310667 0.05225111319960352 0
0.04687044437329371 0.04658614880788425 0
0.0418137180443626 0.04570983922638047 0
2 12 0 7
443
444
445
446
447
448
449
0.01836502352661283 0.03765669923088349 0
0.01884668329896054 0.04525429354030702 0
0.01284380964073229 0.05280714867186075 0
0.01954397910198808 0.05267057225626232 0
0.00642476705257489 0.05226488225478195 0
0.006307036540180883 0.04660282741823511 0
0.01135590798858141 0.0457212256191929 0
2 13 0 7
450
451
452
453
454
455
456
0.006608297839102446 0.01339193998400536 0
0.01975339551402601 0.007338825927468465 0
0.01906414222538088 0.01478074342129333 0
0.01845234243004973 0.02235959322109807 0
0.01305971267729127 0.007219522872539588 0
0.006553772401777119 0.007743067297028852 0
0.01158857666565958 0.0143006747287221 0
2 14 0 7
457
458
459
460
461
462
463
0.04653151146067468 0.01336400735019867 0
0.03469308005689468 0.02234351211267647 0
0.03341714531319982 0.007314196529023807 0
0.04008629226409776 0.007194673128113132 0
0.04660441746053882 0.007728570578267036 0
0.03414153886176308 0.01475929954211335 0
0.04157237025953903 0.01427846459190395 0
2 15 0 7
464
465
466
467
468
469
470
0.01836502352795174 -0.02234330077058375 0
0.01884668329996103 -0.01474570646089155 0
0.01284380964123483 -0.007192851328689319 0
0.0195439791023013 -0.00732942774416424 0
0.006424767053029066 -0.007735117745584022 0
0.006307036541456105 -0.01339717258302327 0
0.01135590799029634 -0.01427877438264628 0
2 16 0 6
471
472
473
474
475
476
0.04306843923084706 -0.0132594003742207 0
0.03506236727044839 -0.02219701429262802 0
0.03388031985119182 -0.007162947866435429 0
0.04631644780804406 -0.005112020733923663 0
0.03471454376407222 -0.0145152634898545 0
0.04102882528778258 -0.006428619211963008 0
2 17 0 3
477
478
479
-0.002660735926747402 0.03266073591354222 0
-0.0008961018984310313 0.03089610189328989 0
-0.0002876074471447114 0.03028760744478399 0
2 18 0 3
480
481
482
-0.0002876074452165697 0.02971239255328776 0
-0.0008961018936521587 0.02910389810193064 0
-0.002660735913701225 0.02733926407341081 0
2 19 0 3
483
484
485
0.0002876074471130581 0.02971239255518426 0
0.0008961018983076154 0.0291038981065861 0
0.002660735926357691 0.02733926408606728 0
2 20 0 3
486
487
488
0.0002876074450256725 0.03028760744690304 0
0.0008961018929076271 0.0308961018988133 0
0.002660735911351338 0.03266073592893828 0
2 21 0 3
489
490
491
-0.002660735926357691 -0.02733926408606728 0
-0.0008961018983076155 -0.0291038981065861 0
-0.0002876074471130579 -0.02971239255518426 0
2 22 0 3
492
493
494
-0.0002876074450256726 -0.03028760744690304 0
-0.0008961018929076271 -0.03089610189881329 0
-0.002660735911351338 -0.03266073592893828 0
2 23 0 3
495
496
497
0.0002876074471447116 -0.03028760744478399 0
0.0008961018984310313 -0.03089610189328989 0
0.002660735926747403 -0.03266073591354222 0
2 24 0 3
498
499
500
0.0002876074452165697 -0.02971239255328776 0
0.0008961018936521587 -0.02910389810193063 0
0.002660735913701225 -0.02733926407341081 0
2 25 0 0
2 26 0 0
2 27 0 0
2 28 0 0
2 29 0 0
2 30 0 0
2 31 0 0
2 32 0 0
$EndNodes
$Elements
64 559 1 559
1 5 1 2
1 1 54 
2 54 2 
1 6 1 2
3 2 55 
4 55 3 
1 7 1 2
5 3 56 
6 56 4 
1 8 1 2
7 4 57 
8 57 1 
1 10 1 2
9 20 58 
10 58 19 
1 11 1 2
11 19 59 
12 59 18 
1 12 1 2
13 18 60 
14 60 17 
1 13 1 2
15 17 61 
16 61 20 
1 21 1 2
17 7 62 
18 62 8 
1 22 1 2
19 8 63 
20 63 9 
1 23 1 2
21 9 64 
22 64 10 
1 24 1 2
23 10 65 
24 65 7 
1 31 1 2
25 11 66 
26 66 12 
1 32 1 2
27 12 67 
28 67 13 
1 33 1 2
29 13 68 
30 68 14 
1 34 1 2
31 14 69 
32 69 11 
1 175 1 4
33 6 186 
34 186 187 
35 187 188 
36 188 39 
1 176 1 4
37 39 189 
38 189 190 
39 190 191 
40 191 38 
1 177 1 4
41 38 192 
42 192 193 
43 193 194 
44 194 37 
1 178 1 4
45 37 195 
46 195 196 
47 196 197 
48 197 5 
1 179 1 8
49 5 198 
50 198 199 
51 199 200 
52 200 201 
53 201 202 
54 202 203 
55 203 204 
56 204 43 
1 180 1 4
57 43 205 
58 205 206 
59 206 207 
60 207 44 
1 181 1 4
61 44 208 
62 208 209 
63 209 210 
64 210 51 
1 182 1 8
65 51 211 
66 211 212 
67 212 213 
68 213 214 
69 214 215 
70 215 216 
71 216 217 
72 217 16 
1 183 1 4
73 16 218 
74 218 219 
75 219 220 
76 220 40 
1 184 1 4
77 40 221 
78 221 222 
79 222 223 
80 223 42 
1 185 1 4
81 42 224 
82 224 225 
83 225 226 
84 226 41 
1 186 1 4
85 41 227 
86 227 228 
87 228 229 
88 229 15 
1 187 1 8
89 15 230 
90 230 231 
91 231 232 
92 232 233 
93 233 234 
94 234 235 
95 235 236 
96 236 52 
1 188 1 4
97 52 237 
98 237 238 
99 238 239 
100 239 45 
1 189 1 4
101 45 240 
102 240 241 
103 241 242 
104 242 53 
1 190 1 8
105 53 243 
106 243 244 
107 244 245 
108 245 246 
109 246 247 
110 247 248 
111 248 249 
112 249 6 
2 1 3 29
113 250 260 254 262 
114 260 250 263 253 
115 256 257 253 263 
116 186 187 264 254 
117 251 258 257 256 
118 251 265 261 258 
119 6 186 254 249 
120 26 117 252 267 
121 260 248 249 254 
122 243 252 117 53 
123 253 247 248 260 
124 27 259 265 116 
125 257 246 247 253 
126 115 116 265 251 
127 258 245 246 257 
128 261 244 245 258 
129 110 255 188 39 
130 244 261 252 243 
131 187 188 255 264 
132 111 262 255 110 
133 115 251 256 114 
134 262 111 112 250 
135 112 113 263 250 
136 114 256 263 113 
137 254 264 255 262 
138 26 267 266 79 
139 261 266 267 252 
140 27 79 266 259 
141 261 265 259 266 
2 2 3 38
142 80 281 288 271 
143 279 272 286 277 
144 165 49 170 280 
145 282 114 115 276 
146 116 289 276 115 
147 283 112 113 273 
148 279 110 111 272 
149 110 279 189 39 
150 178 278 268 177 
151 286 272 283 290 
152 116 27 80 271 
153 114 282 273 113 
154 112 283 272 111 
155 277 286 268 278 
156 284 176 177 268 
157 282 293 291 273 
158 178 38 191 278 
159 280 170 171 275 
160 285 174 175 269 
161 173 174 285 270 
162 176 284 269 175 
163 172 274 275 171 
164 173 270 274 172 
165 286 290 284 268 
166 278 191 190 277 
167 279 277 190 189 
168 291 269 284 290 
169 165 281 80 28 
170 285 293 292 270 
171 287 274 270 292 
172 274 288 281 275 
173 291 293 285 269 
174 273 291 290 283 
175 276 292 293 282 
176 289 287 292 276 
177 165 280 275 281 
178 274 287 289 288 
179 116 271 288 289 
2 3 3 38
180 303 297 313 301 
181 179 31 83 305 
182 307 300 318 317 
183 166 49 170 304 
184 179 312 300 180 
185 307 181 180 300 
186 308 183 182 299 
187 303 185 184 297 
188 185 303 194 37 
189 178 302 294 177 
190 313 297 308 315 
191 181 307 299 182 
192 183 308 297 184 
193 301 313 294 302 
194 304 170 171 298 
195 309 176 177 294 
196 178 38 192 302 
197 311 174 175 295 
198 172 310 298 171 
199 299 319 295 316 
200 173 174 311 296 
201 310 172 173 296 
202 176 309 295 175 
203 313 315 309 294 
204 303 301 193 194 
205 302 192 193 301 
206 317 318 298 310 
207 316 295 309 315 
208 30 166 304 306 
209 179 305 314 312 
210 310 296 319 317 
211 318 314 304 298 
212 299 316 315 308 
213 296 311 295 319 
214 300 312 314 318 
215 30 306 305 83 
216 299 307 317 319 
217 304 314 305 306 
2 4 3 27
218 331 326 321 333 
219 330 328 332 327 
220 322 330 327 325 
221 335 334 323 331 
222 185 329 320 184 
223 198 323 197 5 
224 320 329 334 335 
225 204 43 155 324 
226 326 332 328 321 
227 332 326 200 201 
228 331 199 200 326 
229 332 201 202 327 
230 324 325 203 204 
231 327 202 203 325 
232 333 183 184 320 
233 181 328 330 180 
234 182 321 328 181 
235 179 322 84 31 
236 183 333 321 182 
237 185 37 195 329 
238 199 331 323 198 
239 323 334 196 197 
240 331 333 320 335 
241 195 196 334 329 
242 180 330 322 179 
243 155 32 84 324 
244 322 325 324 84 
2 5 3 13
245 85 339 154 29 
246 342 85 32 336 
247 155 43 205 341 
248 85 342 338 339 
249 338 342 340 337 
250 153 337 207 44 
251 154 339 151 46 
252 32 155 341 336 
253 337 153 152 338 
254 152 151 339 338 
255 337 340 206 207 
256 341 205 206 340 
257 342 336 341 340 
2 6 3 13
258 74 343 344 349 
259 346 345 349 344 
260 74 35 150 343 
261 149 347 210 51 
262 153 44 208 346 
263 346 344 152 153 
264 349 348 36 74 
265 150 46 151 343 
266 344 343 151 152 
267 347 345 209 210 
268 346 208 209 345 
269 36 348 347 149 
270 345 347 348 349 
2 7 3 27
271 350 361 354 362 
272 361 350 363 353 
273 352 360 364 359 
274 356 357 353 363 
275 218 219 365 354 
276 351 358 357 356 
277 351 364 360 358 
278 77 36 149 352 
279 16 218 354 217 
280 352 211 212 360 
281 361 216 217 354 
282 211 352 149 51 
283 352 359 33 77 
284 33 359 364 142 
285 353 215 216 361 
286 357 214 215 353 
287 143 142 364 351 
288 358 213 214 357 
289 360 212 213 358 
290 148 355 220 40 
291 219 220 355 365 
292 147 362 355 148 
293 143 351 356 144 
294 362 147 146 350 
295 146 145 363 350 
296 144 356 363 145 
297 354 365 355 362 
2 8 3 38
298 384 369 375 383 
299 369 147 148 375 
300 378 390 142 143 
301 132 376 133 50 
302 378 143 144 373 
303 373 144 145 379 
304 379 145 146 371 
305 371 146 147 369 
306 371 369 384 387 
307 377 76 33 368 
308 368 386 372 377 
309 376 372 134 133 
310 141 370 223 42 
311 368 390 391 386 
312 140 380 370 141 
313 380 140 139 366 
314 223 370 383 222 
315 382 391 389 367 
316 139 138 381 366 
317 384 383 370 380 
318 136 135 382 367 
319 374 367 389 385 
320 134 372 382 135 
321 136 367 374 137 
322 148 40 221 375 
323 383 375 221 222 
324 137 374 381 138 
325 132 34 76 377 
326 385 388 381 374 
327 380 366 387 384 
328 379 371 387 388 
329 33 142 390 368 
330 381 388 387 366 
331 372 386 391 382 
332 378 373 385 389 
333 373 379 388 385 
334 132 377 372 376 
335 389 391 390 378 
2 9 3 38
336 73 405 412 395 
337 403 396 410 401 
338 131 50 133 404 
339 406 126 125 400 
340 124 413 400 125 
341 407 128 127 397 
342 403 130 129 396 
343 130 403 226 41 
344 141 402 392 140 
345 410 396 407 414 
346 124 21 73 395 
347 126 406 397 127 
348 128 407 396 129 
349 401 410 392 402 
350 408 139 140 392 
351 406 417 415 397 
352 141 42 224 402 
353 404 133 134 399 
354 409 137 138 393 
355 136 137 409 394 
356 139 408 393 138 
357 135 398 399 134 
358 136 394 398 135 
359 410 414 408 392 
360 403 401 225 226 
361 402 224 225 401 
362 415 393 408 414 
363 131 405 73 24 
364 409 417 416 394 
365 411 398 394 416 
366 398 412 405 399 
367 415 417 409 393 
368 397 415 414 407 
369 400 416 417 406 
370 413 411 416 400 
371 131 404 399 405 
372 398 411 413 412 
373 124 395 412 413 
2 10 3 29
374 418 428 422 430 
375 428 418 431 421 
376 424 425 421 431 
377 229 228 432 422 
378 419 426 425 424 
379 419 433 429 426 
380 15 229 422 230 
381 22 123 420 435 
382 428 231 230 422 
383 236 420 123 52 
384 421 232 231 428 
385 21 427 433 124 
386 425 233 232 421 
387 125 124 433 419 
388 426 234 233 425 
389 429 235 234 426 
390 130 423 227 41 
391 235 429 420 236 
392 228 227 423 432 
393 129 430 423 130 
394 125 419 424 126 
395 430 129 128 418 
396 128 127 431 418 
397 126 424 431 127 
398 422 432 423 430 
399 22 435 434 70 
400 429 434 435 420 
401 21 70 434 427 
402 429 433 427 434 
2 11 3 13
403 71 442 436 438 
404 437 436 442 439 
405 71 438 119 23 
406 123 52 237 440 
407 119 438 120 47 
408 437 122 121 436 
409 438 436 121 120 
410 442 71 22 441 
411 122 437 239 45 
412 440 237 238 439 
413 239 437 439 238 
414 22 123 440 441 
415 439 442 441 440 
2 12 3 13
416 78 443 444 449 
417 446 445 449 444 
418 78 25 118 443 
419 117 447 242 53 
420 122 45 240 446 
421 446 444 121 122 
422 449 448 26 78 
423 118 47 120 443 
424 444 443 120 121 
425 447 445 241 242 
426 446 240 241 445 
427 26 448 447 117 
428 445 447 448 449 
2 13 3 13
429 81 453 118 25 
430 456 81 28 450 
431 165 49 169 455 
432 81 456 452 453 
433 452 456 454 451 
434 162 451 167 48 
435 118 453 164 47 
436 28 165 455 450 
437 451 162 163 452 
438 163 164 453 452 
439 455 169 168 454 
440 451 454 168 167 
441 456 450 455 454 
2 14 3 13
442 463 72 24 457 
443 461 457 24 131 
444 72 458 119 23 
445 131 50 158 461 
446 72 463 462 458 
447 162 459 156 48 
448 462 163 164 458 
449 119 458 164 47 
450 163 462 459 162 
451 460 459 462 463 
452 461 158 157 460 
453 459 460 157 156 
454 463 457 461 460 
2 15 3 13
455 82 464 465 470 
456 467 466 470 465 
457 82 29 154 464 
458 166 468 169 49 
459 161 48 167 467 
460 467 465 160 161 
461 470 469 30 82 
462 154 46 159 464 
463 465 464 159 160 
464 468 466 168 169 
465 467 167 168 466 
466 30 469 468 166 
467 466 468 469 470 
2 16 3 12
468 75 472 475 471 
469 472 159 160 475 
470 75 471 132 34 
471 473 475 160 161 
472 161 48 156 473 
473 150 472 75 35 
474 472 150 46 159 
475 156 157 476 473 
476 157 158 474 476 
477 132 474 158 50 
478 471 475 473 476 
479 132 471 476 474 
2 17 3 8
480 26 79 477 88 
481 88 477 478 87 
482 87 478 479 86 
483 86 479 63 8 
484 79 27 97 477 
485 477 97 96 478 
486 478 96 95 479 
487 479 95 9 63 
2 18 3 8
488 9 95 480 64 
489 64 480 92 10 
490 95 96 481 480 
491 480 481 93 92 
492 96 97 482 481 
493 481 482 94 93 
494 97 27 80 482 
495 482 80 28 94 
2 19 3 8
496 10 65 483 92 
497 92 483 484 93 
498 93 484 485 94 
499 94 485 81 28 
500 65 7 89 483 
501 483 89 90 484 
502 484 90 91 485 
503 485 91 25 81 
2 20 3 8
504 8 86 486 62 
505 62 486 89 7 
506 86 87 487 486 
507 486 487 90 89 
508 87 88 488 487 
509 487 488 91 90 
510 88 26 78 488 
511 488 78 25 91 
2 21 3 8
512 30 83 489 100 
513 100 489 490 99 
514 99 490 491 98 
515 98 491 67 12 
516 83 31 109 489 
517 489 109 108 490 
518 490 108 107 491 
519 491 107 13 67 
2 22 3 8
520 13 107 492 68 
521 68 492 104 14 
522 107 108 493 492 
523 492 493 105 104 
524 108 109 494 493 
525 493 494 106 105 
526 109 31 84 494 
527 494 84 32 106 
2 23 3 8
528 14 104 495 69 
529 69 495 101 11 
530 104 105 496 495 
531 495 496 102 101 
532 105 106 497 496 
533 496 497 103 102 
534 106 32 85 497 
535 497 85 29 103 
2 24 3 8
536 12 98 498 66 
537 66 498 101 11 
538 98 99 499 498 
539 498 499 102 101 
540 99 100 500 499 
541 499 500 103 102 
542 100 30 82 500 
543 500 82 29 103 
2 25 3 2
544 35 75 58 19 
545 75 34 20 58 
2 26 3 2
546 19 35 74 59 
547 59 74 36 18 
2 27 3 2
548 18 60 77 36 
549 60 17 33 77 
2 28 3 2
550 34 20 61 76 
551 76 61 17 33 
2 29 3 2
552 22 71 55 2 
553 71 23 3 55 
2 30 3 2
554 3 23 72 56 
555 56 72 24 4 
2 31 3 2
556 4 57 73 24 
557 57 1 21 73 
2 32 3 2
558 2 22 70 54 
559 54 70 21 1 
$EndElements
